<?xml version="1.0" encoding="utf-8"?>
<!-- Generator: Adobe Illustrator 18.1.1, SVG Export Plug-In . SVG Version: 6.00 Build 0)  -->
<!DOCTYPE svg PUBLIC "-//W3C//DTD SVG 1.1//EN" "http://www.w3.org/Graphics/SVG/1.1/DTD/svg11.dtd">
<svg version="1.1" xmlns="http://www.w3.org/2000/svg" xmlns:xlink="http://www.w3.org/1999/xlink" x="0px" y="0px"
	 viewBox="0 0 78.48 78.351" enable-background="new 0 0 78.48 78.351" xml:space="preserve">
<g id="tick_1_" display="none">
</g>
<g id="pm25">
	<g>
		<g>
			<g enable-background="new    ">
				<g enable-background="new    ">
					<defs>
						<path id="SVGID_1_" enable-background="new    " d="M0.019,39.108c-0.027-1.658,0.133-5.533,1.294-9.946
							c0.234-0.891,0.592-2.069,0.901-2.938c0.341-0.961,0.879-2.212,1.264-3.157c0.395-0.972,1.047-2.215,1.581-3.118
							c0.903-1.526,2.234-3.487,3.287-4.914c0.645-0.874,1.59-1.978,2.361-2.742c2.717-2.691,2.717-2.691,5.119-4.552
							c1.449-1.123,2.846-1.935,4.465-2.876c1.165-0.677,2.794-1.455,4.05-1.943c1.74-0.677,2.89-1.124,5.614-1.814
							c2.06-0.522,5.389-1.139,9.553-1.114c4.97,0.03,8.639,1.014,10.402,1.487c0.472,0.127,2.2,0.619,4.617,1.632
							c1.238,0.519,2.825,1.356,4.011,1.985c9.565,5.434,15.868,16.172,15.844,29.343c-0.039,20.785-15.819,39.753-35.246,42.366
							c19.426-2.612,35.207-21.581,35.246-42.366c0.024-13.172-6.279-23.909-15.844-29.343c0.927,0.541,2.166,1.267,3.027,1.907
							c0.649,0.483,1.534,1.103,2.161,1.615c0.789,0.644,1.844,1.506,2.555,2.236c0.604,0.62,1.435,1.422,2.012,2.067
							c0.671,0.75,1.534,1.78,2.142,2.582c1.903,2.508,3.075,4.684,3.389,5.292c0.659,1.275,1.561,3.021,2.517,5.832
							c0.598,1.757,1.151,4.178,1.507,5.999c0.514,2.626,0.739,7.253,0.345,10.501c-0.114,0.937-0.267,2.187-0.44,3.115
							c-0.187,1.007-0.489,2.34-0.759,3.327c-0.606,2.215-0.606,2.215-2.226,6.07c-0.349,0.832-0.924,1.893-1.37,2.677
							c-0.514,0.903-1.271,2.063-1.827,2.941c-0.595,0.939-1.519,2.105-2.234,2.957c-1.102,1.312-2.674,2.984-3.963,4.113
							c-0.912,0.798-2.174,1.81-3.141,2.541c-0.632,0.477-1.522,1.05-2.187,1.481c-1.359,0.883-5.074,3.091-10.216,4.536
							c-5.717,1.606-11.593,1.9-17.464,0.873c-4.272-0.748-7.436-2.08-8.476-2.518c-3.573-1.505-6.608-3.543-7.476-4.201
							c-0.829-0.629-1.963-1.435-2.729-2.14c-0.628-0.578-1.489-1.324-2.091-1.93c-0.714-0.718-1.633-1.708-2.292-2.477
							c-1.152-1.344-2.49-3.297-3.468-4.772c-0.559-0.843-1.183-2.042-1.645-2.941c-0.456-0.889-1.032-2.095-1.37-3.035
							c-0.623-1.734-1.405-4.069-1.828-5.862c-0.388-1.647-0.662-3.893-0.848-5.575C0.037,41.353,0.035,40.068,0.019,39.108z"/>
					</defs>
					<clipPath id="SVGID_3_">
						<use xlink:href="#SVGID_1_"  overflow="visible"/>
					</clipPath>
					<g clip-path="url(#SVGID_3_)" enable-background="new    ">
						<path fill="#B9B9B9" d="M0.019,39.108C0.427,63.852,19.175,73.34,24.911,75.659c12.014,4.856,29.817,3.862,42.509-9.306
							c17.776-18.442,13.459-48.211-8.883-61.254c9.565,5.434,15.868,16.172,15.844,29.343
							c-0.039,20.785-15.819,39.753-35.246,42.366c19.426-2.612,35.207-21.581,35.246-42.366
							c0.024-13.172-6.279-23.909-15.844-29.343C39.788-4.846,24.522,2.406,20.29,4.865C0.648,16.281-0.042,35.393,0.019,39.108"/>
						<path fill="#B9B9B9" d="M74.381,34.442c-0.039,20.785-15.819,39.753-35.246,42.366c-0.038,0-0.09,0-0.128-0.001
							C4.948,78.513-8.023,41.713,7.072,24.466C23.521,5.672,58.277,21.353,60.2,48.436c1.475,20.783-13.748,25.909-21.064,28.372
							C58.562,74.196,74.342,55.227,74.381,34.442c0.024-13.172-6.279-23.909-15.844-29.343c-0.601-0.319-1.403-0.744-2.004-1.063
							c-0.903-0.415-2.11-0.965-3.03-1.341l-1.653-0.606c-0.582-0.185-1.355-0.438-1.942-0.607l-1.338-0.354
							c-0.422-0.096-0.983-0.23-1.406-0.319l-1.117-0.214c-0.337-0.055-0.786-0.132-1.123-0.182l-0.976-0.131
							c-0.29-0.032-0.676-0.077-0.967-0.106L42.091,0.1c-0.265-0.017-0.618-0.042-0.883-0.055L40.356,0.01
							c-0.255-0.005-0.595-0.014-0.85-0.016l-0.85,0.003c-0.258,0.006-0.601,0.012-0.859,0.021l-0.89,0.042
							c-0.275,0.019-0.641,0.042-0.915,0.065L35.01,0.218c-0.31,0.037-0.723,0.084-1.032,0.125l-1.284,0.196
							c-3.723,0.704-5.512,1.279-8.353,2.383l-2.028,0.902c-2.625,1.352-2.782,1.433-4.302,2.403l-2.185,1.515
							c-0.939,0.75-2.187,1.754-3.086,2.551l-2.032,2.001c-0.716,0.816-1.684,1.894-2.361,2.742l-1.73,2.385
							c-0.544,0.883-1.29,2.048-1.794,2.953l-1.344,2.693c-0.384,0.945-0.922,2.196-1.264,3.157l-0.901,2.938
							c-0.222,1-0.548,2.328-0.726,3.337l-0.409,3.124c-0.052,1.045-0.154,2.438-0.16,3.484l0.123,3.2
							c0.201,1.68,0.526,3.914,0.848,5.575l0.802,2.982c0.338,0.95,0.761,2.229,1.14,3.163l1.255,2.752
							c0.489,0.885,1.118,2.078,1.645,2.941l1.651,2.46c0.639,0.813,1.473,1.911,2.147,2.695l1.963,2.094
							c0.803,0.741,1.864,1.739,2.701,2.442l2.119,1.628c1.027,0.684,2.404,1.586,3.465,2.216l2.004,1.063
							c0.903,0.415,2.109,0.965,3.029,1.341l1.653,0.606c0.582,0.185,1.355,0.438,1.941,0.607l1.337,0.354
							c0.422,0.096,0.983,0.23,1.406,0.318l1.117,0.214c0.337,0.055,0.785,0.132,1.123,0.182l0.975,0.131
							c0.29,0.032,0.676,0.077,0.966,0.106l0.891,0.076c0.265,0.017,0.618,0.042,0.883,0.055l0.851,0.034
							c0.255,0.005,0.594,0.014,0.849,0.016l0.85-0.003c0.258-0.006,0.601-0.012,0.859-0.021l0.89-0.042
							c0.274-0.019,0.641-0.042,0.915-0.065l0.983-0.094c0.31-0.037,0.723-0.084,1.032-0.125l1.275-0.195
							c2.462-0.463,4.471-0.893,7.929-2.21l2.003-0.861c2.575-1.283,2.785-1.388,4.408-2.395l2.187-1.481
							c0.955-0.746,2.225-1.747,3.141-2.541l2.047-1.975c0.728-0.812,1.71-1.885,2.399-2.73l1.751-2.365
							c0.554-0.879,1.312-2.038,1.827-2.941l1.37-2.677c0.393-0.942,0.944-2.187,1.296-3.146l0.929-2.925
							c0.232-0.997,0.572-2.321,0.759-3.327l0.44-3.115c0.07-1.167,0.186-2.723,0.198-3.892l-0.123-3.2
							c-0.122-1.023-0.253-2.393-0.42-3.409l-0.638-3.046c-0.286-0.971-0.637-2.274-0.964-3.231l-1.108-2.836
							c-0.439-0.908-0.999-2.131-1.476-3.019l-1.525-2.566c-0.588-0.837-1.352-1.969-1.975-2.78l-1.869-2.227
							c-0.744-0.764-1.724-1.797-2.502-2.526l-2.065-1.776c-2.734-2.042-3.019-2.256-5.188-3.522
							C68.102,10.533,74.405,21.271,74.381,34.442"/>
						<path fill="#B4B4B4" d="M74.381,34.442c-0.032,17.247-10.903,33.243-25.702,39.682c-0.508,0.268-1.186,0.625-1.695,0.892
							C20.955,85.97-7.964,56.441,2.78,29.878c8.597-21.256,44.105-20.416,56.041,7.289c6.303,14.629,2.038,30.172-10.141,36.957
							C63.478,67.685,74.349,51.689,74.381,34.442c0.024-13.172-6.279-23.909-15.844-29.343c-0.601-0.319-1.403-0.744-2.004-1.063
							c-0.903-0.415-2.11-0.965-3.03-1.341l-1.653-0.606c-0.582-0.185-1.355-0.438-1.942-0.607l-1.338-0.354
							c-0.422-0.096-0.983-0.23-1.406-0.319l-1.117-0.214c-0.337-0.055-0.786-0.132-1.123-0.182l-0.976-0.131
							c-0.29-0.032-0.676-0.077-0.967-0.106L42.091,0.1c-0.265-0.017-0.618-0.042-0.883-0.055L40.356,0.01
							c-0.255-0.005-0.595-0.014-0.85-0.016l-0.85,0.003c-0.258,0.006-0.601,0.012-0.859,0.021l-0.89,0.042
							c-0.275,0.019-0.641,0.042-0.915,0.065L35.01,0.218c-0.31,0.037-0.723,0.084-1.032,0.125l-1.284,0.196
							c-3.723,0.704-5.512,1.279-8.353,2.383l-2.028,0.902c-2.625,1.352-2.782,1.433-4.302,2.403l-2.185,1.515
							c-0.939,0.75-2.187,1.754-3.086,2.551l-2.032,2.001c-0.716,0.816-1.684,1.894-2.361,2.742l-1.73,2.385
							c-0.544,0.883-1.29,2.048-1.794,2.953l-1.344,2.693c-0.384,0.945-0.922,2.196-1.264,3.157l-0.901,2.938
							c-0.222,1-0.548,2.328-0.726,3.337l-0.409,3.124c-0.052,1.045-0.154,2.438-0.16,3.484l0.123,3.2
							c0.201,1.68,0.526,3.914,0.848,5.575l0.802,2.982c0.338,0.95,0.761,2.229,1.14,3.163l1.255,2.752
							c0.489,0.885,1.118,2.078,1.645,2.941l1.651,2.46c0.639,0.813,1.473,1.911,2.147,2.695l1.963,2.094
							c0.803,0.741,1.864,1.739,2.701,2.442l2.119,1.628c1.027,0.684,2.404,1.586,3.465,2.216l2.004,1.063
							c0.903,0.415,2.109,0.965,3.029,1.341l1.653,0.606c0.582,0.185,1.355,0.438,1.941,0.607l1.337,0.354
							c0.422,0.096,0.983,0.23,1.406,0.318l1.117,0.214c0.337,0.055,0.785,0.132,1.123,0.182l0.975,0.131
							c0.29,0.032,0.676,0.077,0.966,0.106l0.891,0.076c0.265,0.017,0.618,0.042,0.883,0.055l0.851,0.034
							c0.255,0.005,0.594,0.014,0.849,0.016l0.85-0.003c0.258-0.006,0.601-0.012,0.859-0.021l0.89-0.042
							c0.274-0.019,0.641-0.042,0.915-0.065l0.983-0.094c0.31-0.037,0.723-0.084,1.032-0.125l1.275-0.195
							c2.462-0.463,4.471-0.893,7.929-2.21l2.003-0.861c2.575-1.283,2.785-1.388,4.408-2.395l2.187-1.481
							c0.955-0.746,2.225-1.747,3.141-2.541l2.047-1.975c0.728-0.812,1.71-1.885,2.399-2.73l1.751-2.365
							c0.554-0.879,1.312-2.038,1.827-2.941l1.37-2.677c0.393-0.942,0.944-2.187,1.296-3.146l0.929-2.925
							c0.232-0.997,0.572-2.321,0.759-3.327l0.44-3.115c0.07-1.167,0.186-2.723,0.198-3.892l-0.123-3.2
							c-0.122-1.023-0.253-2.393-0.42-3.409l-0.638-3.046c-0.286-0.971-0.637-2.274-0.964-3.231l-1.108-2.836
							c-0.439-0.908-0.999-2.131-1.476-3.019l-1.525-2.566c-0.588-0.837-1.352-1.969-1.975-2.78l-1.869-2.227
							c-0.744-0.764-1.724-1.797-2.502-2.526l-2.065-1.776c-2.734-2.042-3.019-2.256-5.188-3.522
							C68.102,10.533,74.405,21.271,74.381,34.442"/>
						<g>
							<path fill="#B0B0B0" d="M1.644,50.355C-5.976,23.16,19.035,4.262,44.122,18.258C62.553,28.54,70.828,55.996,54.36,71.067
								c11.818-7.659,19.993-21.672,20.021-36.625c0.024-13.172-6.279-23.909-15.844-29.343c-0.601-0.319-1.403-0.744-2.004-1.063
								c-0.903-0.415-2.11-0.965-3.03-1.341l-1.653-0.606c-0.582-0.185-1.355-0.438-1.942-0.607l-1.338-0.354
								c-0.422-0.096-0.983-0.23-1.406-0.319l-1.117-0.214c-0.337-0.055-0.786-0.132-1.123-0.182l-0.976-0.131
								c-0.29-0.032-0.676-0.077-0.967-0.106L42.091,0.1c-0.265-0.017-0.618-0.042-0.883-0.055L40.356,0.01
								c-0.255-0.005-0.595-0.014-0.85-0.016l-0.85,0.003c-0.258,0.006-0.601,0.012-0.859,0.021l-0.89,0.042
								c-0.275,0.019-0.641,0.042-0.915,0.065L35.01,0.218c-0.31,0.037-0.723,0.084-1.032,0.125l-1.284,0.196
								c-3.723,0.704-5.512,1.279-8.353,2.383l-2.028,0.902c-2.625,1.352-2.782,1.433-4.302,2.403l-2.185,1.515
								c-0.939,0.75-2.187,1.754-3.086,2.551l-2.032,2.001c-0.716,0.816-1.684,1.894-2.361,2.742l-1.73,2.385
								c-0.544,0.883-1.29,2.048-1.794,2.953l-1.344,2.693c-0.384,0.945-0.922,2.196-1.264,3.157l-0.901,2.938
								c-0.222,1-0.548,2.328-0.726,3.337l-0.409,3.124c-0.052,1.045-0.154,2.438-0.16,3.484l0.123,3.2
								c0.201,1.68,0.526,3.914,0.848,5.575l0.802,2.982l0.852,2.439l-0.957-2.801C1.676,50.458,1.656,50.399,1.644,50.355"/>
							<path fill="#B0B0B0" d="M74.381,34.442c-0.028,14.953-8.203,28.965-20.021,36.625c-0.474,0.409-1.106,0.954-1.58,1.363
								c-4.522,3.372-16.915,10.121-34.289-0.002c1.001,0.596,2.362,1.344,3.391,1.889c0.903,0.415,2.109,0.965,3.029,1.341
								l1.653,0.606c0.582,0.185,1.355,0.438,1.941,0.607l1.337,0.354c0.422,0.096,0.983,0.23,1.406,0.318l1.117,0.214
								c0.337,0.055,0.785,0.132,1.123,0.182l0.975,0.131c0.29,0.032,0.676,0.077,0.966,0.106l0.891,0.076
								c0.265,0.017,0.618,0.042,0.883,0.055l0.851,0.034c0.255,0.005,0.594,0.014,0.849,0.016l0.85-0.003
								c0.258-0.006,0.601-0.012,0.859-0.021l0.89-0.042c0.274-0.019,0.641-0.042,0.915-0.065l0.983-0.094
								c0.31-0.037,0.723-0.084,1.032-0.125l1.275-0.195c2.462-0.463,4.471-0.893,7.929-2.21l2.003-0.861
								c2.575-1.283,2.785-1.388,4.408-2.395l2.187-1.481c0.955-0.746,2.225-1.747,3.141-2.541l2.047-1.975
								c0.728-0.812,1.71-1.885,2.399-2.73l1.751-2.365c0.554-0.879,1.312-2.038,1.827-2.941l1.37-2.677
								c0.393-0.942,0.944-2.187,1.296-3.146l0.929-2.925c0.232-0.997,0.572-2.321,0.759-3.327l0.44-3.115
								c0.07-1.167,0.186-2.723,0.198-3.892l-0.123-3.2c-0.122-1.023-0.253-2.393-0.42-3.409l-0.638-3.046
								c-0.286-0.971-0.637-2.274-0.964-3.231l-1.108-2.836c-0.439-0.908-0.999-2.131-1.476-3.019l-1.525-2.566
								c-0.588-0.837-1.352-1.969-1.975-2.78l-1.869-2.227c-0.744-0.764-1.724-1.797-2.502-2.526l-2.065-1.776
								c-2.734-2.042-3.019-2.256-5.188-3.522C68.102,10.533,74.405,21.271,74.381,34.442"/>
						</g>
						<g>
							<path fill="#ACACAC" d="M0.495,45.294C-3.208,14.065,28.68,2.919,50.364,20.599c11.139,9.081,21.079,29.747,8.307,47.259
								c9.45-8.019,15.686-20.359,15.71-33.415c0.024-13.172-6.279-23.909-15.844-29.343c-0.601-0.319-1.403-0.744-2.004-1.063
								c-0.903-0.415-2.11-0.965-3.03-1.341l-1.653-0.606c-0.582-0.185-1.355-0.438-1.942-0.607l-1.338-0.354
								c-0.422-0.096-0.983-0.23-1.406-0.319l-1.117-0.214c-0.337-0.055-0.786-0.132-1.123-0.182l-0.976-0.131
								c-0.29-0.032-0.676-0.077-0.967-0.106L42.091,0.1c-0.265-0.017-0.618-0.042-0.883-0.055L40.356,0.01
								c-0.255-0.005-0.595-0.014-0.85-0.016l-0.85,0.003c-0.258,0.006-0.601,0.012-0.859,0.021l-0.89,0.042
								c-0.275,0.019-0.641,0.042-0.915,0.065L35.01,0.218c-0.31,0.037-0.723,0.084-1.032,0.125l-1.284,0.196
								c-3.723,0.704-5.512,1.279-8.353,2.383l-2.028,0.902c-2.625,1.352-2.782,1.433-4.302,2.403l-2.185,1.515
								c-0.939,0.75-2.187,1.754-3.086,2.551l-2.032,2.001c-0.716,0.816-1.684,1.894-2.361,2.742l-1.73,2.385
								c-0.544,0.883-1.29,2.048-1.794,2.953l-1.344,2.693c-0.384,0.945-0.922,2.196-1.264,3.157l-0.901,2.938
								c-0.222,1-0.548,2.328-0.726,3.337l-0.409,3.124c-0.052,1.045-0.154,2.438-0.16,3.484l0.123,3.2
								c0.128,1.074,0.271,2.51,0.449,3.577L0.495,45.294"/>
							<path fill="#ACACAC" d="M74.381,34.442c-0.024,13.057-6.261,25.397-15.71,33.415c-0.192,0.252-0.447,0.589-0.639,0.841
								c-11.408,12.838-26.238,9.417-32.085,7.35l1.635,0.549l0.924,0.275l1.337,0.354c0.422,0.096,0.983,0.23,1.406,0.318
								l1.117,0.214c0.337,0.055,0.785,0.132,1.123,0.182l0.975,0.131c0.29,0.032,0.676,0.077,0.966,0.106l0.891,0.076
								c0.265,0.017,0.618,0.042,0.883,0.055l0.851,0.034c0.255,0.005,0.594,0.014,0.849,0.016l0.85-0.003
								c0.258-0.006,0.601-0.012,0.859-0.021l0.89-0.042c0.274-0.019,0.641-0.042,0.915-0.065l0.983-0.094
								c0.31-0.037,0.723-0.084,1.032-0.125l1.275-0.195c2.462-0.463,4.471-0.893,7.929-2.21l2.003-0.861
								c2.575-1.283,2.785-1.388,4.408-2.395l2.187-1.481c0.955-0.746,2.225-1.747,3.141-2.541l2.047-1.975
								c0.728-0.812,1.71-1.885,2.399-2.73l1.751-2.365c0.554-0.879,1.312-2.038,1.827-2.941l1.37-2.677
								c0.393-0.942,0.944-2.187,1.296-3.146l0.929-2.925c0.232-0.997,0.572-2.321,0.759-3.327l0.44-3.115
								c0.07-1.167,0.186-2.723,0.198-3.892l-0.123-3.2c-0.122-1.023-0.253-2.393-0.42-3.409l-0.638-3.046
								c-0.286-0.971-0.637-2.274-0.964-3.231l-1.108-2.836c-0.439-0.908-0.999-2.131-1.476-3.019l-1.525-2.566
								c-0.588-0.837-1.352-1.969-1.975-2.78l-1.869-2.227c-0.744-0.764-1.724-1.797-2.502-2.526l-2.065-1.776
								c-2.734-2.042-3.019-2.256-5.188-3.522C68.102,10.533,74.405,21.271,74.381,34.442"/>
						</g>
						<g>
							<path fill="#A8A8A8" d="M0.02,39.076C1.59,5.742,37.708,3.806,55.289,22.87c11.332,12.288,14.158,28.969,7.031,41.507
								c7.373-7.888,12.04-18.643,12.061-29.934c0.024-13.172-6.279-23.909-15.844-29.343c-0.601-0.319-1.403-0.744-2.004-1.063
								c-0.903-0.415-2.11-0.965-3.03-1.341l-1.653-0.606c-0.582-0.185-1.355-0.438-1.942-0.607l-1.338-0.354
								c-0.422-0.096-0.983-0.23-1.406-0.319l-1.117-0.214c-0.337-0.055-0.786-0.132-1.123-0.182l-0.976-0.131
								c-0.29-0.032-0.676-0.077-0.967-0.106L42.091,0.1c-0.265-0.017-0.618-0.042-0.883-0.055L40.356,0.01
								c-0.255-0.005-0.595-0.014-0.85-0.016l-0.85,0.003c-0.258,0.006-0.601,0.012-0.859,0.021l-0.89,0.042
								c-0.275,0.019-0.641,0.042-0.915,0.065L35.01,0.218c-0.31,0.037-0.723,0.084-1.032,0.125l-1.284,0.196
								c-3.723,0.704-5.512,1.279-8.353,2.383l-2.028,0.902c-2.625,1.352-2.782,1.433-4.302,2.403l-2.185,1.515
								c-0.939,0.75-2.187,1.754-3.086,2.551l-2.032,2.001c-0.716,0.816-1.684,1.894-2.361,2.742l-1.73,2.385
								c-0.544,0.883-1.29,2.048-1.794,2.953l-1.344,2.693c-0.384,0.945-0.922,2.196-1.264,3.157l-0.901,2.938
								c-0.222,1-0.548,2.328-0.726,3.337l-0.409,3.124c-0.052,1.045-0.154,2.438-0.16,3.484L0.02,39.076"/>
							<path fill="#A8A8A8" d="M74.381,34.442C74.36,45.733,69.693,56.488,62.32,64.377c-0.339,0.592-0.79,1.382-1.129,1.974
								c-8.909,12.104-20.733,12.86-29.083,11.362l1.094,0.185l0.286,0.043l0.975,0.131c0.29,0.032,0.676,0.077,0.966,0.106
								l0.891,0.076c0.265,0.017,0.618,0.042,0.883,0.055l0.851,0.034c0.255,0.005,0.594,0.014,0.849,0.016l0.85-0.003
								c0.258-0.006,0.601-0.012,0.859-0.021l0.89-0.042c0.274-0.019,0.641-0.042,0.915-0.065l0.983-0.094
								c0.31-0.037,0.723-0.084,1.032-0.125l1.275-0.195c2.462-0.463,4.471-0.893,7.929-2.21l2.003-0.861
								c2.575-1.283,2.785-1.388,4.408-2.395l2.187-1.481c0.955-0.746,2.225-1.747,3.141-2.541l2.047-1.975
								c0.728-0.812,1.71-1.885,2.399-2.73l1.751-2.365c0.554-0.879,1.312-2.038,1.827-2.941l1.37-2.677
								c0.393-0.942,0.944-2.187,1.296-3.146l0.929-2.925c0.232-0.997,0.572-2.321,0.759-3.327l0.44-3.115
								c0.07-1.167,0.186-2.723,0.198-3.892l-0.123-3.2c-0.122-1.023-0.253-2.393-0.42-3.409l-0.638-3.046
								c-0.286-0.971-0.637-2.274-0.964-3.231l-1.108-2.836c-0.439-0.908-0.999-2.131-1.476-3.019l-1.525-2.566
								c-0.588-0.837-1.352-1.969-1.975-2.78l-1.869-2.227c-0.744-0.764-1.724-1.797-2.502-2.526l-2.065-1.776
								c-2.734-2.042-3.019-2.256-5.188-3.522C68.102,10.533,74.405,21.271,74.381,34.442"/>
						</g>
						<g>
							<path fill="#A4A4A4" d="M0.89,31.021C7.58,2.544,45.487,1.404,62.345,29.173c5.981,9.852,7.216,21.85,3.222,31.311
								c5.47-7.365,8.797-16.512,8.815-26.042c0.024-13.172-6.279-23.909-15.844-29.343c-0.601-0.319-1.403-0.744-2.004-1.063
								c-0.903-0.415-2.11-0.965-3.03-1.341l-1.653-0.606c-0.582-0.185-1.355-0.438-1.942-0.607l-1.338-0.354
								c-0.422-0.096-0.983-0.23-1.406-0.319l-1.117-0.214c-0.337-0.055-0.786-0.132-1.123-0.182l-0.976-0.131
								c-0.29-0.032-0.676-0.077-0.967-0.106L42.091,0.1c-0.265-0.017-0.618-0.042-0.883-0.055L40.356,0.01
								c-0.255-0.005-0.595-0.014-0.85-0.016l-0.85,0.003c-0.258,0.006-0.601,0.012-0.859,0.021l-0.89,0.042
								c-0.275,0.019-0.641,0.042-0.915,0.065L35.01,0.218c-0.31,0.037-0.723,0.084-1.032,0.125l-1.284,0.196
								c-3.723,0.704-5.512,1.279-8.353,2.383l-2.028,0.902c-2.625,1.352-2.782,1.433-4.302,2.403l-2.185,1.515
								c-0.939,0.75-2.187,1.754-3.086,2.551l-2.032,2.001c-0.716,0.816-1.684,1.894-2.361,2.742l-1.73,2.385
								c-0.544,0.883-1.29,2.048-1.794,2.953l-1.344,2.693c-0.384,0.945-0.922,2.196-1.264,3.157l-0.901,2.938
								c-0.222,1-0.548,2.328-0.726,3.337c-0.048,0.302-0.112,0.705-0.16,1.007C0.566,32.761,0.734,31.763,0.89,31.021"/>
							<path fill="#A4A4A4" d="M74.381,34.442c-0.018,9.529-3.345,18.677-8.815,26.042c-0.071,0.209-0.166,0.487-0.237,0.696
								C60.53,72.298,50.637,78.555,38.185,78.347c0.47,0.008,1.098,0.011,1.568,0.01c0.258-0.006,0.601-0.012,0.859-0.021
								l0.89-0.042c0.274-0.019,0.641-0.042,0.915-0.065l0.983-0.094c0.31-0.037,0.723-0.084,1.032-0.125l1.275-0.195
								c2.462-0.463,4.471-0.893,7.929-2.21l2.003-0.861c2.575-1.283,2.785-1.388,4.408-2.395l2.187-1.481
								c0.955-0.746,2.225-1.747,3.141-2.541l2.047-1.975c0.728-0.812,1.71-1.885,2.399-2.73l1.751-2.365
								c0.554-0.879,1.312-2.038,1.827-2.941l1.37-2.677c0.393-0.942,0.944-2.187,1.296-3.146l0.929-2.925
								c0.232-0.997,0.572-2.321,0.759-3.327l0.44-3.115c0.07-1.167,0.186-2.723,0.198-3.892l-0.123-3.2
								c-0.122-1.023-0.253-2.393-0.42-3.409l-0.638-3.046c-0.286-0.971-0.637-2.274-0.964-3.231l-1.108-2.836
								c-0.439-0.908-0.999-2.131-1.476-3.019l-1.525-2.566c-0.588-0.837-1.352-1.969-1.975-2.78l-1.869-2.227
								c-0.744-0.764-1.724-1.797-2.502-2.526l-2.065-1.776c-2.734-2.042-3.019-2.256-5.188-3.522
								C68.102,10.533,74.405,21.271,74.381,34.442"/>
						</g>
						<g>
							<path fill="#A0A0A0" d="M1.94,27.038C13.437-3.376,52.545,3.607,65.799,31.224c2.714,5.655,5.392,14.533,2.738,24.718
								c3.68-6.436,5.83-13.844,5.844-21.499c0.024-13.172-6.279-23.909-15.844-29.343c-0.601-0.319-1.403-0.744-2.004-1.063
								c-0.903-0.415-2.11-0.965-3.03-1.341l-1.653-0.606c-0.582-0.185-1.355-0.438-1.942-0.607l-1.338-0.354
								c-0.422-0.096-0.983-0.23-1.406-0.319l-1.117-0.214c-0.337-0.055-0.786-0.132-1.123-0.182l-0.976-0.131
								c-0.29-0.032-0.676-0.077-0.967-0.106L42.091,0.1c-0.265-0.017-0.618-0.042-0.883-0.055L40.356,0.01
								c-0.255-0.005-0.595-0.014-0.85-0.016l-0.85,0.003c-0.258,0.006-0.601,0.012-0.859,0.021l-0.89,0.042
								c-0.275,0.019-0.641,0.042-0.915,0.065L35.01,0.218c-0.31,0.037-0.723,0.084-1.032,0.125l-1.284,0.196
								c-3.723,0.704-5.512,1.279-8.353,2.383l-2.028,0.902c-2.625,1.352-2.782,1.433-4.302,2.403l-2.185,1.515
								c-0.939,0.75-2.187,1.754-3.086,2.551l-2.032,2.001c-0.716,0.816-1.684,1.894-2.361,2.742l-1.73,2.385
								c-0.544,0.883-1.29,2.048-1.794,2.953l-1.344,2.693c-0.384,0.945-0.922,2.196-1.264,3.157
								c-0.122,0.367-0.284,0.857-0.406,1.224C1.847,27.326,1.897,27.16,1.94,27.038"/>
							<path fill="#A0A0A0" d="M74.381,34.442c-0.014,7.655-2.164,15.063-5.844,21.499c-0.158,0.723-0.368,1.686-0.525,2.408
								c-5.153,14.11-15.545,18.462-23.356,19.629l1.286-0.205c1.954-0.38,4.168-0.811,7.693-2.169l2.003-0.861
								c2.575-1.283,2.785-1.388,4.408-2.395l2.187-1.481c0.955-0.746,2.225-1.747,3.141-2.541l2.047-1.975
								c0.728-0.812,1.71-1.885,2.399-2.73l1.751-2.365c0.554-0.879,1.312-2.038,1.827-2.941l1.37-2.677
								c0.393-0.942,0.944-2.187,1.296-3.146l0.929-2.925c0.232-0.997,0.572-2.321,0.759-3.327l0.44-3.115
								c0.07-1.167,0.186-2.723,0.198-3.892l-0.123-3.2c-0.122-1.023-0.253-2.393-0.42-3.409l-0.638-3.046
								c-0.286-0.971-0.637-2.274-0.964-3.231l-1.108-2.836c-0.439-0.908-0.999-2.131-1.476-3.019l-1.525-2.566
								c-0.588-0.837-1.352-1.969-1.975-2.78l-1.869-2.227c-0.744-0.764-1.724-1.797-2.502-2.526l-2.065-1.776
								c-2.734-2.042-3.019-2.256-5.188-3.522C68.102,10.533,74.405,21.271,74.381,34.442"/>
						</g>
						<g>
							<path fill="#9C9C9C" d="M6.326,17.941c18.547-26.503,59.35-8.257,64.613,21.409c0.733,4.135,0.981,5.528,0.403,10.754
								c1.944-4.924,3.029-10.231,3.039-15.662c0.024-13.172-6.279-23.909-15.844-29.343c-0.601-0.319-1.403-0.744-2.004-1.063
								c-0.903-0.415-2.11-0.965-3.03-1.341l-1.653-0.606c-0.582-0.185-1.355-0.438-1.942-0.607l-1.338-0.354
								c-0.422-0.096-0.983-0.23-1.406-0.319l-1.117-0.214c-0.337-0.055-0.786-0.132-1.123-0.182l-0.976-0.131
								c-0.29-0.032-0.676-0.077-0.967-0.106L42.091,0.1c-0.265-0.017-0.618-0.042-0.883-0.055L40.356,0.01
								c-0.255-0.005-0.595-0.014-0.85-0.016l-0.85,0.003c-0.258,0.006-0.601,0.012-0.859,0.021l-0.89,0.042
								c-0.275,0.019-0.641,0.042-0.915,0.065L35.01,0.218c-0.31,0.037-0.723,0.084-1.032,0.125l-1.284,0.196
								c-3.723,0.704-5.512,1.279-8.353,2.383l-2.028,0.902c-2.625,1.352-2.782,1.433-4.302,2.403l-2.185,1.515
								c-0.939,0.75-2.187,1.754-3.086,2.551l-2.032,2.001c-0.716,0.816-1.684,1.894-2.361,2.742l-1.73,2.385
								c-0.544,0.883-1.29,2.048-1.794,2.953l1.07-1.782C6.022,18.397,6.191,18.134,6.326,17.941"/>
							<path fill="#9C9C9C" d="M74.381,34.442c-0.01,5.431-1.095,10.738-3.039,15.662c-0.013,0.683-0.031,1.593-0.045,2.276
								c-2.854,16.366-14.04,22.191-20.453,24.206l1.429-0.472l1.362-0.509l2.003-0.861c2.575-1.283,2.785-1.388,4.408-2.395
								l2.187-1.481c0.955-0.746,2.225-1.747,3.141-2.541l2.047-1.975c0.728-0.812,1.71-1.885,2.399-2.73l1.751-2.365
								c0.554-0.879,1.312-2.038,1.827-2.941l1.37-2.677c0.393-0.942,0.944-2.187,1.296-3.146l0.929-2.925
								c0.232-0.997,0.572-2.321,0.759-3.327l0.44-3.115c0.07-1.167,0.186-2.723,0.198-3.892l-0.123-3.2
								c-0.122-1.023-0.253-2.393-0.42-3.409l-0.638-3.046c-0.286-0.971-0.637-2.274-0.964-3.231l-1.108-2.836
								c-0.439-0.908-0.999-2.131-1.476-3.019l-1.525-2.566c-0.588-0.837-1.352-1.969-1.975-2.78l-1.869-2.227
								c-0.744-0.764-1.724-1.797-2.502-2.526l-2.065-1.776c-2.734-2.042-3.019-2.256-5.188-3.522
								C68.102,10.533,74.405,21.271,74.381,34.442"/>
						</g>
						<path fill="#BDBDBD" d="M28.376,75.919c24.543,4.833,39.42-21.437,24.491-43.243C37.472,10.19,5.273,13.85,1.445,38.522
							C-1.084,54.821,11.752,72.646,28.376,75.919"/>
						<path fill="#C1C1C1" d="M24.804,74.588c25.555,7.898,40.229-17.565,28.684-38.159C39.444,11.377,8.088,14.535,2.582,35.75
							C-2.013,53.454,10.363,70.124,24.804,74.588"/>
						<path fill="#C5C5C5" d="M19.896,72.131c22.025,11.402,41.007-7.938,35.097-28.2C47.135,16.988,14.974,12.918,4.877,31.947
							C-2.31,45.491,4.708,64.269,19.896,72.131"/>
						<path fill="#C9C9C9" d="M18.365,70.858C38.977,82.51,59.708,66.549,53.576,43.75c-5.791-21.53-38.33-31.909-48.726-9.893
							C-1.695,47.72,6.554,64.181,18.365,70.858"/>
						<path fill="#CDCDCD" d="M16.045,68.843c18.821,12.795,39.904,0.495,36.98-21.575c-2.98-22.496-32.702-33.074-45.433-16.169
							C-1.53,43.212,4.531,61.016,16.045,68.843"/>
						<path fill="#D1D1D1" d="M15.749,68.043c19.39,13.898,39.351-1.21,36.065-20.914c-3.907-23.433-34.325-29.732-44.253-14.21
							C-0.364,45.309,5.641,60.798,15.749,68.043"/>
						<path fill="#D6D6D6" d="M16.061,67.607c19.996,14.123,37.8-3.422,34.526-20.605c-4.423-23.21-33.08-28.145-42.98-12.166
							C1.283,45.043,4.996,59.438,16.061,67.607"/>
						<path fill="#DADADA" d="M13.748,64.899c17.399,15.764,36.323,2.203,35.963-14.487c-0.495-22.91-27.563-29.309-38.737-17.943
							C1.668,41.933,4.895,56.878,13.748,64.899"/>
						<path fill="#DEDEDE" d="M14.262,64.454c16.472,14.893,36.572,1.19,34.271-17.633C46.302,28.563,20.333,21,9.941,35.581
							C2.913,45.443,6.922,57.818,14.262,64.454"/>
						<path fill="#E2E2E2" d="M14.92,63.992c16.752,14.661,34.989-1.264,32.786-17.234c-2.368-17.164-26.281-24.165-36.554-10.702
							C3.377,46.246,8.675,58.527,14.92,63.992"/>
						<path fill="#E6E6E6" d="M13.21,60.961c13.579,15.877,32.84,4.328,33.772-10.771c1.076-17.431-21.372-25.864-32.302-15.86
							C3.922,44.175,9.015,56.055,13.21,60.961"/>
						<path fill="#EAEAEA" d="M14.116,60.491c12.683,14.419,31.009,3.542,32.039-10.356c1.101-14.852-17.826-26.438-30.942-14.686
							C6.293,43.442,9.202,54.905,14.116,60.491"/>
						<path fill="#EEEEEE" d="M15.21,60.007c11.732,13.066,29.006,2.846,30.112-9.921c1.152-13.304-16.199-26.005-30.048-13.121
							C9.925,41.942,8.584,52.628,15.21,60.007"/>
						<path fill="#F3F3F3" d="M16.474,59.529c10.568,10.809,26.712,3.325,28.027-9.484C45.998,35.46,28.765,26.832,17.385,36.47
							C9.709,42.97,10.717,53.641,16.474,59.529"/>
						<path fill="#F7F7F7" d="M15.57,56.233c5.578,8.388,14.673,6.995,14.761,6.975c3.043-0.667,12.304-2.696,13.594-13.189
							c1.547-12.581-13.165-21.334-24.218-14.41C13.112,39.742,11.14,49.572,15.57,56.233"/>
						<path fill="#FBFBFB" d="M16.883,55.84c7.535,10.944,24.6,7.176,26.464-5.843c0.847-5.919-2.17-11.31-8.278-14.79
							c-1.657-0.944-7.655-3.635-15.283,1.366C15.234,39.558,11.58,48.137,16.883,55.84"/>
						<path fill="#FFFFFF" d="M17.973,55.548c7.585,9.603,22.878,6.166,24.794-5.571c0.429-2.626,0.538-9.259-7.686-14.11
							c-2.477-1.461-7.646-3.265-14.434,1.064C14.707,40.719,13.407,49.767,17.973,55.548"/>
						<path fill="#FFFFFF" d="M19.12,55.269c7.83,9.318,21.239,4.669,23.066-5.31c1.906-10.409-10.705-18.842-19.844-13.27
							C12.839,42.483,16.655,52.336,19.12,55.269"/>
						<path fill="#FFFFFF" d="M19.247,53.598c2.105,3.233,6.137,6.837,13.394,5.651c3.534-0.578,7.979-4.454,8.963-9.304
							c0.922-4.548-1.084-8.756-5.962-12.505c-2.675-2.056-8.836-2.571-11.566-0.967c-5.395,3.17-5.651,4.078-6.881,8.439
							C17.013,45.556,16.257,49.006,19.247,53.598"/>
						<path fill="#FFFFFF" d="M21.001,54.868c3.36,3.449,9.647,4.522,11.512,3.744c4.688-1.954,4.778-1.991,7.157-5.331
							c1.014-1.423,1.851-4.221,1.492-6.813c-0.529-3.811-3.094-6.451-3.868-7.17c-2.027-1.883-2.027-1.883-7.408-3.301
							c-3.391-0.894-9.279,3.213-10.281,4.787C14.79,48.349,20.745,54.606,21.001,54.868"/>
						<path fill="#FFFFFF" d="M19.609,51.651c1.387,2.641,4.891,6.973,12.779,6.319c2.272-0.188,7.171-3.859,8.047-8.045
							c1.327-6.347-3.639-10.444-3.851-10.615c-2.608-2.107-6.509-2.786-6.674-2.814c-1.521-0.257-3.66,0.213-5.076,0.826
							c-1.483,0.642-3.204,2.078-4.255,3.305c-0.371,0.433-1.999,3.984-2.009,4.013C18.557,44.669,17.878,48.356,19.609,51.651"/>
						<path fill="#FFFFFF" d="M20.268,51.522c0.86,1.52,4.266,6.43,11.996,5.798l3.734-1.613c1.914-1.864,3.179-3.095,3.868-5.789
							c1.157-4.522-1.305-8.438-3.995-10.595c-1.782-1.429-5.903-2.326-5.939-2.331c-1.527-0.198-3.646,0.28-5.053,0.906
							c-0.661,0.294-4.04,1.993-5.604,6.612C19.049,45.179,18.712,48.772,20.268,51.522"/>
						<path fill="#FFFFFF" d="M20.942,51.398c0.011,0.019,2.407,2.796,2.697,3.005c1.229,0.887,3.168,1.57,4.539,2.216
							c1.077,0.508,2.782,0.156,3.969,0.061c1.237-0.1,2.9-0.775,3.803-1.626c2.285-2.154,3.094-4.144,3.373-5.139
							c0.501-1.787,1.098-6.394-4.159-10.572c-1.297-1.031-3.553-1.713-5.204-1.854c-1.532-0.13-3.63,0.347-5.029,0.984
							C21.711,39.939,17.506,45.669,20.942,51.398"/>
						<path fill="#FFFFFF" d="M21.629,51.277c1.227,2.03,4.213,5.361,10.422,4.868c1.265-0.1,2.92-0.888,3.851-1.75
							c1.784-1.652,2.868-4.455,2.875-4.48c1.055-3.473-0.356-7.365-3.595-9.917c-0.473-0.373-4.552-1.952-5.196-2.012
							c-1.528-0.142-3.611,0.418-5.004,1.063C24.898,39.088,17.281,44.084,21.629,51.277"/>
						<path fill="#FFFFFF" d="M22.331,51.161c1.389,2.282,4.445,3.693,5.449,4.156c1.141,0.527,2.925,0.387,4.178,0.289
							c1.294-0.101,2.937-1.004,3.898-1.875c0.802-0.727,2.369-3.79,2.376-3.814c1.166-3.565-0.669-7.411-2.988-9.22
							c-1.343-1.048-3.534-2.037-5.228-2.215c-1.523-0.16-3.591,0.489-4.977,1.141C24.984,39.648,18.311,44.559,22.331,51.161"/>
						<path fill="#FFFFFF" d="M22.982,51.059c0.016,0.022,2.066,2.46,4.684,3.64c1.153,0.52,2.938,0.462,4.199,0.365
							c0.018-0.001,3.543-1.697,3.941-2.05c0.814-0.719,1.527-2.066,1.879-3.092c1.514-4.414-1.556-7.92-2.461-8.617
							c-0.725-0.559-4.5-2.255-5.178-2.328c-0.251-0.027-4.734,1.106-4.945,1.249c-1.212,0.826-2.756,2.392-3.038,3.832
							C21.673,46.05,21.189,48.528,22.982,51.059"/>
						<path fill="#FFFFFF" d="M23.631,50.962c0.016,0.021,3.411,2.885,3.871,3.086c1.181,0.516,2.986,0.567,4.272,0.469
							c0.346-0.027,3.22-1.651,3.98-2.3c0.61-0.522,1.128-1.528,1.385-2.288c1.661-4.909-1.856-7.946-1.893-7.974
							c-0.03-0.023-4.871-2.453-5.169-2.484c-0.182-0.019-4.718,1.307-4.903,1.433C22.638,42.64,20.916,47.36,23.631,50.962"/>
						<path fill="#FFFFFF" d="M24.292,50.869c0.714,0.927,1.955,1.998,3.034,2.45c1.22,0.511,3.041,0.748,4.36,0.648
							c0.467-0.035,3.988-2.529,4.018-2.554c0.399-0.328,0.721-0.986,0.889-1.474c1.267-3.685-0.864-6.997-1.322-7.335
							c-1.391-1.026-3.435-2.398-5.155-2.574c-1.523-0.156-3.606,0.675-4.862,1.55C23.15,43.046,21.694,47.499,24.292,50.869"/>
						<path fill="#FFFFFF" d="M24.961,50.779c0.519,0.668,1.4,1.47,2.187,1.781c1.263,0.499,3.12,1.123,4.448,0.838
							c1.446-0.31,2.889-1.891,4.058-2.797c0.18-0.14,0.324-0.434,0.392-0.652c1.324-4.283-0.415-6.312-1.224-6.986
							c-1.205-1.004-3.102-2.24-4.666-2.357c-1.524-0.114-3.4,1.085-4.821,1.647c-1.734,0.686-1.884,5.164-1.878,5.206
							C23.606,48.543,24.29,49.916,24.961,50.779"/>
						<path fill="#FFFFFF" d="M25.635,50.694c0.322,0.409,0.85,0.928,1.341,1.101c1.309,0.463,3.165,1.261,4.524,0.975
							c1.407-0.297,2.78-1.888,3.89-2.802c0.137-0.113,0.154-0.387,0.195-0.56c0.204-0.855,0.645-2.054,0.412-2.902
							c-0.327-1.193-1.214-2.72-2.169-3.506c-0.94-0.774-2.414-1.747-3.629-1.817c-1.523-0.088-3.394,1.099-4.777,1.744
							c-0.27,0.126-0.494,0.504-0.623,0.772C23.098,47.242,25.003,49.891,25.635,50.694"/>
						<path fill="#FFFFFF" d="M26.312,50.614c0.12,0.151,0.311,0.356,0.496,0.411c1.359,0.407,3.205,1.386,4.597,1.113
							c1.068-0.209,2.276-1.266,2.934-2.133c0.614-0.81,0.952-2.196,1.11-3.199c0.022-0.139,0.058-0.352-0.022-0.467
							c-0.718-1.033-1.612-2.506-2.592-3.295c-0.676-0.545-1.725-1.242-2.592-1.286c-1.521-0.077-3.742,0.681-4.732,1.839
							c-0.74,0.866-0.963,2.572-0.834,3.704C24.803,48.401,25.622,49.746,26.312,50.614"/>
						<path fill="#FFFFFF" d="M26.54,49.725c0.218,0.279,0.567,0.642,0.899,0.766c1.126,0.419,2.693,1.229,3.874,1.011
							c0.723-0.134,1.571-0.837,1.976-1.451c0.62-0.942,1.473-2.411,1.303-3.527c-0.198-1.304-1.804-2.51-2.749-3.43
							c-0.372-0.363-1.036-0.74-1.555-0.764C28.96,42.266,22.712,44.835,26.54,49.725"/>
						<path fill="#FFFFFF" d="M26.149,47.647c0.745,0.969,2.04,2.021,3.073,2.675c0.525,0.333,1.391,0.654,2.002,0.538
							c0.373-0.071,0.831-0.423,1.017-0.755c0.56-0.997,1.562-2.414,1.398-3.545c-0.005-0.035-2.568-3.623-3.302-3.66
							c-0.524-0.026-0.903-0.045-4.343,3.853C25.815,46.958,25.984,47.431,26.149,47.647"/>
						<path fill="#FFFFFF" d="M31.019,50.183c0.032,0.017,0.082,0.039,0.118,0.033c0.179-0.034,1.556-3.578,1.551-3.61
							c-0.146-1.053-1.201-2.677-2.264-2.729c-1.328-0.065-3.205,1.803-3.135,3.131C27.367,48.475,29.724,49.488,31.019,50.183"/>
						<path fill="#FFFFFF" d="M30.929,48.585c0.61-0.143,0.903-1.307,0.81-1.927c-0.082-0.545-0.63-1.382-1.181-1.408
							c-0.686-0.032-1.653,0.922-1.63,1.608C28.954,47.651,30.157,48.766,30.929,48.585"/>
						<path fill="#FFFFFF" d="M30.728,46.866c0.047-0.011,0.07-0.101,0.062-0.148c-0.006-0.042-0.049-0.105-0.091-0.107
							c-0.052-0.002-0.126,0.069-0.125,0.121C30.577,46.793,30.669,46.879,30.728,46.866"/>
					</g>
				</g>
				<g enable-background="new    ">
					<defs>
						<path id="SVGID_5_" enable-background="new    " d="M19.878,73.255c-0.679-0.394-1.584-0.923-2.231-1.368
							c-1.03-0.709-2.377-1.694-3.353-2.476c-1.334-1.068-2.94-2.698-4.125-3.93c-0.779-0.81-1.742-1.968-2.384-2.891
							c-2.235-3.218-2.235-3.218-3.429-5.479c-2.433-4.607-3.358-9.182-3.367-9.228c-0.367-1.849-0.762-4.339-0.893-6.22
							c-0.12-1.722-0.152-4.04,0.058-5.754c0.125-1.023,0.219-2.401,0.433-3.409c0.194-0.913,0.415-2.138,0.649-3.041
							c0.254-0.981,0.607-2.29,0.977-3.233c0.333-0.849,0.745-1.994,1.116-2.827c0.412-0.924,1.006-2.137,1.492-3.024
							c1.678-3.061,3.506-5.318,3.523-5.339c1.098-1.327,2.608-3.066,3.861-4.247c0.256-0.241,2.563-2.396,4.742-3.853
							C18.8,5.697,22.654,3.12,28.668,1.444c5.017-1.398,10.154-1.79,15.268-1.164c7.485,0.916,12.472,3.651,14.602,4.819
							c-5.528-3.141-12.147-4.51-19.262-3.553c7.116-0.957,13.734,0.412,19.262,3.553c1.362,0.836,3.188,1.95,4.444,2.94
							c1.14,0.898,3.047,2.401,4.852,4.387c1.29,1.419,2.405,2.644,4.056,5.128c0.571,0.858,1.275,2.04,1.772,2.943
							c0.436,0.793,0.947,1.887,1.337,2.704c0.438,0.917,0.911,2.192,1.247,3.151c0.305,0.871,0.624,2.061,0.89,2.944
							c0.296,0.979,0.581,2.319,0.712,3.334c0.12,0.938,0.32,2.184,0.397,3.127c0.086,1.042,0.145,2.437,0.146,3.482
							c0.003,1.905-0.245,4.445-0.521,6.33c-0.165,1.125-0.467,2.618-0.796,3.707c-0.894,2.951-1.302,4.298-2.153,6.034
							c-0.398,0.811-0.908,1.902-1.346,2.692c-0.485,0.874-1.174,2.018-1.728,2.85c-1.502,2.258-2.953,3.94-3.906,4.953
							c-1.393,1.48-2.654,2.709-4.633,4.255c-2.097,1.639-3.277,2.321-5.233,3.453c-1.486,0.86-4.033,1.94-4.44,2.095
							c-1.19,0.453-2.989,1.139-5.675,1.758c-4.744,1.094-9.609,1.289-14.458,0.579C27.05,76.999,22.197,74.601,19.878,73.255z"/>
					</defs>
					<clipPath id="SVGID_6_">
						<use xlink:href="#SVGID_5_"  overflow="visible"/>
					</clipPath>
					<g clip-path="url(#SVGID_6_)" enable-background="new    ">
						<path fill="#B9B9B9" d="M19.878,73.255C1.935,62.842-0.869,44.273,0.154,35.909c0.39-3.185,1.576-12.878,8.191-20.874
							c2.331-2.818,8.524-10.304,20.323-13.592c7.019-1.956,17.9-2.91,29.87,3.655c-5.528-3.141-12.147-4.51-19.262-3.553
							c7.116-0.957,13.734,0.412,19.262,3.553C63.886,8.381,70.01,12.758,74.998,23.2c1.757,3.678,4.466,11.474,2.872,22.368
							c-1.817,12.411-11.951,27.655-29.91,31.796C34.394,80.491,23.802,75.532,19.878,73.255"/>
						<path fill="#B9B9B9" d="M58.537,5.099c2.519,1.488,4.513,2.832,7.253,5.298l2.043,2.028c0.705,0.811,1.66,1.882,2.328,2.725
							l1.728,2.402c0.537,0.88,1.274,2.04,1.772,2.943l1.337,2.704c0.378,0.944,0.91,2.192,1.247,3.151l0.89,2.944
							c0.217,0.999,0.538,2.326,0.712,3.334l0.397,3.127c0.048,1.045,0.145,2.437,0.146,3.482l-0.135,3.199
							c-0.141,1.144-0.307,2.672-0.504,3.808l-0.679,3.03c-0.299,0.968-0.669,2.268-1.01,3.222l-1.143,2.812
							c-0.453,0.905-1.032,2.125-1.523,3.01l-1.551,2.532c-0.603,0.836-1.388,1.965-2.027,2.773l-1.879,2.179
							c-0.763,0.765-1.77,1.796-2.568,2.526l-2.065,1.73c-0.967,0.704-2.261,1.638-3.262,2.292l-1.97,1.161
							c-2.583,1.328-2.738,1.407-4.44,2.095l-1.422,0.53c-1.981,0.651-4.03,1.324-7.782,1.874l-1.019,0.124
							c-0.299,0.029-0.697,0.07-0.996,0.095l-0.912,0.064c-0.268,0.013-0.625,0.033-0.893,0.042l-0.858,0.021
							c-0.255,0.001-0.595,0.005-0.85,0.003l-0.849-0.016c-0.255-0.01-0.596-0.021-0.851-0.034l-0.879-0.055
							c-0.269-0.023-0.627-0.05-0.895-0.076l-0.953-0.104c-0.297-0.04-0.693-0.089-0.989-0.133l-1.084-0.175
							c-0.347-0.066-0.81-0.15-1.155-0.221l-1.296-0.292c-0.434-0.114-1.015-0.259-1.447-0.381l-1.612-0.496
							c-0.596-0.212-1.393-0.489-1.982-0.717l-1.999-0.85c-0.917-0.452-2.137-1.062-3.034-1.554l-2.231-1.368
							c-1.02-0.723-2.373-1.699-3.353-2.476L12.17,67.53c-0.77-0.788-1.807-1.831-2.539-2.655L7.786,62.59
							c-0.591-0.857-1.4-1.987-1.953-2.87l-1.476-2.61c-0.432-0.923-1.033-2.142-1.424-3.083l-1.047-2.87
							c-0.273-0.982-0.666-2.283-0.895-3.275l-0.569-3.072c-0.176-1.706-0.35-3.989-0.402-5.703l0.135-3.199
							c0.126-1.023,0.262-2.393,0.433-3.409l0.649-3.041c0.289-0.971,0.646-2.276,0.977-3.233l1.116-2.827
							c0.443-0.909,1.01-2.135,1.492-3.024l1.528-2.551c0.594-0.84,1.366-1.975,1.996-2.788l1.862-2.203
							c0.753-0.769,1.745-1.806,2.532-2.54l2.06-1.76c0.952-0.707,2.225-1.647,3.212-2.305l1.988-1.198
							c2.636-1.386,2.739-1.44,4.342-2.106l1.437-0.555c2.579-0.878,4.419-1.453,8.2-2.024l1.019-0.124
							c0.299-0.029,0.697-0.07,0.996-0.095l0.912-0.064c0.268-0.013,0.625-0.033,0.894-0.042l0.859-0.021
							c0.255-0.001,0.595-0.005,0.85-0.003l0.849,0.016c0.256,0.01,0.596,0.021,0.852,0.034l0.879,0.055
							c0.269,0.023,0.627,0.05,0.896,0.076l0.953,0.104c0.297,0.04,0.693,0.089,0.989,0.133l1.085,0.175
							c0.347,0.066,0.81,0.15,1.156,0.221L48.462,1.1c0.434,0.114,1.015,0.259,1.447,0.381l1.612,0.496
							c0.596,0.212,1.393,0.489,1.983,0.717l1.999,0.85C56.42,3.998,57.657,4.579,58.537,5.099
							c-5.528-3.141-12.147-4.51-19.262-3.553c-0.014,0.006-0.033,0.014-0.047,0.021C5.424,11.168,17.46,48.541,38.114,58.733
							c23.771,11.729,45.734-7.064,37.905-32.434C73.143,16.981,64.546,1.376,39.275,1.546C46.391,0.589,53.009,1.958,58.537,5.099"
							/>
						<path fill="#B4B4B4" d="M58.537,5.099c2.519,1.488,4.513,2.832,7.253,5.298l2.043,2.028c0.705,0.811,1.66,1.882,2.328,2.725
							l1.728,2.402c0.537,0.88,1.274,2.04,1.772,2.943l1.337,2.704c0.378,0.944,0.91,2.192,1.247,3.151l0.89,2.944
							c0.217,0.999,0.538,2.326,0.712,3.334l0.397,3.127c0.048,1.045,0.145,2.437,0.146,3.482l-0.135,3.199
							c-0.141,1.144-0.307,2.672-0.504,3.808l-0.679,3.03c-0.299,0.968-0.669,2.268-1.01,3.222l-1.143,2.812
							c-0.453,0.905-1.032,2.125-1.523,3.01l-1.551,2.532c-0.603,0.836-1.388,1.965-2.027,2.773l-1.879,2.179
							c-0.763,0.765-1.77,1.796-2.568,2.526l-2.065,1.73c-0.967,0.704-2.261,1.638-3.262,2.292l-1.97,1.161
							c-2.583,1.328-2.738,1.407-4.44,2.095l-1.422,0.53c-1.981,0.651-4.03,1.324-7.782,1.874l-1.019,0.124
							c-0.299,0.029-0.697,0.07-0.996,0.095l-0.912,0.064c-0.268,0.013-0.625,0.033-0.893,0.042l-0.858,0.021
							c-0.255,0.001-0.595,0.005-0.85,0.003l-0.849-0.016c-0.255-0.01-0.596-0.021-0.851-0.034l-0.879-0.055
							c-0.269-0.023-0.627-0.05-0.895-0.076l-0.953-0.104c-0.297-0.04-0.693-0.089-0.989-0.133l-1.084-0.175
							c-0.347-0.066-0.81-0.15-1.155-0.221l-1.296-0.292c-0.434-0.114-1.015-0.259-1.447-0.381l-1.612-0.496
							c-0.596-0.212-1.393-0.489-1.982-0.717l-1.999-0.85c-0.917-0.452-2.137-1.062-3.034-1.554l-2.231-1.368
							c-1.02-0.723-2.373-1.699-3.353-2.476L12.17,67.53c-0.77-0.788-1.807-1.831-2.539-2.655L7.786,62.59
							c-0.591-0.857-1.4-1.987-1.953-2.87l-1.476-2.61c-0.432-0.923-1.033-2.142-1.424-3.083l-1.047-2.87
							c-0.273-0.982-0.666-2.283-0.895-3.275l-0.569-3.072c-0.176-1.706-0.35-3.989-0.402-5.703l0.135-3.199
							c0.126-1.023,0.262-2.393,0.433-3.409l0.649-3.041c0.289-0.971,0.646-2.276,0.977-3.233l1.116-2.827
							c0.443-0.909,1.01-2.135,1.492-3.024l1.528-2.551c0.594-0.84,1.366-1.975,1.996-2.788l1.862-2.203
							c0.753-0.769,1.745-1.806,2.532-2.54l2.06-1.76c0.952-0.707,2.225-1.647,3.212-2.305l1.988-1.198
							c2.636-1.386,2.739-1.44,4.342-2.106l1.437-0.555c2.579-0.878,4.419-1.453,8.2-2.024l1.019-0.124
							c0.299-0.029,0.697-0.07,0.996-0.095l0.912-0.064c0.268-0.013,0.625-0.033,0.894-0.042l0.859-0.021
							c0.255-0.001,0.595-0.005,0.85-0.003l0.849,0.016c0.256,0.01,0.596,0.021,0.852,0.034l0.879,0.055
							c0.269,0.023,0.627,0.05,0.896,0.076l0.953,0.104c0.297,0.04,0.693,0.089,0.989,0.133l1.085,0.175
							c0.347,0.066,0.81,0.15,1.156,0.221L48.462,1.1c0.434,0.114,1.015,0.259,1.447,0.381l1.612,0.496
							c0.596,0.212,1.393,0.489,1.983,0.717l1.999,0.85C56.42,3.998,57.657,4.579,58.537,5.099
							c-1.916-1.089-3.963-1.964-6.116-2.604c-0.07-0.023-0.164-0.053-0.234-0.076C23.442-5.579,8.257,22.446,21.625,45.186
							c15.009,25.532,49.865,24.325,55.665-1.928c3.683-16.671-7.473-34.957-24.87-40.763C54.574,3.134,56.621,4.01,58.537,5.099"/>
						<g>
							<path fill="#B0B0B0" d="M76.245,26.35c0.428,1.28,1.075,3.214,1.602,6.277l0.397,3.127c0.048,1.045,0.145,2.437,0.146,3.482
								l-0.135,3.199c-0.141,1.144-0.307,2.672-0.504,3.808l-0.679,3.03c-0.299,0.968-0.669,2.268-1.01,3.222l-1.143,2.812
								c-0.453,0.905-1.032,2.125-1.523,3.01l-1.551,2.532c-0.603,0.836-1.388,1.965-2.027,2.773l-1.879,2.179
								c-0.763,0.765-1.77,1.796-2.568,2.526l-2.065,1.73c-0.967,0.704-2.261,1.638-3.262,2.292l-1.97,1.161
								c-2.583,1.328-2.738,1.407-4.44,2.095l-1.422,0.53c-1.981,0.651-4.03,1.324-7.782,1.874l-1.019,0.124
								c-0.299,0.029-0.697,0.07-0.996,0.095l-0.912,0.064c-0.268,0.013-0.625,0.033-0.893,0.042l-0.858,0.021
								c-0.255,0.001-0.595,0.005-0.85,0.003l-0.849-0.016c-0.255-0.01-0.596-0.021-0.851-0.034l-0.879-0.055
								c-0.269-0.023-0.627-0.05-0.895-0.076l-0.953-0.104c-0.297-0.04-0.693-0.089-0.989-0.133l-1.084-0.175
								c-0.347-0.066-0.81-0.15-1.155-0.221l-1.296-0.292c-0.434-0.114-1.015-0.259-1.447-0.381l-1.612-0.496
								c-0.596-0.212-1.393-0.489-1.982-0.717l-1.999-0.85c-0.917-0.452-2.137-1.062-3.034-1.554l-2.231-1.368
								c-1.02-0.723-2.373-1.699-3.353-2.476L12.17,67.53c-0.77-0.788-1.807-1.831-2.539-2.655L7.786,62.59
								c-0.591-0.857-1.4-1.987-1.953-2.87l-1.476-2.61c-0.432-0.923-1.033-2.142-1.424-3.083l-1.047-2.87
								c-0.273-0.982-0.666-2.283-0.895-3.275l-0.569-3.072c-0.176-1.706-0.35-3.989-0.402-5.703l0.135-3.199
								c0.126-1.023,0.262-2.393,0.433-3.409l0.649-3.041c0.289-0.971,0.646-2.276,0.977-3.233l1.116-2.827
								c0.443-0.909,1.01-2.135,1.492-3.024l1.528-2.551c0.594-0.84,1.366-1.975,1.996-2.788l1.862-2.203
								c0.753-0.769,1.745-1.806,2.532-2.54l2.06-1.76c0.952-0.707,2.225-1.647,3.212-2.305l1.988-1.198
								c2.636-1.386,2.739-1.44,4.342-2.106l1.437-0.555c2.579-0.878,4.419-1.453,8.2-2.024l1.019-0.124
								c0.299-0.029,0.697-0.07,0.996-0.095l0.912-0.064c0.268-0.013,0.625-0.033,0.894-0.042l0.859-0.021
								c0.255-0.001,0.595-0.005,0.85-0.003l0.849,0.016c0.256,0.01,0.596,0.021,0.852,0.034l0.879,0.055
								c0.269,0.023,0.627,0.05,0.896,0.076l0.953,0.104c0.297,0.04,0.693,0.089,0.989,0.133l1.085,0.175
								c0.347,0.066,0.81,0.15,1.156,0.221L48.462,1.1c0.434,0.114,1.015,0.259,1.447,0.381l1.612,0.496
								c0.596,0.212,1.393,0.489,1.983,0.717l1.999,0.85c0.917,0.453,2.138,1.062,3.034,1.554c-0.226-0.128-0.454-0.254-0.683-0.376
								c-0.703-0.348-1.641-0.812-2.344-1.16C27.641-8.548,7.802,16.608,17.746,40.852C29.793,70.226,66.022,71.867,75.647,49.8
								c4.462-10.23,1.98-19.927,0.104-24.798C75.899,25.407,76.109,25.942,76.245,26.35"/>
							<path fill="#B0B0B0" d="M58.537,5.099c0.593,0.348,1.371,0.833,1.959,1.19c-0.706-0.423-1.647-0.986-2.353-1.409
								c-0.087-0.047-0.202-0.11-0.289-0.157C58.083,4.845,58.311,4.97,58.537,5.099"/>
						</g>
						<path fill="#ACACAC" d="M77.848,32.628c0.277,1.864,0.538,3.625,0.543,6.609l-0.135,3.199
							c-0.141,1.144-0.307,2.672-0.504,3.808l-0.679,3.03c-0.299,0.968-0.669,2.268-1.01,3.222l-1.143,2.812
							c-0.453,0.905-1.032,2.125-1.523,3.01l-1.551,2.532c-0.603,0.836-1.388,1.965-2.027,2.773l-1.879,2.179
							c-0.763,0.765-1.77,1.796-2.568,2.526l-2.065,1.73c-0.967,0.704-2.261,1.638-3.262,2.292l-1.97,1.161
							c-2.583,1.328-2.738,1.407-4.44,2.095l-1.422,0.53c-1.981,0.651-4.03,1.324-7.782,1.874l-1.019,0.124
							c-0.299,0.029-0.697,0.07-0.996,0.095l-0.912,0.064c-0.268,0.013-0.625,0.033-0.893,0.042l-0.858,0.021
							c-0.255,0.001-0.595,0.005-0.85,0.003l-0.849-0.016c-0.255-0.01-0.596-0.021-0.851-0.034l-0.879-0.055
							c-0.269-0.023-0.627-0.05-0.895-0.076l-0.953-0.104c-0.297-0.04-0.693-0.089-0.989-0.133l-1.084-0.175
							c-0.347-0.066-0.81-0.15-1.155-0.221l-1.296-0.292c-0.434-0.114-1.015-0.259-1.447-0.381l-1.612-0.496
							c-0.596-0.212-1.393-0.489-1.982-0.717l-1.999-0.85c-0.917-0.452-2.137-1.062-3.034-1.554l-2.231-1.368
							c-1.02-0.723-2.373-1.699-3.353-2.476L12.17,67.53c-0.77-0.788-1.807-1.831-2.539-2.655L7.786,62.59
							c-0.591-0.857-1.4-1.987-1.953-2.87l-1.476-2.61c-0.432-0.923-1.033-2.142-1.424-3.083l-1.047-2.87
							c-0.273-0.982-0.666-2.283-0.895-3.275l-0.569-3.072c-0.176-1.706-0.35-3.989-0.402-5.703l0.135-3.199
							c0.126-1.023,0.262-2.393,0.433-3.409l0.649-3.041c0.289-0.971,0.646-2.276,0.977-3.233l1.116-2.827
							c0.443-0.909,1.01-2.135,1.492-3.024l1.528-2.551c0.594-0.84,1.366-1.975,1.996-2.788l1.862-2.203
							c0.753-0.769,1.745-1.806,2.532-2.54l2.06-1.76c0.952-0.707,2.225-1.647,3.212-2.305l1.988-1.198
							c2.636-1.386,2.739-1.44,4.342-2.106l1.437-0.555c2.579-0.878,4.419-1.453,8.2-2.024l1.019-0.124
							c0.299-0.029,0.697-0.07,0.996-0.095l0.912-0.064c0.268-0.013,0.625-0.033,0.894-0.042l0.859-0.021
							c0.255-0.001,0.595-0.005,0.85-0.003l0.849,0.016c0.256,0.01,0.596,0.021,0.852,0.034l0.879,0.055
							c0.269,0.023,0.627,0.05,0.896,0.076l0.953,0.104c0.297,0.04,0.693,0.089,0.989,0.133l1.085,0.175
							c0.347,0.066,0.81,0.15,1.156,0.221L48.462,1.1c0.434,0.114,1.015,0.259,1.447,0.381l1.612,0.496l0.947,0.328l-2.052-0.67
							C21.347-6.62,5.245,22.346,18.323,45.841c15.531,27.901,51.124,25.405,58.46,2.306c2.131-6.71,1.614-12.155,1.039-15.667
							C77.828,32.525,77.841,32.584,77.848,32.628"/>
						<path fill="#A8A8A8" d="M78.391,39.237c-0.041,2.02-0.076,3.765-0.639,7.007l-0.679,3.03c-0.299,0.968-0.669,2.268-1.01,3.222
							l-1.143,2.812c-0.453,0.905-1.032,2.125-1.523,3.01l-1.551,2.532c-0.603,0.836-1.388,1.965-2.027,2.773l-1.879,2.179
							c-0.763,0.765-1.77,1.796-2.568,2.526l-2.065,1.73c-0.967,0.704-2.261,1.638-3.262,2.292l-1.97,1.161
							c-2.583,1.328-2.738,1.407-4.44,2.095l-1.422,0.53c-1.981,0.651-4.03,1.324-7.782,1.874l-1.019,0.124
							c-0.299,0.029-0.697,0.07-0.996,0.095l-0.912,0.064c-0.268,0.013-0.625,0.033-0.893,0.042l-0.858,0.021
							c-0.255,0.001-0.595,0.005-0.85,0.003l-0.849-0.016c-0.255-0.01-0.596-0.021-0.851-0.034l-0.879-0.055
							c-0.269-0.023-0.627-0.05-0.895-0.076l-0.953-0.104c-0.297-0.04-0.693-0.089-0.989-0.133l-1.084-0.175
							c-0.347-0.066-0.81-0.15-1.155-0.221l-1.296-0.292c-0.434-0.114-1.015-0.259-1.447-0.381l-1.612-0.496
							c-0.596-0.212-1.393-0.489-1.982-0.717l-1.999-0.85c-0.917-0.452-2.137-1.062-3.034-1.554l-2.231-1.368
							c-1.02-0.723-2.373-1.699-3.353-2.476L12.17,67.53c-0.77-0.788-1.807-1.831-2.539-2.655L7.786,62.59
							c-0.591-0.857-1.4-1.987-1.953-2.87l-1.476-2.61c-0.432-0.923-1.033-2.142-1.424-3.083l-1.047-2.87
							c-0.273-0.982-0.666-2.283-0.895-3.275l-0.569-3.072c-0.176-1.706-0.35-3.989-0.402-5.703l0.135-3.199
							c0.126-1.023,0.262-2.393,0.433-3.409l0.649-3.041c0.289-0.971,0.646-2.276,0.977-3.233l1.116-2.827
							c0.443-0.909,1.01-2.135,1.492-3.024l1.528-2.551c0.594-0.84,1.366-1.975,1.996-2.788l1.862-2.203
							c0.753-0.769,1.745-1.806,2.532-2.54l2.06-1.76c0.952-0.707,2.225-1.647,3.212-2.305l1.988-1.198
							c2.636-1.386,2.739-1.44,4.342-2.106l1.437-0.555c2.579-0.878,4.419-1.453,8.2-2.024l1.019-0.124
							c0.299-0.029,0.697-0.07,0.996-0.095l0.912-0.064c0.268-0.013,0.625-0.033,0.894-0.042l0.859-0.021
							c0.255-0.001,0.595-0.005,0.85-0.003l0.849,0.016c0.256,0.01,0.596,0.021,0.852,0.034l0.879,0.055
							c0.269,0.023,0.627,0.05,0.896,0.076l0.953,0.104c0.297,0.04,0.693,0.089,0.989,0.133l1.085,0.175l0.296,0.053L45.99,0.584
							C15.087-4.235,2.9,29.868,20.32,52.243c18.73,24.058,54.353,18.818,57.752-8.496c0.32-2.574,0.319-3.806,0.319-4.797
							C78.387,39.037,78.393,39.151,78.391,39.237"/>
						<path fill="#A4A4A4" d="M77.752,46.244c-0.257,1.328-0.646,3.335-1.689,6.252l-1.143,2.812
							c-0.453,0.905-1.032,2.125-1.523,3.01l-1.551,2.532c-0.603,0.836-1.388,1.965-2.027,2.773l-1.879,2.179
							c-0.763,0.765-1.77,1.796-2.568,2.526l-2.065,1.73c-0.967,0.704-2.261,1.638-3.262,2.292l-1.97,1.161
							c-2.583,1.328-2.738,1.407-4.44,2.095l-1.422,0.53c-1.981,0.651-4.03,1.324-7.782,1.874l-1.019,0.124
							c-0.299,0.029-0.697,0.07-0.996,0.095l-0.912,0.064c-0.268,0.013-0.625,0.033-0.893,0.042l-0.858,0.021
							c-0.255,0.001-0.595,0.005-0.85,0.003l-0.849-0.016c-0.255-0.01-0.596-0.021-0.851-0.034l-0.879-0.055
							c-0.269-0.023-0.627-0.05-0.895-0.076l-0.953-0.104c-0.297-0.04-0.693-0.089-0.989-0.133l-1.084-0.175
							c-0.347-0.066-0.81-0.15-1.155-0.221l-1.296-0.292c-0.434-0.114-1.015-0.259-1.447-0.381l-1.612-0.496
							c-0.596-0.212-1.393-0.489-1.982-0.717l-1.999-0.85c-0.917-0.452-2.137-1.062-3.034-1.554l-2.231-1.368
							c-1.02-0.723-2.373-1.699-3.353-2.476L12.17,67.53c-0.77-0.788-1.807-1.831-2.539-2.655L7.786,62.59
							c-0.591-0.857-1.4-1.987-1.953-2.87l-1.476-2.61c-0.432-0.923-1.033-2.142-1.424-3.083l-1.047-2.87
							c-0.273-0.982-0.666-2.283-0.895-3.275l-0.569-3.072c-0.176-1.706-0.35-3.989-0.402-5.703l0.135-3.199
							c0.126-1.023,0.262-2.393,0.433-3.409l0.649-3.041c0.289-0.971,0.646-2.276,0.977-3.233l1.116-2.827
							c0.443-0.909,1.01-2.135,1.492-3.024l1.528-2.551c0.594-0.84,1.366-1.975,1.996-2.788l1.862-2.203
							c0.753-0.769,1.745-1.806,2.532-2.54l2.06-1.76c0.952-0.707,2.225-1.647,3.212-2.305l1.988-1.198
							c2.636-1.386,2.739-1.44,4.342-2.106l1.437-0.555c2.579-0.878,4.419-1.453,8.2-2.024l1.019-0.124
							c0.299-0.029,0.697-0.07,0.996-0.095l0.912-0.064c0.268-0.013,0.625-0.033,0.894-0.042l0.859-0.021
							c0.255-0.001,0.595-0.005,0.85-0.003c0.216,0.004,0.504,0.009,0.721,0.012c-0.196-0.003-0.458-0.008-0.654-0.011
							C10.447,0.134,0.289,35.268,22.852,57.832c18.459,18.459,49.678,15.352,55.13-12.989
							C77.913,45.263,77.833,45.825,77.752,46.244"/>
						<path fill="#A0A0A0" d="M76.063,52.496c-0.429,1.155-1.147,3.087-2.666,5.822l-1.551,2.532
							c-0.603,0.836-1.388,1.965-2.027,2.773l-1.879,2.179c-0.763,0.765-1.77,1.796-2.568,2.526l-2.065,1.73
							c-0.967,0.704-2.261,1.638-3.262,2.292l-1.97,1.161c-2.583,1.328-2.738,1.407-4.44,2.095l-1.422,0.53
							c-1.981,0.651-4.03,1.324-7.782,1.874l-1.019,0.124c-0.299,0.029-0.697,0.07-0.996,0.095l-0.912,0.064
							c-0.268,0.013-0.625,0.033-0.893,0.042l-0.858,0.021c-0.255,0.001-0.595,0.005-0.85,0.003l-0.849-0.016
							c-0.255-0.01-0.596-0.021-0.851-0.034l-0.879-0.055c-0.269-0.023-0.627-0.05-0.895-0.076l-0.953-0.104
							c-0.297-0.04-0.693-0.089-0.989-0.133l-1.084-0.175c-0.347-0.066-0.81-0.15-1.155-0.221l-1.296-0.292
							c-0.434-0.114-1.015-0.259-1.447-0.381l-1.612-0.496c-0.596-0.212-1.393-0.489-1.982-0.717l-1.999-0.85
							c-0.917-0.452-2.137-1.062-3.034-1.554l-2.231-1.368c-1.02-0.723-2.373-1.699-3.353-2.476L12.17,67.53
							c-0.77-0.788-1.807-1.831-2.539-2.655L7.786,62.59c-0.591-0.857-1.4-1.987-1.953-2.87l-1.476-2.61
							c-0.432-0.923-1.033-2.142-1.424-3.083l-1.047-2.87c-0.273-0.982-0.666-2.283-0.895-3.275l-0.569-3.072
							c-0.176-1.706-0.35-3.989-0.402-5.703l0.135-3.199c0.126-1.023,0.262-2.393,0.433-3.409l0.649-3.041
							c0.289-0.971,0.646-2.276,0.977-3.233l1.116-2.827c0.443-0.909,1.01-2.135,1.492-3.024l1.528-2.551
							c0.594-0.84,1.366-1.975,1.996-2.788l1.862-2.203c0.753-0.769,1.745-1.806,2.532-2.54l2.06-1.76
							c0.952-0.707,2.225-1.647,3.212-2.305l1.988-1.198c2.636-1.386,2.739-1.44,4.342-2.106l1.437-0.555
							c2.107-0.717,4.097-1.395,7.98-1.993L33.15,0.464C3.226,5.659-0.437,44.825,27.211,63.959
							c19.345,13.388,42.886,7.165,49.39-13.057C76.44,51.381,76.239,52.023,76.063,52.496"/>
						<path fill="#9C9C9C" d="M73.397,58.318c-0.798,1.374-1.702,2.931-3.578,5.306l-1.879,2.179
							c-0.763,0.765-1.77,1.796-2.568,2.526l-2.065,1.73c-0.967,0.704-2.261,1.638-3.262,2.292l-1.97,1.161
							c-2.583,1.328-2.738,1.407-4.44,2.095l-1.422,0.53c-1.981,0.651-4.03,1.324-7.782,1.874l-1.019,0.124
							c-0.299,0.029-0.697,0.07-0.996,0.095l-0.912,0.064c-0.268,0.013-0.625,0.033-0.893,0.042l-0.858,0.021
							c-0.255,0.001-0.595,0.005-0.85,0.003l-0.849-0.016c-0.255-0.01-0.596-0.021-0.851-0.034l-0.879-0.055
							c-0.269-0.023-0.627-0.05-0.895-0.076l-0.953-0.104c-0.297-0.04-0.693-0.089-0.989-0.133l-1.084-0.175
							c-0.347-0.066-0.81-0.15-1.155-0.221l-1.296-0.292c-0.434-0.114-1.015-0.259-1.447-0.381l-1.612-0.496
							c-0.596-0.212-1.393-0.489-1.982-0.717l-1.999-0.85c-0.917-0.452-2.137-1.062-3.034-1.554l-2.231-1.368
							c-1.02-0.723-2.373-1.699-3.353-2.476L12.17,67.53c-0.77-0.788-1.807-1.831-2.539-2.655L7.786,62.59
							c-0.591-0.857-1.4-1.987-1.953-2.87l-1.476-2.61c-0.432-0.923-1.033-2.142-1.424-3.083l-1.047-2.87
							c-0.273-0.982-0.666-2.283-0.895-3.275l-0.569-3.072c-0.176-1.706-0.35-3.989-0.402-5.703l0.135-3.199
							c0.126-1.023,0.262-2.393,0.433-3.409l0.649-3.041c0.289-0.971,0.646-2.276,0.977-3.233l1.116-2.827
							c0.443-0.909,1.01-2.135,1.492-3.024l1.528-2.551c0.594-0.84,1.366-1.975,1.996-2.788l1.862-2.203
							c0.753-0.769,1.745-1.806,2.532-2.54l2.06-1.76c0.952-0.707,2.225-1.647,3.212-2.305l1.988-1.198
							c2.636-1.386,2.739-1.44,4.342-2.106l1.437-0.555c0.597-0.203,1.392-0.476,1.994-0.663l-0.044,0.013
							c-29.363,9.288-28.235,50.902,1.8,66.458C50.007,78.781,66.8,70.181,73.736,57.702C73.634,57.887,73.503,58.135,73.397,58.318
							"/>
						<path fill="#BDBDBD" d="M56.549,4.568c24.607,11.584,28.162,45.741,5.676,54.549c-23.587,9.24-50.617-18.843-40.735-42.322
							C27.807,1.785,44.276-1.209,56.549,4.568"/>
						<path fill="#C1C1C1" d="M59.905,6.611C83.608,21.03,82.448,54.328,58.08,59.006C32.367,63.943,10.617,32.07,25.757,11.64
							C34.409-0.036,49.485,0.272,59.905,6.611"/>
						<path fill="#C5C5C5" d="M62.953,8.988C84.304,25.41,78.374,53.711,58.294,57.65C35.959,62.031,12.378,34.298,26.75,12.295
							C33.15,2.497,49.225-1.17,62.953,8.988"/>
						<path fill="#C9C9C9" d="M65.67,11.684c19.386,18.583,8.793,45.082-12.093,45.074C29.066,56.75,13.868,26.039,30.345,9.815
							C40.515-0.198,56.599,2.989,65.67,11.684"/>
						<path fill="#CDCDCD" d="M65.567,12.124c17.58,16.445,10.25,43.147-11.884,43.29c-23.86,0.153-37.985-29.116-21.904-45.388
							C40.135,1.571,55.292,2.512,65.567,12.124"/>
						<path fill="#D1D1D1" d="M67.8,15.138c14.371,17.62,4.251,40.759-16.919,38.686C26.296,51.416,18.711,21.354,34.536,9.21
							C45.337,0.922,60.212,5.834,67.8,15.138"/>
						<path fill="#D6D6D6" d="M67.495,15.577c14.298,17.653,2.501,40.711-18.839,36.824c-23.005-4.19-27.62-32.366-11.948-43.32
							C45.695,2.798,59.506,5.713,67.495,15.577"/>
						<path fill="#DADADA" d="M69.166,18.906c11.251,18.581-3.025,35.657-20.492,32.346c-23.231-4.405-25.067-31.214-11.786-40.799
							C49.22,1.552,63.558,9.643,69.166,18.906"/>
						<path fill="#DEDEDE" d="M68.643,19.353c10.174,17.089-3.616,33.766-19.959,30.73c-21.671-4.026-24.868-28.262-9.922-39.43
							C46.667,4.745,61.442,7.258,68.643,19.353"/>
						<path fill="#E2E2E2" d="M68.001,19.812c9.414,16.184-3.672,31.536-19.316,29.338c-19.601-2.755-23.402-26.816-9.983-36.816
							C49.908,3.983,63.139,11.455,68.001,19.812"/>
						<path fill="#E6E6E6" d="M68.801,23.464c6.356,16.917-10.991,29.55-25.415,23.27c-17.099-7.445-14.414-29.838,0.344-35.788
							C52.987,7.213,64.937,13.18,68.801,23.464"/>
						<path fill="#EAEAEA" d="M67.859,23.939c5.259,15.162-9.613,28.518-24.48,21.985C27.215,38.821,29.97,18.06,44.067,12.256
							C53.954,8.186,64.783,15.067,67.859,23.939"/>
						<path fill="#EEEEEE" d="M66.777,24.414c5.016,15.044-10.839,26.356-23.405,20.813c-15.237-6.721-12.336-26.575,1.082-31.757
							C54.203,9.705,64.043,16.216,66.777,24.414"/>
						<path fill="#F3F3F3" d="M65.614,24.862c4.754,14.258-10.318,24.942-22.252,19.669c-13.485-5.959-12.623-24.39,1.398-29.88
							C52.046,11.797,62.512,15.558,65.614,24.862"/>
						<path fill="#F7F7F7" d="M65.149,28.754c0.741,10.645-6.672,14.076-9.108,15.204c-8.465,3.919-14.727-1.452-16.785-3.217
							c-9.726-8.343-4.365-23.89,8.826-25.592C57.226,13.968,64.634,21.358,65.149,28.754"/>
						<path fill="#FBFBFB" d="M64.028,29.079c0.983,7.658-5.339,12.653-5.404,12.694c-4.087,2.594-4.198,2.6-10.012,2.926
							c-0.03,0.002-4.683-1.069-6.005-2.026c-14.734-10.674-5.19-23.627,2.635-26.011C52.894,14.333,62.766,19.249,64.028,29.079"/>
						<path fill="#FFFFFF" d="M63.126,29.321c1.133,10.182-10.881,20.235-22.183,11.308c-11.54-9.114-2.794-23.537,7.851-23.522
							C53.318,17.114,62.167,20.703,63.126,29.321"/>
						<path fill="#FFFFFF" d="M62.188,29.554c0.33,3.501-0.333,9.889-8.481,13.332c-2.405,1.016-8.995,1.418-14.01-3.828
							c-7.133-7.461-2.693-21.245,9.431-20.962C56.567,18.268,61.748,24.886,62.188,29.554"/>
						<path fill="#FFFFFF" d="M61.216,29.778c1.284,13.276-13.997,16.353-20.81,9.276c-8.365-8.688-1.119-21.03,8.967-20.205
							C57.508,19.514,60.912,26.633,61.216,29.778"/>
						<path fill="#FFFFFF" d="M60.491,29.935c1.003,6.722-3.179,9.349-6.87,11.667c-0.04,0.025-4.637,2.133-10.329-0.864
							c-0.714-0.376-6.944-3.915-5.901-12.323c0.244-1.968,3.133-7.437,8.507-8.674C50.354,18.715,59.278,21.806,60.491,29.935"/>
						<path fill="#FFFFFF" d="M59.843,33.707c-0.006,0.023-1.54,3.464-2.009,4.012c-1.051,1.228-2.943,2.363-4.256,3.306
							c-1.253,0.9-3.538,0.698-5.076,0.826c-0.461,0.038-6.641-0.908-9.544-6.405c-3.608-6.83,1.881-16.383,10.869-15.125
							C56.071,21.195,61.22,28.075,59.843,33.707"/>
						<path fill="#FFFFFF" d="M59.135,33.836c-1.806,6.79-8.237,7.318-10.658,7.517c-1.647,0.135-3.834-0.864-5.214-1.773
							c-1.451-0.955-3.739-4.107-3.753-4.133c-3.361-6.104,1.035-15.873,10.536-14.377c0.392,0.062,4.586,1.973,4.608,1.989
							c0.876,0.623,1.633,1.161,3.488,3.766C59.937,29.345,59.146,33.796,59.135,33.836"/>
						<path fill="#FFFFFF" d="M58.414,33.962c-0.872,3.099-3.614,4.998-4.933,5.91c-1.264,0.875-3.497,0.86-5.03,0.984
							c-1.651,0.133-3.81-0.954-5.202-1.852c-1.204-0.777-2.471-2.317-3.187-3.559c-0.916-1.588-2.679-5.778,0.736-10.384
							c2.879-3.883,7.787-3.72,9.434-3.33c1.474,0.349,3.309,1.328,4.538,2.214c0.287,0.207,2.684,2.984,2.698,3.005
							C59.465,29.934,58.527,33.559,58.414,33.962"/>
						<path fill="#FFFFFF" d="M57.678,34.084c-0.009,0.029-1.065,3.053-4.25,5.213c-1.27,0.861-3.474,0.941-5.004,1.063
							c-0.018,0.001-3.811-1.14-5.196-2.012c-0.992-0.625-2.019-1.895-2.613-2.906c-3.037-5.176-0.098-9.101,0.868-10.391
							c1.101-1.471,3.259-2.359,4.876-2.846c1.164-0.35,2.869-0.134,4.048,0.161C50.508,22.391,60.212,25.549,57.678,34.084"/>
						<path fill="#FFFFFF" d="M57.213,32.308c-0.056,0.565,0.067,1.381-0.202,1.88c-0.715,1.33-1.842,3.067-2.988,4.049
							c-0.657,0.563-0.775,0.665-5.628,1.627c-0.04,0.008-4.963-0.731-7.186-4.383c-3.082-5.063-0.25-8.835,0.96-10.445
							c0.722-0.961,4.253-2.285,4.285-2.292c1.205-0.291,2.925-0.052,4.125,0.262c2.721,0.713,5.478,4.147,5.502,4.18
							C57.519,29.203,57.363,30.782,57.213,32.308"/>
						<path fill="#FFFFFF" d="M56.348,34.288c-0.562,1.355-1.801,3.045-3.038,3.832c-0.231,0.147-4.437,1.21-4.945,1.249
							c-0.04,0.003-4.885-1.077-6.642-3.942c-3.045-4.964-0.192-8.687,0.882-10.089c0.116-0.151,3.652-1.992,3.941-2.051
							c1.238-0.257,2.981,0.028,4.199,0.365C53.191,24.329,58.464,29.182,56.348,34.288"/>
						<path fill="#FFFFFF" d="M55.675,34.383c-0.468,1.076-1.438,2.446-2.439,3.059c-0.258,0.158-4.703,1.457-4.903,1.433
							c-0.284-0.034-5.144-2.462-5.169-2.483c-0.963-0.84-1.526-2.576-1.991-3.766c-1.008-2.584,0.583-5.72,1.483-6.49
							c0.733-0.627,3.411-2.176,3.98-2.302c1.259-0.28,3.034,0.109,4.272,0.47c0.383,0.112,3.859,3.06,3.87,3.082
							c0.462,0.976,1.231,2.258,1.368,3.329C56.288,31.815,56.117,33.366,55.675,34.383"/>
						<path fill="#FFFFFF" d="M54.992,34.476c-0.357,0.787-1.051,1.821-1.801,2.251c-1.339,0.768-3.379,1.879-4.895,1.59
							c-1.698-0.324-3.891-1.394-5.155-2.573c-0.796-0.742-1.74-3.834-1.744-3.859c-0.005-0.037-0.005-4.014,1.31-4.944
							c1.029-0.728,3.48-2.433,4.018-2.556c1.289-0.293,3.156,0.102,4.36,0.649c1.064,0.483,2.316,1.522,3.032,2.446
							c0.665,0.859,1.021,2.32,1.436,3.323C55.98,31.832,55.453,33.46,54.992,34.476"/>
						<path fill="#FFFFFF" d="M54.304,34.564c-0.249,0.533-0.707,1.255-1.228,1.529c-1.353,0.71-3.327,1.971-4.821,1.647
							c-1.533-0.332-3.515-1.293-4.667-2.358c-0.877-0.81-1.681-3.485-1.684-3.507c-0.003-0.025-0.008-2.912,0.853-4.125
							c0.856-1.206,2.613-2.484,4.058-2.797c1.327-0.287,3.185,0.34,4.448,0.838c0.786,0.31,1.665,1.111,2.185,1.778
							c0.672,0.862,1.373,2.233,1.505,3.319C55.089,31.999,54.779,33.549,54.304,34.564"/>
						<path fill="#FFFFFF" d="M53.613,34.648c-0.129,0.268-0.353,0.647-0.623,0.773c-1.383,0.644-3.255,1.838-4.777,1.743
							c-1.216-0.075-2.648-1.097-3.631-1.818c-0.605-0.444-1.155-1.327-1.536-1.973c-1.41-2.388-0.035-4.973-0.019-4.995
							c0.867-1.145,2.481-2.495,3.885-2.795c1.357-0.29,3.215,0.509,4.523,0.971c0.49,0.173,1.029,0.681,1.338,1.098
							c0.654,0.885,1.44,2.223,1.571,3.316C54.479,32.086,54.102,33.634,53.613,34.648"/>
						<path fill="#FFFFFF" d="M52.919,34.727c-1,1.16-3.222,1.942-4.751,1.863c-0.867-0.045-1.943-0.711-2.593-1.287
							c-0.943-0.834-2.032-2.171-2.591-3.298c-0.24-0.485,1.083-3.639,1.1-3.663c0.643-0.872,1.861-1.907,2.922-2.123
							c1.39-0.282,3.237,0.701,4.596,1.106c0.184,0.055,0.384,0.251,0.493,0.409c0.633,0.91,1.506,2.213,1.636,3.314
							C53.864,32.17,53.421,33.714,52.919,34.727"/>
						<path fill="#FFFFFF" d="M52.671,33.177c-1.221,2.303-4.52,2.841-4.549,2.84c-0.519-0.028-1.183-0.402-1.556-0.765
							c-0.943-0.92-2.546-2.127-2.745-3.429c-0.17-1.117,0.697-2.584,1.319-3.527c0.402-0.608,1.243-1.302,1.959-1.437
							c1.175-0.222,2.737,0.583,3.858,0.999c0.337,0.125,0.677,0.502,0.915,0.771C52.788,29.668,53.32,31.953,52.671,33.177"/>
						<path fill="#FFFFFF" d="M52.415,31.589c-0.675,1.293-2.286,2.532-3.377,3.501c-0.231,0.205-0.657,0.372-0.965,0.356
							c-0.777-0.039-3.294-3.625-3.3-3.66c-0.165-1.134,0.858-2.548,1.421-3.546c0.182-0.324,0.63-0.667,0.995-0.737
							c0.6-0.114,1.485,0.149,1.966,0.525c0.97,0.758,2.276,1.771,3.108,2.678C52.444,30.905,52.54,31.351,52.415,31.589"/>
						<path fill="#FFFFFF" d="M47.986,34.47c-1.061-0.059-2.116-1.676-2.261-2.729c-0.008-0.06,1.514-3.583,1.551-3.59
							c0.019-0.004,0.047,0.005,0.062,0.017c1.138,0.946,3.699,1.694,3.778,3.172C51.187,32.666,49.312,34.543,47.986,34.47"/>
						<path fill="#FFFFFF" d="M47.853,33.096c-0.55-0.026-1.098-0.862-1.178-1.406c-0.091-0.612,0.208-1.756,0.811-1.897
							c0.765-0.18,1.964,0.913,1.993,1.698C49.504,32.174,48.538,33.128,47.853,33.096"/>
						<path fill="#FFFFFF" d="M47.71,31.733c-0.041-0.002-0.081-0.063-0.088-0.103c-0.007-0.046,0.016-0.131,0.061-0.142
							c0.057-0.013,0.146,0.069,0.147,0.127C47.832,31.666,47.76,31.735,47.71,31.733"/>
					</g>
				</g>
			</g>
		</g>
	</g>
</g>
</svg>
