<!-- <?xml version="1.0" encoding="utf-8"?>
Generator: Adobe Illustrator 18.1.1, SVG Export Plug-In . SVG Version: 6.00 Build 0) 
<!DOCTYPE svg PUBLIC "-//W3C//DTD SVG 1.1//EN" "http://www.w3.org/Graphics/SVG/1.1/DTD/svg11.dtd"> -->
<svg version="1.1" xmlns="http://www.w3.org/2000/svg" xmlns:xlink="http://www.w3.org/1999/xlink" x="0px" y="0px"
	 viewBox="0 0 446 612" enable-background="new 0 0 446 612" xml:space="preserve">
<g id="blood_x5F_r">
	<path fill="none" stroke="#E8E8E8" stroke-width="10" stroke-miterlimit="10" d="M178.627,417.413c0,0-9.098,3.545-15.098,14.878
		s-4.964,35.084-4.964,35.084"/>
	<g>
		<path fill="#E8E8E8" d="M184.692,414.886c0,0-1.004,0.136-2.742,0.033c-0.872-0.043-1.918-0.175-3.121-0.392
			c-1.189-0.253-2.542-0.58-3.978-1.13c-1.432-0.55-2.964-1.301-4.477-2.381c-1.499-1.077-3.002-2.541-4.05-4.484
			c-1.045-1.934-1.548-4.319-1.335-6.557l0.076-0.838l0.013-0.112l0.008-0.043l0.015-0.087l0.03-0.174l0.06-0.348
			c0.068-0.435,0.194-1.003,0.302-1.523c0.234-1.027,0.516-1.978,0.821-2.938c1.261-3.796,3-7.275,4.791-10.417
			c1.778-3.148,3.642-5.94,5.271-8.3c3.262-4.719,5.73-7.633,5.73-7.633l0.406,0.292c0,0-1.991,3.237-4.661,8.238
			c-1.326,2.504-2.781,5.471-4.204,8.678c-1.389,3.215-2.755,6.701-3.603,10.202c-0.2,0.868-0.377,1.76-0.479,2.593
			c-0.042,0.413-0.102,0.771-0.114,1.274l-0.017,0.353l-0.009,0.176l-0.004,0.088l-0.002,0.044l-0.001,0.022
			c-0.002,0.022,0.012-0.111,0.007-0.047l0.033,0.565c0.085,1.505,0.649,2.781,1.343,3.937c0.744,1.137,1.639,2.219,2.693,3.164
			c1.031,0.961,2.151,1.817,3.254,2.556c1.099,0.745,2.16,1.421,3.139,1.97c0.966,0.584,1.847,1.051,2.572,1.46
			c1.481,0.806,2.327,1.266,2.327,1.266L184.692,414.886z"/>
	</g>
	<g>
		<path fill="#E8E8E8" d="M167.965,394.421c0,0-0.484-0.301-1.243-0.819c-0.762-0.507-1.802-1.253-2.949-1.926
			c-0.57-0.332-1.17-0.625-1.687-0.779c-0.252-0.069-0.477-0.091-0.634-0.092c-0.157,0.003-0.233,0.04-0.317,0.052
			c-0.081,0.012-0.196,0.038-0.39,0.127c-0.096,0.029-0.205,0.102-0.321,0.177l-0.045,0.025l-0.023,0.012
			c0.016-0.016-0.153,0.145-0.087,0.08l-0.01,0.007l-0.019,0.013l-0.153,0.107l-0.264,0.189c-0.107,0.073-0.225,0.155-0.325,0.213
			c-0.765,0.446-1.647,0.688-2.442,0.726c-0.804,0.043-1.521-0.067-2.167-0.23c-1.292-0.334-2.327-0.882-3.272-1.459
			c-0.944-0.576-1.77-1.225-2.529-1.877c-1.522-1.295-2.767-2.625-3.795-3.788c-1.021-1.17-1.817-2.179-2.35-2.905
			c-0.526-0.732-0.826-1.15-0.826-1.15l0.37-0.336c0,0,1.573,1.298,4.031,3.033c1.226,0.864,2.686,1.829,4.272,2.708
			c0.795,0.433,1.626,0.838,2.451,1.176c0.822,0.329,1.671,0.582,2.373,0.612c0.731,0.053,1.119-0.225,1.192-0.444
			c0.003-0.011-0.02-0.01-0.027-0.011c-0.007-0.004-0.038,0.025,0.024-0.046l0.12-0.143l0.015-0.018l0.008-0.009
			c0.073-0.07-0.091,0.086-0.069,0.065l0.045-0.05l0.092-0.099c0.246-0.261,0.501-0.517,0.815-0.755
			c0.598-0.475,1.37-0.881,2.222-1.048c0.842-0.182,1.718-0.138,2.453,0.056c0.734,0.198,1.342,0.516,1.86,0.848
			c1.002,0.693,1.682,1.456,2.186,2.192c0.507,0.734,0.863,1.434,1.113,2.08c0.26,0.637,0.425,1.21,0.532,1.691
			c0.216,0.96,0.21,1.551,0.21,1.551L167.965,394.421z"/>
	</g>
	<g>
		<path fill="#E8E8E8" d="M172.818,408.997c-0.391-0.877-0.677-1.796-0.842-2.748c-0.081-0.475-0.139-0.959-0.136-1.448
			c-0.006-0.245-0.002-0.49,0.031-0.735c0.016-0.247,0.05-0.491,0.114-0.734c0.043-0.246,0.113-0.486,0.212-0.72
			c0.077-0.242,0.184-0.471,0.321-0.687c0.116-0.229,0.257-0.441,0.431-0.63c0.159-0.202,0.325-0.399,0.53-0.553l1.111-0.918
			c0.316-0.32,0.639-0.611,0.94-0.972c0.617-0.683,1.17-1.436,1.717-2.189c0.53-0.768,1.047-1.547,1.528-2.352
			c0.97-1.598,1.87-3.264,2.678-4.934l0.233-0.481l0.575,0.088c0.5,0.077,1.076,0.122,1.615,0.123
			c0.546-0.002,1.093-0.022,1.62-0.11c0.528-0.08,1.042-0.201,1.514-0.388c0.487-0.163,0.897-0.435,1.277-0.715
			c0.169-0.162,0.349-0.312,0.492-0.492c0.132-0.187,0.274-0.346,0.443-0.615c0.31-0.475,0.701-0.994,1.056-1.462
			c0.731-0.957,1.53-1.857,2.393-2.696l0.661-0.62l0.34-0.304l0.303-0.253c0.319-0.304,0.689-0.761,1.005-1.19
			c0.639-0.891,1.229-1.851,1.743-2.859c0.273-0.497,0.509-1.016,0.75-1.533c0.23-0.523,0.473-1.045,0.678-1.583
			c0.461-1.061,0.818-2.163,1.226-3.265l0.196,0.04c-0.051,0.586-0.101,1.175-0.192,1.758c-0.095,0.582-0.167,1.173-0.302,1.751
			c-0.236,1.164-0.575,2.31-0.989,3.439c-0.204,0.566-0.448,1.118-0.707,1.667c-0.254,0.551-0.548,1.09-0.873,1.614
			c-0.342,0.532-0.662,1.019-1.148,1.559l-0.644,0.625l-0.591,0.6c-0.778,0.815-1.533,1.656-2.258,2.519
			c-0.367,0.446-0.687,0.851-1.044,1.332c-0.155,0.216-0.402,0.493-0.634,0.76c-0.239,0.257-0.522,0.473-0.792,0.687
			c-0.577,0.379-1.185,0.701-1.816,0.882c-0.626,0.207-1.261,0.317-1.889,0.377c-0.629,0.067-1.252,0.058-1.87,0.032
			c-0.625-0.035-1.212-0.104-1.859-0.235l0.808-0.393c-0.925,1.701-1.908,3.33-2.982,4.925c-1.079,1.583-2.209,3.149-3.597,4.522
			c-0.329,0.349-0.729,0.674-1.105,1l-1.136,0.823c-0.187,0.119-0.334,0.277-0.48,0.44c-0.16,0.15-0.292,0.324-0.403,0.514
			c-0.131,0.177-0.237,0.37-0.316,0.579c-0.101,0.198-0.177,0.408-0.229,0.628c-0.072,0.214-0.117,0.435-0.146,0.661
			c-0.045,0.223-0.063,0.451-0.072,0.681c-0.032,0.458-0.006,0.923,0.043,1.385c0.1,0.924,0.324,1.846,0.65,2.723L172.818,408.997z"
			/>
	</g>
	<g>
		<path fill="#E8E8E8" d="M135.899,388.745c0.147-0.266,0.304-0.523,0.466-0.773c0.172-0.244,0.392-0.482,0.609-0.718
			c0.445-0.455,0.957-0.838,1.525-1.154c0.285-0.151,0.583-0.278,0.883-0.409c0.307-0.096,0.618-0.193,0.931-0.275
			c0.628-0.143,1.267-0.209,1.891-0.207c1.253,0.01,2.428,0.302,3.576,0.515c1.148,0.233,2.272,0.462,3.398,0.643l-0.703,0.719
			c-0.199-2.713-0.345-5.433-0.465-8.155l0.198-0.025c0.549,2.67,1.073,5.342,1.543,8.022l0.133,0.759l-0.836-0.04
			c-1.181-0.056-2.349-0.179-3.497-0.264c-1.147-0.101-2.279-0.097-3.347-0.091c-0.536-0.004-1.054,0.023-1.573,0.049
			c-0.514,0.046-1.02,0.129-1.528,0.249c-0.242,0.087-0.509,0.131-0.758,0.226c-0.24,0.106-0.513,0.182-0.755,0.295
			c-0.237,0.124-0.498,0.214-0.757,0.357c-0.259,0.148-0.523,0.29-0.797,0.423L135.899,388.745z"/>
	</g>
	<path fill="none" stroke="#E8E8E8" stroke-miterlimit="10" d="M178.033,396.49c1.083-9.333,1.33-10.782,2.83-15.532"/>
	<path fill="none" stroke="#E8E8E8" stroke-miterlimit="10" d="M175.29,399.746c0,0,0.119,1.962,4.159-0.413
		s8.165-3.792,8.165-3.792"/>
	<line fill="none" stroke="#E8E8E8" stroke-miterlimit="10" x1="181.451" y1="389.708" x2="181.451" y2="385.458"/>
	<line fill="none" stroke="#E8E8E8" stroke-miterlimit="10" x1="181.451" y1="387.583" x2="186.863" y2="384.083"/>
	<g>
		<path fill="#E8E8E8" d="M169.713,379.452c0.125,0.554,0.241,1.09,0.415,1.594c0.163,0.515,0.394,0.998,0.619,1.468
			c0.247,0.462,0.524,0.898,0.833,1.299c0.153,0.202,0.323,0.387,0.494,0.564c0.087,0.085,0.172,0.175,0.26,0.252
			c0.081,0.076,0.191,0.165,0.24,0.197l-0.747-0.144c0.611-0.249,1.263-0.561,1.888-0.86c0.628-0.31,1.24-0.651,1.852-0.988
			c1.206-0.702,2.415-1.4,3.54-2.216c0.558-0.41,1.136-0.804,1.653-1.266c0.544-0.435,1.026-0.931,1.52-1.419
			c0.453-0.519,0.943-1.02,1.328-1.593l1.276-1.751c0.457-0.573,0.97-1.185,1.487-1.707c0.519-0.533,1.051-1.049,1.615-1.527
			c0.542-0.503,1.14-0.934,1.71-1.397c0.595-0.43,1.186-0.865,1.804-1.256c2.446-1.608,5.032-2.961,7.713-4.084l0.08,0.183
			c-2.565,1.315-5.022,2.856-7.287,4.61c-0.577,0.426-1.109,0.904-1.666,1.35c-0.525,0.481-1.08,0.931-1.57,1.443
			c-0.515,0.489-0.991,1.01-1.453,1.542c-0.468,0.535-0.859,1.06-1.272,1.639l-1.178,1.83c-0.39,0.651-0.882,1.225-1.34,1.826
			c-0.496,0.567-0.994,1.137-1.541,1.655c-0.525,0.544-1.103,1.027-1.682,1.509c-0.591,0.467-1.202,0.904-1.827,1.321
			c-0.638,0.394-1.286,0.774-1.959,1.103c-0.667,0.341-1.36,0.626-2.054,0.903c-0.703,0.275-1.395,0.502-2.16,0.702l-0.46,0.121
			l-0.287-0.265c-0.161-0.149-0.251-0.252-0.359-0.379c-0.105-0.122-0.199-0.244-0.29-0.371c-0.176-0.255-0.341-0.513-0.482-0.781
			c-0.29-0.532-0.514-1.089-0.673-1.659c-0.155-0.57-0.258-1.149-0.286-1.727c-0.031-0.285-0.015-0.583-0.023-0.868
			c0.005-0.283,0.048-0.56,0.07-0.84L169.713,379.452z"/>
	</g>
	<path fill="none" stroke="#E8E8E8" stroke-miterlimit="10" d="M151.433,390.583c1.375,8.125,0,15.75,0,15.75"/>
	<path fill="none" stroke="#E8E8E8" stroke-miterlimit="10" d="M161.738,388.724c0,0-1.571,0.526-1.598,6.817"/>
	<g>
		<path fill="#E8E8E8" d="M164.091,387.612c0,0-0.275-0.33-0.667-0.904c-0.393-0.574-0.926-1.383-1.487-2.331
			c-0.564-0.951-1.202-2.006-1.756-3.148c-0.283-0.568-0.602-1.138-1.009-1.623c-0.204-0.241-0.426-0.462-0.665-0.651
			c-0.119-0.097-0.24-0.189-0.368-0.267l-0.526-0.334c-1.044-0.73-1.421-1.78-1.503-2.703c-0.083-0.923,0.074-1.737,0.26-2.485
			c0.402-1.49,1.022-2.722,1.569-3.757c0.555-1.031,1.074-1.849,1.457-2.408c0.381-0.56,0.616-0.87,0.616-0.87l0.255,0.158
			c0,0-0.689,1.374-1.456,3.506c-0.37,1.064-0.749,2.338-0.906,3.667c-0.075,0.656-0.093,1.34,0.048,1.911
			c0.062,0.29,0.183,0.526,0.306,0.726c0.13,0.196,0.32,0.326,0.421,0.398l0.257,0.129l0.064,0.032l0.032,0.016l0.008,0.004
			c-0.146-0.077-0.035-0.019-0.065-0.035l0.02,0.009l0.159,0.071c0.216,0.091,0.42,0.197,0.619,0.312
			c0.4,0.226,0.767,0.489,1.109,0.766c0.683,0.555,1.285,1.159,1.794,1.786c1.017,1.263,1.462,2.677,1.71,3.869
			c0.247,1.201,0.242,2.234,0.186,2.955c-0.056,0.722-0.187,1.144-0.187,1.144L164.091,387.612z"/>
	</g>
	<g>
		<path fill="#E8E8E8" d="M160.393,392.097c0,0,0.524,0.186,1.07,0.744c0.282,0.27,0.555,0.637,0.785,1.066
			c0.087,0.229,0.199,0.454,0.257,0.706c0.067,0.248,0.142,0.494,0.186,0.75c0.116,0.502,0.164,1.017,0.171,1.494
			c0.016,0.238-0.01,0.469-0.029,0.686c-0.012,0.217-0.052,0.419-0.092,0.604c-0.061,0.372-0.16,0.669-0.228,0.875
			c-0.065,0.206-0.103,0.324-0.103,0.324l-0.097-0.026c0,0,0.013-0.121,0.034-0.334c0.025-0.211,0.059-0.511,0.044-0.872
			c0.002-0.179,0-0.372-0.03-0.576c-0.029-0.203-0.025-0.416-0.078-0.632c-0.074-0.434-0.188-0.888-0.361-1.319
			c-0.155-0.438-0.41-0.831-0.605-1.211c-0.2-0.379-0.357-0.753-0.509-1.074c-0.294-0.646-0.487-1.134-0.487-1.134L160.393,392.097z
			"/>
	</g>
	<g>
		<path fill="#E8E8E8" d="M152.005,401.12c0,0-0.226,0.508-0.624,1.165c-0.2,0.329-0.435,0.705-0.716,1.083
			c-0.289,0.372-0.639,0.744-0.932,1.16c-0.603,0.819-1.101,1.712-1.46,2.396c-0.181,0.342-0.311,0.637-0.399,0.846
			c-0.091,0.208-0.143,0.327-0.143,0.327l-0.096-0.028c0,0,0.028-0.127,0.078-0.351c0.047-0.225,0.12-0.545,0.234-0.923
			c0.206-0.764,0.61-1.747,1.105-2.688c0.243-0.473,0.493-0.948,0.777-1.361c0.302-0.399,0.635-0.732,0.949-0.986
			c0.619-0.52,1.16-0.714,1.16-0.714L152.005,401.12z"/>
	</g>
	<g>
		<path fill="#E8E8E8" d="M170.083,427.436c0,0-1.192-0.112-3.163-0.25c-0.984-0.067-2.166-0.123-3.469-0.119
			c-0.654,0.021-1.333,0.028-2.03,0.087c-0.696,0.066-1.406,0.167-2.102,0.312c-0.697,0.143-1.376,0.358-2.011,0.615
			c-0.261,0.118-0.747,0.345-1.186,0.52c-0.483,0.19-0.885,0.349-1.273,0.522c-0.783,0.321-1.484,0.682-2.208,1.134
			c-0.367,0.207-0.709,0.491-1.083,0.732c-0.35,0.29-0.721,0.559-1.069,0.886c-1.421,1.269-2.74,2.902-3.938,4.686
			c-1.183,1.804-2.301,3.729-3.335,5.717l-0.42,0.781c-0.134,0.252-0.256,0.493-0.442,0.799c-0.34,0.594-0.697,1.086-1.088,1.599
			c-0.786,1.002-1.707,1.881-2.692,2.63c-1.989,1.488-4.22,2.425-6.399,2.983c-2.183,0.567-4.322,0.797-6.332,0.879
			c-2.012,0.077-3.902-0.006-5.633-0.158c-3.462-0.307-6.288-0.882-8.244-1.351c-1.957-0.468-3.055-0.823-3.055-0.823l0.131-0.482
			c0,0,1.105,0.251,3.071,0.537c1.965,0.276,4.79,0.613,8.169,0.659c1.688,0.018,3.515-0.044,5.416-0.265
			c1.897-0.224,3.877-0.599,5.797-1.261c1.916-0.662,3.781-1.596,5.313-2.92c0.76-0.664,1.442-1.41,2.006-2.239
			c0.271-0.41,0.553-0.864,0.75-1.277c0.103-0.186,0.223-0.462,0.339-0.723l0.319-0.763c0.883-2.155,1.883-4.279,2.992-6.342
			c1.15-2.044,2.396-4.043,3.927-5.878c1.491-1.827,3.545-3.448,5.641-4.321c1.109-0.454,1.713-0.68,2.855-1.058
			c1.11-0.348,2.196-0.469,3.2-0.502c1.007-0.029,1.943,0.063,2.804,0.212c0.862,0.143,1.654,0.325,2.373,0.566
			c1.444,0.447,2.612,1.016,3.541,1.52c1.851,1.033,2.731,1.899,2.731,1.899L170.083,427.436z"/>
	</g>
	<g>
		<path fill="#E8E8E8" d="M176.112,421.566c0,0,0.303,0.256,0.721,0.768c0.435,0.505,0.947,1.276,1.473,2.25
			c0.497,0.98,1.01,2.165,1.292,3.507c0.288,1.341,0.26,2.832,0.351,4.283c0.003,0.734,0.033,1.461,0.007,2.181
			c-0.045,0.721-0.053,1.425-0.16,2.106c-0.113,0.68-0.141,1.336-0.314,1.947c-0.156,0.611-0.256,1.19-0.433,1.708
			c-0.175,0.514-0.336,0.986-0.478,1.404c-0.148,0.413-0.339,0.753-0.471,1.038c-0.275,0.562-0.432,0.883-0.432,0.883l-0.277-0.116
			c0,0,0.076-0.343,0.208-0.943c0.055-0.301,0.165-0.651,0.226-1.07c0.052-0.418,0.111-0.889,0.176-1.403
			c0.065-0.509,0.045-1.077,0.074-1.661c0.039-0.583-0.03-1.211-0.04-1.846c-0.008-0.636-0.131-1.298-0.174-1.961
			c-0.072-0.665-0.199-1.339-0.297-2.009c-0.149-0.668-0.29-1.333-0.487-1.977c-0.204-0.643-0.367-1.277-0.53-1.893
			c-0.13-0.622-0.246-1.226-0.33-1.809c-0.077-0.585-0.167-1.136-0.211-1.66c-0.106-1.042-0.17-1.934-0.177-2.579
			c-0.013-0.642,0.008-1.032,0.008-1.032L176.112,421.566z"/>
	</g>
	<path fill="none" stroke="#E8E8E8" stroke-miterlimit="10" d="M171.206,405.356c0,0-2.996,3.491-7.092,2.616
		c-4.097-0.875-6.681-2.616-6.681-2.616"/>
	<line fill="none" stroke="#E8E8E8" stroke-miterlimit="10" x1="191.483" y1="385.458" x2="191.483" y2="376.833"/>
	<line fill="none" stroke="#E8E8E8" stroke-miterlimit="10" x1="187.613" y1="389.708" x2="194.613" y2="390.958"/>
	<g>
		<path fill="#E8E8E8" d="M157.679,449.418c0,0,0.041,0.206,0.071,0.615c0.029,0.405,0.06,0.995,0.019,1.742
			c-0.029,0.75-0.121,1.657-0.328,2.682c-0.086,0.52-0.224,1.059-0.392,1.623c-0.165,0.565-0.319,1.176-0.577,1.772
			c-0.454,1.222-1.08,2.507-1.889,3.79c-0.798,1.292-1.828,2.55-3.036,3.709c-0.651,0.53-1.267,1.125-1.992,1.595
			c-0.729,0.465-1.472,0.925-2.236,1.345c-0.792,0.364-1.591,0.73-2.392,1.098c-0.824,0.285-1.652,0.572-2.48,0.859
			c-0.407,0.159-0.828,0.265-1.253,0.349l-1.264,0.281l-1.314,0.284l-1.185,0.147c-1.522,0.235-3.233,0.305-4.826,0.339
			c-0.791-0.029-1.569-0.058-2.33-0.085c-0.759-0.096-1.501-0.189-2.224-0.28c-0.717-0.164-1.412-0.303-2.075-0.478
			c-0.656-0.227-1.296-0.392-1.883-0.649c-1.177-0.497-2.221-1.037-3.049-1.666c-0.852-0.587-1.487-1.24-1.97-1.794
			c-0.466-0.576-0.79-1.053-0.972-1.408c-0.191-0.342-0.27-0.558-0.27-0.558l0.455-0.207c0,0,0.087,0.153,0.317,0.436
			c0.216,0.287,0.592,0.672,1.098,1.114c0.531,0.418,1.185,0.907,2.022,1.321c0.813,0.449,1.82,0.786,2.921,1.069
			c0.548,0.15,1.152,0.208,1.751,0.324c0.614,0.066,1.256,0.095,1.903,0.148c0.657-0.008,1.332-0.016,2.022-0.025
			c0.69-0.064,1.395-0.129,2.111-0.195c1.411-0.218,2.807-0.451,4.391-0.849l1.163-0.27c-0.021,0.004,0.073-0.015-0.043,0.008
			l0.017-0.006l0.033-0.011l0.066-0.022l0.132-0.045l0.265-0.089l0.53-0.178l1.059-0.354c0.357-0.108,0.705-0.233,1.033-0.409
			c0.661-0.334,1.34-0.62,1.975-0.977c0.603-0.403,1.204-0.805,1.8-1.204c0.563-0.439,1.077-0.927,1.623-1.347
			c0.521-0.453,0.994-0.949,1.492-1.395c0.966-0.928,1.871-1.863,2.706-2.804c0.827-0.943,1.585-1.886,2.254-2.798
			c0.677-0.907,1.286-1.777,1.792-2.578c0.275-0.393,0.51-0.773,0.719-1.131c0.227-0.353,0.439-0.679,0.609-0.984
			c0.729-1.208,1.138-1.939,1.138-1.939L157.679,449.418z"/>
	</g>
	<g>
		<path fill="#E8E8E8" d="M163.429,465.55c0,0,0.007,0.075,0.02,0.219c0.015,0.186,0.059,0.568,0.064,0.868
			c0.023,0.656,0.043,1.573-0.05,2.703c-0.07,1.134-0.265,2.484-0.584,4.006c-0.375,1.511-0.835,3.207-1.639,4.944
			c-0.739,1.758-1.825,3.531-3.104,5.262c-1.357,1.671-2.895,3.339-4.731,4.689c-0.454,0.342-0.899,0.706-1.37,1.029
			c-0.485,0.298-0.973,0.598-1.464,0.9l-0.737,0.448l-0.471,0.284l-0.35,0.17c-0.481,0.229-0.882,0.445-1.542,0.711l-0.905,0.372
			l-0.872,0.289c-0.576,0.202-1.166,0.339-1.753,0.483c-1.176,0.271-2.36,0.444-3.52,0.532c-2.327,0.191-4.55,0.083-6.619,0.002
			c-2.066-0.073-4.007-0.124-5.71,0.236c-1.712,0.326-3.169,1.127-4.334,2.287c-1.154,1.168-2.023,2.592-2.685,3.984
			c-1.302,2.813-1.959,5.414-2.396,7.212c-0.222,0.903-0.35,1.623-0.459,2.111c-0.103,0.489-0.157,0.75-0.157,0.75
			s0.016-0.266,0.046-0.764c0.037-0.498,0.058-1.233,0.146-2.165c0.175-1.863,0.432-4.538,1.363-7.708
			c0.488-1.575,1.183-3.287,2.38-4.927c1.184-1.629,3.066-3.078,5.201-3.814c2.131-0.786,4.35-1.024,6.454-1.266
			c2.111-0.225,4.15-0.439,6.032-0.883c0.944-0.214,1.844-0.491,2.696-0.827c0.422-0.176,0.846-0.339,1.24-0.553l0.593-0.298
			l0.511-0.311c0.299-0.158,0.78-0.501,1.2-0.785l0.322-0.22c0.029-0.018-0.181,0.108-0.084,0.048l0.016-0.014l0.033-0.028
			l0.066-0.056l0.132-0.111l0.524-0.441c0.347-0.289,0.692-0.577,1.034-0.863c0.323-0.302,0.61-0.631,0.912-0.937
			c1.231-1.208,2.118-2.579,2.893-3.864c0.691-1.341,1.25-2.63,1.556-3.89c0.369-1.234,0.485-2.423,0.59-3.453
			c0.05-1.043,0.049-1.947-0.023-2.674c-0.049-0.731-0.155-1.274-0.219-1.61c-0.071-0.279-0.108-0.428-0.108-0.428L163.429,465.55z"
			/>
	</g>
	<path fill="none" stroke="#E8E8E8" stroke-miterlimit="10" d="M155.809,475.375c0,0-1.167-4.167-6.333-4
		c-5.167,0.167-11.103,2.833-11.103,2.833"/>
	<g>
		<path fill="#E8E8E8" d="M159.989,475.359c0,0,0.304,0.687,0.66,1.914c0.176,0.614,0.385,1.361,0.563,2.224
			c0.2,0.862,0.362,1.84,0.526,2.91c0.142,1.071,0.294,2.232,0.347,3.467c0.064,1.234,0.037,2.538-0.052,3.886
			c-0.037,0.674-0.075,1.358-0.114,2.051c-0.046,0.7-0.092,1.408-0.139,2.123c-0.062,0.713-0.16,1.456-0.241,2.186
			c-0.109,0.715-0.218,1.432-0.327,2.149c-0.483,2.85-1.11,5.651-1.745,8.261c-0.648,2.607-1.332,5.015-1.936,7.072
			c-1.2,4.116-2.144,6.814-2.144,6.814l-0.288-0.083c0,0,0.645-2.778,1.51-6.96c0.433-2.09,0.889-4.539,1.34-7.162
			c0.458-2.62,0.893-5.424,1.179-8.223c0.06-0.698,0.119-1.395,0.178-2.09c0.029-0.685,0.076-1.349,0.091-2.037
			c-0.012-0.684,0.016-1.439-0.034-2.045c-0.042-0.682-0.085-1.356-0.148-2.018c-0.12-1.324-0.222-2.602-0.241-3.816
			c-0.032-1.214,0.013-2.365,0.041-3.429c0.046-1.065,0.09-2.043,0.165-2.913c0.058-0.869,0.145-1.632,0.218-2.261
			c0.144-1.258,0.295-1.988,0.295-1.988L159.989,475.359z"/>
	</g>
	<g>
		<path fill="#E8E8E8" d="M162.926,455.114c0,0,0.342,0.141,0.861,0.465c0.531,0.314,1.208,0.831,1.961,1.507
			c0.737,0.687,1.536,1.544,2.218,2.585c0.669,1.05,1.156,2.312,1.738,3.505c0.298,0.592,0.554,1.212,0.824,1.806
			c0.271,0.595,0.481,1.212,0.707,1.792c0.208,0.59,0.394,1.168,0.564,1.713c0.141,0.557,0.275,1.083,0.398,1.568
			c0.111,0.488,0.174,0.947,0.249,1.343c0.084,0.394,0.101,0.753,0.119,1.044c0.038,0.578,0.059,0.908,0.059,0.908l-0.297,0.042
			c0,0-0.103-0.307-0.283-0.844c-0.092-0.266-0.185-0.59-0.347-0.949c-0.156-0.36-0.307-0.769-0.514-1.201
			c-0.216-0.427-0.451-0.889-0.699-1.377c-0.27-0.476-0.554-0.979-0.848-1.499c-0.628-1.019-1.287-2.104-2.016-3.151
			c-0.707-1.06-1.596-2.002-2.267-2.983c-0.651-0.996-1.16-1.996-1.559-2.891c-0.394-0.898-0.69-1.679-0.859-2.26
			c-0.175-0.575-0.244-0.936-0.244-0.936L162.926,455.114z"/>
	</g>
	<g>
		<path fill="#E8E8E8" d="M150.122,485.741c0,0,0.098,2.276-0.72,5.568c-0.19,0.828-0.479,1.702-0.808,2.633
			c-0.354,0.919-0.776,1.884-1.339,2.851c-0.571,0.958-1.267,1.938-2.265,2.775c-0.494,0.419-1.058,0.805-1.721,1.084
			c-0.106,0.045-0.106,0.054-0.298,0.127l-0.197,0.058l-0.394,0.114c-0.232,0.077-0.594,0.153-0.929,0.22
			c-0.673,0.139-1.317,0.177-1.989,0.149c-0.656-0.057-1.311-0.177-1.858-0.346c-1.12-0.335-1.906-0.623-2.757-0.576
			c-0.845,0.019-1.724,0.269-2.539,0.612c-0.84,0.356-1.657,0.719-2.371,1.075c-1.456,0.708-2.605,1.416-3.374,1.957
			c-0.386,0.27-0.674,0.5-0.862,0.665c-0.188,0.164-0.271,0.256-0.271,0.256l-0.243-0.176c0,0,0.08-0.128,0.246-0.334
			c0.165-0.207,0.419-0.497,0.765-0.844c0.69-0.694,1.766-1.587,3.137-2.541c0.694-0.483,1.434-0.977,2.271-1.466
			c0.858-0.497,1.864-0.964,3.06-1.156c1.207-0.218,2.506,0.111,3.462,0.283c0.963,0.192,1.788,0.105,2.599-0.199
			c0.192-0.077,0.362-0.127,0.633-0.267l0.37-0.178l0.185-0.088c-0.065,0.023,0.053-0.036,0.07-0.049
			c0.33-0.174,0.651-0.436,0.968-0.719c0.629-0.578,1.221-1.308,1.758-2.068c1.093-1.52,1.949-3.177,2.693-4.594
			c1.455-2.934,2.425-4.89,2.425-4.89L150.122,485.741z"/>
	</g>
	<path fill="none" stroke="#E8E8E8" stroke-miterlimit="10" d="M147.091,486.375c0,0,0.932-2.167-2.925-4
		c-3.857-1.833-9.523-1-9.523-1"/>
	<line fill="none" stroke="#E8E8E8" stroke-miterlimit="10" x1="142.267" y1="481.708" x2="138.373" y2="477.042"/>
	<line fill="none" stroke="#E8E8E8" stroke-miterlimit="10" x1="148.143" y1="471.371" x2="145.476" y2="475.375"/>
	<path fill="none" stroke="#E8E8E8" stroke-miterlimit="10" d="M139.203,491.107c0,0-2.894-5.587-7.727-7.326"/>
	<line fill="none" stroke="#E8E8E8" stroke-miterlimit="10" x1="135.539" y1="486.375" x2="128.309" y2="485.709"/>
	<g>
		<path fill="#E8E8E8" d="M147.187,464.309c0,0-1.368,0.422-3.448,0.343c-0.52-0.013-1.082-0.059-1.673-0.151
			c-0.594-0.076-1.214-0.214-1.844-0.412c-0.628-0.201-1.263-0.47-1.881-0.811c-0.621-0.326-1.238-0.704-1.819-1.139l-0.798-0.558
			c-0.263-0.154-0.505-0.286-0.77-0.428c-0.557-0.259-1.13-0.483-1.709-0.648c-1.156-0.329-2.293-0.516-3.276-0.615
			c-1.971-0.183-3.311-0.084-3.311-0.084l-0.031-0.198c0,0,1.315-0.341,3.36-0.431c1.02-0.044,2.228-0.033,3.518,0.197
			c0.646,0.108,1.308,0.282,1.976,0.506c0.334,0.129,0.694,0.281,1.022,0.432l0.907,0.494c0.538,0.297,1.098,0.565,1.688,0.756
			c0.581,0.203,1.17,0.369,1.741,0.534c1.155,0.356,2.232,0.689,3.156,0.974c1.884,0.558,3.199,1.036,3.199,1.036L147.187,464.309z"
			/>
	</g>
	<g>
		<path fill="#E8E8E8" d="M155.892,425.98c0,0-2.015-0.374-4.722-1.745c-0.675-0.343-1.396-0.741-2.129-1.213
			c-0.741-0.462-1.491-1.003-2.221-1.628c-0.727-0.626-1.435-1.333-2.077-2.126c-0.338-0.378-0.64-0.798-0.943-1.218
			c-0.319-0.405-0.583-0.86-0.848-1.31c-0.533-0.875-0.958-1.922-1.258-2.809c-0.323-0.933-0.591-1.904-0.81-2.811
			c-0.208-0.92-0.384-1.813-0.498-2.666c-0.111-0.854-0.193-1.662-0.239-2.409c-0.198-2.991,0.073-4.971,0.073-4.971l0.199,0.015
			c0,0-0.028,1.977,0.436,4.877c0.115,0.724,0.272,1.502,0.46,2.317c0.196,0.814,0.415,1.666,0.687,2.532
			c0.284,0.873,0.59,1.727,0.969,2.606c0.209,0.449,0.372,0.899,0.611,1.283c0.229,0.4,0.428,0.813,0.721,1.181
			c0.271,0.378,0.534,0.758,0.859,1.1c0.303,0.354,0.609,0.701,0.958,1.013c0.66,0.648,1.363,1.24,2.047,1.807
			c1.354,1.154,2.682,2.188,3.844,3.069c2.377,1.754,3.962,2.923,3.962,2.923L155.892,425.98z"/>
	</g>
	<g>
		<line fill="#E8E8E8" x1="148.109" y1="421.117" x2="149.113" y2="412.709"/>
		<path fill="#E8E8E8" d="M148.059,421.111c0,0-0.158-0.552-0.191-1.355c-0.02-0.402-0.016-0.868,0.041-1.361
			c0.073-0.491,0.205-1.008,0.304-1.529c0.38-2.087,0.85-4.163,0.85-4.163l0.099,0.012c0,0-0.032,2.128-0.155,4.246
			c-0.027,0.53-0.02,1.064-0.064,1.558c-0.061,0.492-0.167,0.946-0.281,1.332c-0.221,0.773-0.504,1.272-0.504,1.272L148.059,421.111
			z"/>
	</g>
	<g>
		<path fill="#E8E8E8" d="M140.922,408.978c0,0-0.132-0.146-0.281-0.446c-0.159-0.298-0.323-0.765-0.354-1.364
			c-0.034-0.594,0.099-1.33,0.49-1.988c0.201-0.324,0.451-0.627,0.74-0.887c0.286-0.265,0.599-0.493,0.919-0.705
			c1.237-0.781,2.517-1.488,3.525-1.914c1.001-0.441,1.706-0.638,1.706-0.638l0.032,0.095c0,0-0.66,0.288-1.575,0.854
			c-0.914,0.57-2.104,1.366-3.221,2.254c-0.256,0.223-0.507,0.445-0.707,0.701c-0.198,0.254-0.384,0.504-0.519,0.767
			c-0.303,0.506-0.492,1.025-0.59,1.509c-0.044,0.242-0.074,0.47-0.089,0.679c-0.006,0.212-0.011,0.397-0.015,0.55
			c0.01,0.311,0.031,0.494,0.031,0.494L140.922,408.978z"/>
	</g>
	<g>
		<path fill="#E8E8E8" d="M173.382,382.492c0,0-0.863-1.044-1.584-2.853c-0.356-0.903-0.714-1.984-0.906-3.184
			c-0.193-1.2-0.166-2.512-0.176-3.805c0.002-0.648,0.053-1.298,0.078-1.933c0.08-0.637,0.132-1.261,0.232-1.861
			c0.131-0.597,0.205-1.179,0.37-1.713c0.174-0.532,0.315-1.038,0.487-1.49c0.196-0.443,0.376-0.848,0.536-1.208
			c0.15-0.361,0.367-0.637,0.505-0.879c0.296-0.473,0.465-0.743,0.465-0.743l0.171,0.103c0,0-0.117,0.291-0.321,0.8
			c-0.088,0.259-0.251,0.546-0.344,0.914c-0.099,0.363-0.21,0.772-0.332,1.219c-0.097,0.451-0.156,0.952-0.243,1.469
			c-0.072,0.521-0.092,1.081-0.144,1.65c-0.027,0.573-0.004,1.17-0.009,1.77c0.049,0.604,0.073,1.214,0.144,1.823
			c0.095,0.608,0.145,1.216,0.287,1.808c0.118,0.591,0.234,1.173,0.347,1.736c0.081,0.567,0.181,1.113,0.231,1.642
			c0.062,0.526,0.135,1.023,0.171,1.49c0.213,1.853,0.22,3.176,0.22,3.176L173.382,382.492z"/>
	</g>
	<path fill="none" stroke="#E8E8E8" stroke-miterlimit="10" d="M197.012,378.557c0,0-5.261-9.181-2.398-13.181
		s0.773-10.833,0.773-10.833"/>
	<path fill="none" stroke="#E8E8E8" stroke-miterlimit="10" d="M196.028,361.338c0,0,5.781-2.296,6.448-3.963"/>
	<line fill="none" stroke="#E8E8E8" stroke-miterlimit="10" x1="194.613" y1="365.375" x2="192.976" y2="360.375"/>
	<line fill="none" stroke="#E8E8E8" stroke-miterlimit="10" x1="172.065" y1="373.542" x2="175.974" y2="369.209"/>
	<line fill="none" stroke="#E8E8E8" stroke-miterlimit="10" x1="171.206" y1="369.875" x2="168.184" y2="365.375"/>
	<line fill="none" stroke="#E8E8E8" stroke-miterlimit="10" x1="184.738" y1="376.042" x2="184.433" y2="368.375"/>
	<line fill="none" stroke="#E8E8E8" stroke-miterlimit="10" x1="189.201" y1="371.042" x2="189.201" y2="365.375"/>
	<line fill="none" stroke="#E8E8E8" stroke-miterlimit="10" x1="187.613" y1="372.667" x2="192.976" y2="373.542"/>
	<g>
		<path fill="#E8E8E8" d="M168.52,393.089c0,0,1.106-1.049,3.161-1.916c0.514-0.212,1.08-0.426,1.701-0.592
			c0.613-0.191,1.286-0.315,1.989-0.393c0.704-0.077,1.446-0.055,2.193,0.002c0.75,0.099,1.508,0.185,2.252,0.404
			c0.376,0.073,0.738,0.213,1.097,0.355c0.361,0.132,0.717,0.267,1.043,0.472c0.326,0.199,0.677,0.342,0.964,0.582
			c0.29,0.231,0.577,0.459,0.859,0.683c0.994,0.916,1.873,1.805,2.624,2.582c0.746,0.779,1.358,1.439,1.746,1.947
			c0.193,0.26,0.34,0.454,0.411,0.655c0.007,0.07,0.044,0.12-0.031,0.224c-0.069,0.063-0.14,0.053-0.163,0.049
			c-0.063-0.01-0.09-0.024-0.09-0.024l0.068-0.188c0,0,0.015,0.004,0.038,0.002c0.017,0.001,0.009-0.01-0.017,0.009
			c-0.029,0.049-0.023,0.024-0.03,0.012c-0.058-0.112-0.233-0.296-0.45-0.504c-0.449-0.419-1.124-0.995-1.961-1.655
			c-0.422-0.326-0.879-0.68-1.362-1.054c-0.485-0.37-0.997-0.761-1.526-1.165c-0.261-0.166-0.527-0.334-0.796-0.505
			c-0.26-0.18-0.582-0.265-0.87-0.405c-0.287-0.146-0.605-0.226-0.924-0.305c-0.315-0.087-0.628-0.176-0.962-0.202
			c-0.649-0.107-1.318-0.112-1.969-0.097c-0.658,0.057-1.297,0.111-1.922,0.197c-1.25,0.136-2.435,0.294-3.468,0.451
			c-2.055,0.341-3.52,0.56-3.52,0.56L168.52,393.089z"/>
	</g>
	<line fill="none" stroke="#E8E8E8" stroke-miterlimit="10" x1="162.607" y1="380.958" x2="165.143" y2="375.083"/>
	<line fill="none" stroke="#E8E8E8" stroke-miterlimit="10" x1="156.978" y1="372.209" x2="152.643" y2="362.875"/>
	<path fill="none" stroke="#E8E8E8" stroke-miterlimit="10" d="M154.811,366.209c0,0,0.832-4.704,4.332-6.852"/>
	<path fill="none" stroke="#E8E8E8" stroke-miterlimit="10" d="M158.498,377.625c0,0,1.957-3.249,5.822-7.749"/>
	<path fill="none" stroke="#E8E8E8" stroke-miterlimit="10" d="M160.608,380.958c0,0-3.299-4.375-7.966-4.062"/>
	<line fill="none" stroke="#E8E8E8" stroke-miterlimit="10" x1="155.933" y1="369.875" x2="148.109" y2="368.375"/>
	<line fill="none" stroke="#E8E8E8" stroke-miterlimit="10" x1="149.827" y1="388.817" x2="144.18" y2="392.875"/>
	<line fill="none" stroke="#E8E8E8" stroke-miterlimit="10" x1="157.433" y1="388.724" x2="152.643" y2="382.458"/>
	<line fill="none" stroke="#E8E8E8" stroke-miterlimit="10" x1="178.512" y1="430.692" x2="172.476" y2="437.709"/>
	<line fill="none" stroke="#E8E8E8" stroke-miterlimit="10" x1="177.53" y1="426.215" x2="185.771" y2="430.692"/>
	<g>
		<path fill="#E8E8E8" d="M126.603,492.61c0,0-0.606-0.148-1.674-0.112c-0.531,0.023-1.169,0.112-1.884,0.249
			c-0.355,0.105-0.735,0.168-1.125,0.293c-0.387,0.143-0.8,0.249-1.215,0.423c-0.835,0.329-1.715,0.745-2.621,1.238
			c-0.441,0.274-0.913,0.513-1.372,0.805c-0.452,0.308-0.927,0.597-1.404,0.903c-0.937,0.648-1.912,1.311-2.859,2.065
			c-0.984,0.704-1.869,1.571-2.808,2.375c-0.957,0.854-1.834,1.711-2.804,2.524c-0.943,0.829-1.898,1.604-2.833,2.338
			c-0.948,0.719-1.859,1.421-2.779,2.012c-0.45,0.309-0.898,0.593-1.341,0.855c-0.436,0.271-0.863,0.525-1.285,0.748
			c-0.832,0.465-1.618,0.852-2.333,1.15c-0.709,0.313-1.354,0.527-1.887,0.686c-1.072,0.318-1.734,0.314-1.734,0.314v-0.2
			c0,0,0.145-0.005,0.428-0.07c0.282-0.058,0.693-0.175,1.2-0.364c0.506-0.197,1.114-0.453,1.781-0.813
			c0.672-0.345,1.409-0.784,2.184-1.302c0.393-0.249,0.79-0.531,1.195-0.829c0.411-0.289,0.827-0.601,1.242-0.938
			c0.845-0.653,1.711-1.378,2.592-2.142c0.874-0.775,1.763-1.589,2.629-2.447c0.88-0.829,1.749-1.783,2.618-2.655
			c0.907-0.9,1.771-1.844,2.731-2.675c0.91-0.884,1.928-1.623,2.897-2.357c0.52-0.321,1.026-0.647,1.535-0.942
			c0.51-0.294,1.044-0.531,1.55-0.773c1.03-0.462,2.048-0.81,3.015-1.035c0.964-0.234,1.879-0.321,2.683-0.349
			c0.406,0.014,0.783,0.02,1.129,0.052c0.348,0.057,0.663,0.084,0.945,0.162c0.563,0.128,0.991,0.269,1.269,0.407
			c0.283,0.13,0.417,0.223,0.417,0.223L126.603,492.61z"/>
	</g>
	<g>
		<path fill="#E8E8E8" d="M145.803,434.336c0,0-0.351,0.369-1.057,0.866c-0.704,0.507-1.776,1.125-3.173,1.649
			c-0.355,0.119-0.724,0.242-1.106,0.37c-0.394,0.093-0.802,0.189-1.221,0.287c-0.426,0.08-0.869,0.141-1.322,0.196
			c-0.457,0.041-0.929,0.033-1.407,0.047c-0.48-0.033-0.97-0.08-1.46-0.147c-0.491-0.081-0.982-0.222-1.473-0.337
			c-0.489-0.141-0.97-0.334-1.456-0.493c-0.481-0.179-0.94-0.43-1.405-0.644c-0.892-0.47-1.814-1.075-2.504-1.622
			c-0.734-0.55-1.491-1.183-2.144-1.783c-0.669-0.603-1.296-1.209-1.853-1.818c-0.563-0.602-1.065-1.199-1.512-1.76
			c-0.89-1.126-1.548-2.123-1.947-2.857c-0.406-0.729-0.587-1.178-0.587-1.178l0.268-0.134c0,0,0.245,0.388,0.758,1.014
			c0.516,0.624,1.276,1.496,2.294,2.43c0.507,0.468,1.07,0.96,1.691,1.446c0.618,0.489,1.275,0.995,1.985,1.476
			c0.714,0.5,1.423,0.938,2.214,1.419c0.818,0.51,1.522,0.848,2.319,1.175c0.409,0.117,0.799,0.273,1.21,0.361
			c0.417,0.074,0.821,0.168,1.234,0.212c0.414,0.029,0.825,0.058,1.231,0.086c0.411-0.009,0.81,0.022,1.206,0.027
			c0.399,0.001,0.791-0.011,1.177,0.011c0.388-0.016,0.769-0.024,1.144-0.012c0.758-0.041,1.475-0.08,2.137-0.116
			c0.678-0.06,1.3-0.115,1.851-0.164c0.565-0.057,1.058-0.107,1.464-0.148c0.836-0.085,1.313-0.133,1.313-0.133L145.803,434.336z"/>
	</g>
	<path fill="none" stroke="#E8E8E8" stroke-miterlimit="10" d="M149.827,429.282c0,0-3.585,3.798-1.718,13.112
		s-5.808,14.981-5.808,14.981"/>
	<path fill="none" stroke="#E8E8E8" stroke-miterlimit="10" d="M139.581,436.001c0,0-4.176,0.053-6.557-9.786
		c-2.381-9.839-10.048-13.506-10.048-13.506"/>
	<path fill="none" stroke="#E8E8E8" stroke-miterlimit="10" d="M145.476,418.7c0,0-7.738-5.991-12.452-5.991"/>
	<line fill="none" stroke="#E8E8E8" stroke-miterlimit="10" x1="149.976" y1="422.495" x2="142.54" y2="422.495"/>
	<g>
		<path fill="#E8E8E8" d="M138.361,500.091c0,0-0.242-0.005-0.653,0.03c-0.408,0.049-0.987,0.113-1.603,0.358
			c-0.309,0.114-0.621,0.275-0.929,0.469c-0.151,0.102-0.291,0.227-0.447,0.333c-0.142,0.127-0.273,0.272-0.416,0.408
			c-0.129,0.154-0.26,0.31-0.393,0.468c-0.12,0.17-0.228,0.356-0.348,0.536c-0.202,0.383-0.417,0.783-0.54,1.225
			c-0.146,0.427-0.259,0.885-0.366,1.35c-0.107,0.458-0.207,0.902-0.293,1.34c-0.174,0.874-0.317,1.693-0.4,2.401
			c-0.085,0.707-0.109,1.301-0.087,1.713c0.016,0.414,0.085,0.633,0.085,0.633l-0.091,0.041c0,0-0.101-0.235-0.162-0.657
			c-0.067-0.421-0.105-1.027-0.095-1.753c0.008-0.726,0.062-1.572,0.177-2.47c0.053-0.448,0.12-0.917,0.191-1.384
			c0.069-0.461,0.147-0.941,0.272-1.433c0.088-0.492,0.28-0.971,0.472-1.438c0.119-0.225,0.221-0.46,0.358-0.672
			c0.151-0.204,0.295-0.413,0.453-0.605c0.357-0.352,0.732-0.667,1.146-0.874c0.412-0.206,0.823-0.342,1.21-0.405
			c0.385-0.072,0.743-0.068,1.051-0.052c0.309,0.013,0.573,0.059,0.786,0.117c0.425,0.103,0.648,0.223,0.648,0.223L138.361,500.091z
			"/>
	</g>
	<line fill="none" stroke="#E8E8E8" stroke-miterlimit="10" x1="137.746" y1="498.959" x2="132.25" y2="496.546"/>
	<line fill="none" stroke="#E8E8E8" stroke-miterlimit="10" x1="132.488" y1="499.724" x2="126.643" y2="500.042"/>
	<g>
		<path fill="#E8E8E8" d="M160.905,425.193c0,0-0.112,0.015-0.348,0.022c-0.23,0.006-0.561-0.01-0.983-0.079
			c-0.21-0.037-0.438-0.094-0.694-0.156c-0.247-0.077-0.509-0.18-0.798-0.286c-0.551-0.253-1.171-0.598-1.759-1.111
			c-0.584-0.513-1.161-1.171-1.589-1.972c-0.216-0.398-0.449-0.815-0.567-1.27c-0.149-0.447-0.29-0.917-0.334-1.392
			c-0.151-0.961-0.068-1.933,0.056-2.89c0.094-0.466,0.189-0.936,0.285-1.407c0.085-0.472,0.261-0.909,0.389-1.362
			c0.249-0.927,0.572-1.743,0.859-2.563c0.303-0.825,0.618-1.645,0.942-2.418c0.627-1.558,1.295-2.983,1.923-4.178
			c0.63-1.194,1.205-2.166,1.695-2.796c0.476-0.64,0.839-0.938,0.863-0.946l0.185,0.236c0.013-0.022-0.267,0.305-0.597,0.99
			c-0.334,0.68-0.754,1.689-1.163,2.935c-0.207,0.622-0.41,1.305-0.618,2.028c-0.196,0.727-0.402,1.494-0.615,2.288
			c-0.195,0.796-0.397,1.619-0.603,2.455c-0.194,0.852-0.423,1.719-0.536,2.525c-0.161,0.824-0.194,1.637-0.206,2.427
			c0.055,0.779,0.096,1.528,0.231,2.206c0.09,0.689,0.254,1.316,0.439,1.903c0.191,0.587,0.463,1.108,0.745,1.596
			c0.15,0.236,0.319,0.45,0.464,0.678c0.166,0.207,0.343,0.389,0.496,0.587c0.337,0.357,0.661,0.664,0.946,0.912
			c0.578,0.489,0.961,0.746,0.961,0.746L160.905,425.193z"/>
	</g>
	<line fill="none" stroke="#E8E8E8" stroke-miterlimit="10" x1="155.933" y1="412.709" x2="152.643" y2="408.958"/>
	<line fill="none" stroke="#E8E8E8" stroke-miterlimit="10" x1="155.361" y1="418.7" x2="164.32" y2="413.486"/>
	<line fill="none" stroke="#E8E8E8" stroke-miterlimit="10" x1="168.184" y1="461.867" x2="175.494" y2="461.867"/>
	<line fill="none" stroke="#E8E8E8" stroke-miterlimit="10" x1="170.186" y1="466.622" x2="167.643" y2="477.042"/>
	<line fill="none" stroke="#E8E8E8" stroke-miterlimit="10" x1="181.65" y1="428.453" x2="184.738" y2="436.001"/>
	<line fill="none" stroke="#E8E8E8" stroke-miterlimit="10" x1="168.914" y1="471.832" x2="171.839" y2="479.375"/>
	<g>
		<path fill="#E8E8E8" d="M158.648,477.036c0,0,0.827,3.176,0.939,8.043c0.005,0.609,0.01,1.243,0.015,1.9
			c-0.027,0.657-0.056,1.337-0.085,2.035c-0.072,1.4-0.253,2.876-0.523,4.396c-0.32,1.517-0.723,3.077-1.347,4.625l-0.473,1.162
			c-0.181,0.384-0.386,0.767-0.579,1.149c-0.185,0.385-0.393,0.764-0.663,1.126c-0.271,0.382-0.456,0.7-0.802,1.126
			c-0.986,1.159-2.377,2.434-3.626,3.373c-1.279,0.991-2.593,1.855-3.873,2.67c-1.294,0.789-2.55,1.533-3.77,2.184
			c-1.221,0.648-2.383,1.239-3.463,1.768c-4.322,2.111-7.314,3.25-7.314,3.25l-0.123-0.274c0,0,2.837-1.463,6.926-3.915
			c1.019-0.618,2.11-1.304,3.251-2.048c1.134-0.754,2.325-1.547,3.523-2.409c1.184-0.878,2.393-1.801,3.527-2.818
			c0.564-0.512,1.14-1.027,1.614-1.559c0.506-0.482,0.996-1.143,1.49-1.767c0.133-0.21,0.337-0.592,0.503-0.875
			c0.189-0.292,0.336-0.624,0.467-0.97c0.135-0.34,0.285-0.668,0.41-1.012l0.313-1.066c0.405-1.419,0.663-2.884,0.936-4.296
			c0.129-0.712,0.233-1.417,0.372-2.102c0.104-0.694,0.216-1.371,0.338-2.031c0.198-1.335,0.385-2.597,0.558-3.762
			c0.335-2.361,0.614-4.328,0.809-5.705c0.222-1.393,0.348-2.189,0.348-2.189L158.648,477.036z"/>
	</g>
	<line fill="none" stroke="#E8E8E8" stroke-miterlimit="10" x1="158.498" y1="504.875" x2="152.643" y2="512.265"/>
	<line fill="none" stroke="#E8E8E8" stroke-miterlimit="10" x1="155.933" y1="497.875" x2="148.611" y2="500.042"/>
	<path fill="none" stroke="#E8E8E8" stroke-miterlimit="10" d="M152.643,503.586c0,0-4.392,4.789-3.529,12.123
		c0.863,7.333,2.319,11,2.319,11"/>
	<line fill="none" stroke="#E8E8E8" stroke-miterlimit="10" x1="149.001" y1="512.265" x2="142.54" y2="525.042"/>
	<line fill="none" stroke="#E8E8E8" stroke-miterlimit="10" x1="145.782" y1="508.809" x2="142.301" y2="515.709"/>
	<line fill="none" stroke="#E8E8E8" stroke-miterlimit="10" x1="149.001" y1="506.489" x2="138.373" y2="506.489"/>
	<line fill="none" stroke="#E8E8E8" stroke-miterlimit="10" x1="111.681" y1="497.875" x2="101.976" y2="497.875"/>
	<path fill="none" stroke="#E8E8E8" stroke-miterlimit="10" d="M138.373,446.398c0,0-5.397,0.218-10.064-3.069
		c-4.667-3.287-5.333-3.62-5.333-3.62"/>
	<line fill="none" stroke="#E8E8E8" stroke-miterlimit="10" x1="132.488" y1="424.355" x2="122.976" y2="418.7"/>
	<line fill="none" stroke="#E8E8E8" stroke-miterlimit="10" x1="130.674" y1="444.69" x2="120.309" y2="444.69"/>
	<path fill="none" stroke="#E8E8E8" stroke-miterlimit="10" d="M126.643,451.123c0,0-10.333-2.786-12.333-6.434
		c-2-3.648-5.333-12.086-5.333-12.086"/>
	<line fill="none" stroke="#E8E8E8" stroke-miterlimit="10" x1="114.309" y1="444.69" x2="103.976" y2="444.69"/>
	<line fill="none" stroke="#E8E8E8" stroke-miterlimit="10" x1="148.109" y1="448.123" x2="142.54" y2="451.123"/>
	<line fill="none" stroke="#E8E8E8" stroke-miterlimit="10" x1="146.701" y1="452.018" x2="148.611" y2="457.375"/>
	<path fill="none" stroke="#E8E8E8" stroke-miterlimit="10" d="M132.488,449.731c0,0-12.012,3.978-14.429,7.644
		c-2.417,3.667-6.378,10-6.378,10"/>
	<line fill="none" stroke="#E8E8E8" stroke-miterlimit="10" x1="118.059" y1="457.375" x2="106.829" y2="459.808"/>
	<line fill="none" stroke="#E8E8E8" stroke-miterlimit="10" x1="140.32" y1="463.028" x2="136.916" y2="454.697"/>
	<line fill="none" stroke="#E8E8E8" stroke-miterlimit="10" x1="138.373" y1="458.262" x2="131.924" y2="455.209"/>
	<g>
		<path fill="#E8E8E8" d="M138.306,461.941c0,0-0.201-0.025-0.5,0.025c-0.3,0.06-0.666,0.197-1.078,0.425
			c-0.206,0.11-0.425,0.249-0.661,0.396c-0.241,0.148-0.494,0.305-0.757,0.466c-0.288,0.151-0.585,0.306-0.887,0.464
			c-0.323,0.164-0.596,0.339-0.944,0.568c-0.33,0.209-0.605,0.418-0.98,0.625c-0.347,0.218-0.709,0.383-1.057,0.536
			c-0.706,0.299-1.427,0.469-2.059,0.472c-0.631,0.009-1.154-0.151-1.46-0.353c-0.311-0.194-0.437-0.373-0.437-0.373l0.147-0.136
			c-0.008-0.008,0.138,0.108,0.434,0.186c0.293,0.08,0.732,0.111,1.23-0.031c0.498-0.134,1.041-0.423,1.583-0.798
			c0.27-0.198,0.538-0.408,0.792-0.632c0.253-0.197,0.54-0.5,0.812-0.75c0.249-0.236,0.547-0.56,0.832-0.827
			c0.289-0.28,0.596-0.54,0.934-0.746c0.34-0.2,0.693-0.365,1.064-0.463c0.359-0.113,0.73-0.163,1.078-0.17
			c0.345-0.015,0.675,0.035,0.956,0.12c0.28,0.081,0.512,0.211,0.678,0.337c0.167,0.134,0.274,0.256,0.333,0.356
			c0.062,0.098,0.081,0.154,0.081,0.154L138.306,461.941z"/>
	</g>
	<line fill="none" stroke="#E8E8E8" stroke-miterlimit="10" x1="131.924" y1="464.209" x2="128.309" y2="462.5"/>
	<g>
		<path fill="#E8E8E8" d="M140.466,468.833c-0.022-0.042,0.139,0.167-0.05,0.428c-0.193,0.24-0.48,0.333-0.799,0.418
			c-0.647,0.166-1.497,0.161-2.455,0.039c-0.954-0.136-2.02-0.408-3.069-0.878l-0.189-0.093l-0.091-0.054l-0.183-0.109
			c-0.124-0.07-0.243-0.152-0.364-0.232l-0.362-0.247l-0.416-0.352c-0.269-0.244-0.569-0.477-0.798-0.732l-0.685-0.753
			c-0.417-0.529-0.825-1.058-1.136-1.626c-0.348-0.546-0.583-1.136-0.806-1.693c-0.445-1.12-0.66-2.208-0.787-3.131
			c-0.266-1.849-0.114-3.078-0.114-3.078l0.3-0.01c0,0,0.053,0.29,0.187,0.793c0.137,0.501,0.337,1.214,0.662,2.027
			c0.154,0.409,0.358,0.836,0.572,1.281c0.235,0.436,0.468,0.894,0.76,1.334c0.129,0.229,0.3,0.435,0.455,0.652
			c0.154,0.219,0.314,0.433,0.496,0.63c0.332,0.422,0.733,0.781,1.121,1.136l0.636,0.459c0.213,0.146,0.428,0.218,0.629,0.329
			c0.295,0.175,1.129,0.474,1.398,0.62c0.999,0.448,1.868,0.984,2.602,1.461c0.362,0.243,0.693,0.466,0.987,0.663
			c0.287,0.195,0.546,0.371,0.74,0.493c0.197,0.129,0.347,0.192,0.377,0.248c0.034,0.067,0.107,0.076,0.093,0.05L140.466,468.833z"
			/>
	</g>
	<g>
		<path fill="#E8E8E8" d="M132.95,467.443c0,0-0.985-0.405-2.259-1.102c-0.645-0.344-1.372-0.757-2.119-1.245
			c-0.371-0.248-0.736-0.534-1.116-0.817c-0.374-0.294-0.782-0.547-1.183-0.818c-0.821-0.513-1.66-0.973-2.49-1.412
			c-0.823-0.431-1.579-0.86-2.229-1.226c-1.302-0.723-2.159-1.231-2.159-1.231l0.081-0.183c0,0,0.953,0.289,2.366,0.762
			c0.708,0.233,1.535,0.5,2.409,0.816c0.869,0.302,1.834,0.654,2.767,1.057c0.927,0.416,1.888,0.8,2.703,1.313
			c0.801,0.532,1.464,1.154,1.975,1.738c0.513,0.584,0.881,1.128,1.098,1.54c0.222,0.407,0.306,0.673,0.306,0.673L132.95,467.443z"
			/>
	</g>
	<line fill="none" stroke="#E8E8E8" stroke-miterlimit="10" x1="125.492" y1="461.525" x2="124.059" y2="455.75"/>
	<line fill="none" stroke="#E8E8E8" stroke-miterlimit="10" x1="133.024" y1="466.622" x2="125.492" y2="466.375"/>
	<g>
		<path fill="#E8E8E8" d="M148.213,464.944c0,0-0.404,1.027-1.099,2.36c-0.345,0.671-0.743,1.434-1.191,2.223
			c-0.24,0.385-0.489,0.783-0.741,1.188c-0.251,0.407-0.467,0.839-0.663,1.28c-0.179,0.444-0.367,0.894-0.475,1.351
			c-0.141,0.454-0.203,0.91-0.274,1.357c-0.093,0.951-0.198,1.852-0.291,2.618c-0.174,1.535-0.319,2.557-0.319,2.557l-0.2-0.005
			c0,0-0.094-1.028-0.194-2.57c-0.052-0.773-0.124-1.666-0.156-2.637c0.002-0.512,0-1.049,0.082-1.583
			c0.049-0.541,0.182-1.072,0.311-1.603c0.131-0.532,0.306-1.048,0.481-1.558c0.182-0.504,0.381-0.998,0.635-1.437
			c0.25-0.443,0.535-0.841,0.832-1.197c0.296-0.356,0.591-0.678,0.889-0.952c1.166-1.121,2.232-1.534,2.232-1.534L148.213,464.944z"
			/>
	</g>
	<g>
		<path fill="#E8E8E8" d="M137.662,469.304c0,0-0.333,0.216-0.897,0.551c-0.544,0.319-1.321,0.775-2.254,1.322
			c-0.869,0.52-1.884,1.128-2.97,1.778c-0.534,0.309-1.082,0.625-1.642,0.961c-0.266,0.186-0.534,0.374-0.804,0.562
			c-0.253,0.207-0.49,0.435-0.74,0.652c-0.457,0.482-0.876,0.946-1.323,1.549c-0.431,0.572-0.836,1.095-1.226,1.651
			c-0.77,1.096-1.454,2.153-1.993,3.089c-0.543,0.935-0.929,1.751-1.198,2.324c-0.265,0.575-0.384,0.913-0.384,0.913l-0.293-0.064
			c0,0,0.165-1.494,0.9-3.61c0.357-1.06,0.832-2.281,1.447-3.543c0.297-0.626,0.644-1.3,1.003-1.927
			c0.328-0.607,0.785-1.311,1.253-1.955l0.758-0.937c0.274-0.294,0.547-0.587,0.817-0.878c0.566-0.556,1.169-1.06,1.805-1.461
			c1.288-0.778,2.634-1.181,3.79-1.378c0.58-0.098,1.118-0.141,1.595-0.153c0.477-0.013,0.894,0.01,1.238,0.05
			c0.685,0.074,1.078,0.205,1.078,0.205L137.662,469.304z"/>
	</g>
	<g>
		<path fill="#E8E8E8" d="M130.174,471.453c0,0-1.2,1.355-3.368,2.922c-1.089,0.771-2.396,1.634-3.909,2.376
			c-1.512,0.745-3.248,1.307-5.058,1.672c-0.907,0.174-1.843,0.288-2.796,0.244c-1.009-0.062-1.759-0.282-2.602-0.451
			c-1.629-0.36-3.114-0.788-4.372-1.205c-2.52-0.815-4.127-1.541-4.127-1.541l0.068-0.188c0,0,1.688,0.474,4.254,0.981
			c1.284,0.241,2.785,0.514,4.391,0.717c0.776,0.086,1.696,0.221,2.411,0.202c0.772-0.023,1.58-0.184,2.373-0.418
			c1.595-0.468,3.115-1.247,4.575-1.889c1.47-0.668,2.841-1.292,4.017-1.826c1.19-0.534,2.187-0.99,2.899-1.292
			c0.718-0.298,1.129-0.468,1.129-0.468L130.174,471.453z"/>
	</g>
	<path fill="none" stroke="#E8E8E8" stroke-miterlimit="10" d="M131.476,471.832c0,0-0.071,3.793,1.548,6.668"/>
	<line fill="none" stroke="#E8E8E8" stroke-miterlimit="10" x1="127.559" y1="474.217" x2="128.309" y2="481.186"/>
	<path fill="none" stroke="#E8E8E8" stroke-miterlimit="10" d="M122.085,475.166c0,0-4.775,2.454-8.9-1.793"/>
	<path fill="none" stroke="#E8E8E8" stroke-miterlimit="10" d="M118.059,477.485c0,0-5.208,1.265-8.917,5.39
		c-3.708,4.125-6.083,9.227-6.083,9.227"/>
	<path fill="none" stroke="#E8E8E8" stroke-miterlimit="10" d="M109.643,482.355c0,0-5.583,1.706-9.708,1.426
		s-5.75-1.426-5.75-1.426"/>
	<line fill="none" stroke="#E8E8E8" stroke-miterlimit="10" x1="103.059" y1="483.781" x2="98.434" y2="479.875"/>
	<line fill="none" stroke="#E8E8E8" stroke-miterlimit="10" x1="111.681" y1="458.553" x2="103.059" y2="455.209"/>
	<line fill="none" stroke="#E8E8E8" stroke-miterlimit="10" x1="114.757" y1="462.5" x2="106.059" y2="466.499"/>
	<line fill="none" stroke="#E8E8E8" stroke-miterlimit="10" x1="114.757" y1="457.375" x2="111.184" y2="454.697"/>
	<line fill="none" stroke="#E8E8E8" stroke-miterlimit="10" x1="119.434" y1="493.043" x2="113.184" y2="491.625"/>
	<g>
		<path fill="#E8E8E8" d="M131.482,490.6c0,0-0.315,0.167-0.879,0.35c-0.563,0.186-1.376,0.393-2.364,0.518
			c-0.986,0.115-2.153,0.168-3.386-0.094c-1.23-0.251-2.55-0.506-3.842-1.024c-0.64-0.267-1.291-0.585-1.835-1.133
			c-0.477-0.499-0.862-0.969-1.255-1.454c-0.769-0.954-1.44-1.872-2.005-2.664c-1.131-1.584-1.814-2.687-1.814-2.687l0.163-0.116
			c0,0,0.815,1.004,2.079,2.466c0.634,0.729,1.384,1.571,2.224,2.428c0.41,0.42,0.871,0.875,1.31,1.256
			c0.406,0.309,0.972,0.509,1.55,0.653c1.168,0.283,2.428,0.372,3.604,0.356c0.589-0.007,1.158,0.001,1.698,0.041
			c0.54,0.044,1.051,0.123,1.527,0.179c0.95,0.143,1.752,0.31,2.318,0.457c0.566,0.142,0.895,0.268,0.895,0.268L131.482,490.6z"/>
	</g>
	<line fill="none" stroke="#E8E8E8" stroke-miterlimit="10" x1="117.046" y1="498.959" x2="122.388" y2="495.841"/>
	<g>
		<path fill="#E8E8E8" d="M109.678,499.759c0,0-0.153,0.231-0.346,0.666c-0.084,0.224-0.193,0.487-0.286,0.8
			c-0.103,0.309-0.163,0.674-0.238,1.062c-0.063,0.392-0.109,0.819-0.132,1.273c-0.009,0.455-0.031,0.934,0.007,1.431
			c0.007,0.497,0.061,1.018,0.112,1.539c0.066,0.548,0.146,1.09,0.234,1.627c0.797,4.338,2.203,8.575,2.203,8.575l-0.093,0.036
			c0,0-1.821-4.076-2.892-8.445c-0.14-0.551-0.268-1.1-0.379-1.632c-0.112-0.56-0.189-1.109-0.224-1.654
			c-0.012-0.543-0.003-1.072,0.071-1.569c0.069-0.497,0.179-0.961,0.319-1.378c0.294-0.829,0.669-1.466,1.001-1.85
			c0.325-0.39,0.574-0.551,0.574-0.551L109.678,499.759z"/>
	</g>
	<line fill="none" stroke="#E8E8E8" stroke-miterlimit="10" x1="104.615" y1="504.439" x2="98.434" y2="505.75"/>
	<line fill="none" stroke="#E8E8E8" stroke-miterlimit="10" x1="108.309" y1="506.489" x2="106.059" y2="511.875"/>
	<line fill="none" stroke="#E8E8E8" stroke-miterlimit="10" x1="110.559" y1="498.959" x2="111.681" y2="502.5"/>
	<path fill="none" stroke="#E8E8E8" stroke-miterlimit="10" d="M119.434,488.75c0,0-5.625-2.083-8.875-0.542"/>
	<g>
		<path fill="#E8E8E8" d="M145.649,496.56c0,0-0.018,0.251-0.049,0.691c-0.011,0.22-0.031,0.484-0.058,0.784
			c-0.018,0.3-0.037,0.639-0.059,1.009c-0.032,0.736-0.088,1.586-0.069,2.485c-0.01,0.461,0.007,0.889,0.039,1.392
			c0.033,0.48,0.082,0.962,0.138,1.458c0.249,1.967,0.606,3.932,0.84,5.41c0.257,1.475,0.428,2.459,0.428,2.459l-0.097,0.023
			c0,0-0.269-0.963-0.672-2.407c-0.402-1.446-0.878-3.386-1.287-5.355c-0.103-0.489-0.204-0.994-0.285-1.489
			c-0.084-0.473-0.131-1.01-0.144-1.484c0.005-0.973,0.138-1.864,0.319-2.608c0.19-0.743,0.386-1.347,0.566-1.757
			c0.168-0.412,0.295-0.637,0.295-0.637L145.649,496.56z"/>
	</g>
	<line fill="none" stroke="#E8E8E8" stroke-miterlimit="10" x1="145.476" y1="495.841" x2="140.32" y2="495.841"/>
	<g>
		<path fill="#E8E8E8" d="M175.971,508.525c-1.274,0.254-2.542,0.077-3.775-0.154c-1.227-0.264-2.415-0.664-3.564-1.137
			c-0.563-0.257-1.13-0.512-1.68-0.792l-0.413-0.212l-0.102-0.055l-0.217-0.146l-0.184-0.128c-0.243-0.172-0.494-0.335-0.73-0.516
			c-0.503-0.488-1.161-1.116-1.485-1.671c-0.381-0.566-0.73-1.143-0.976-1.747c-0.295-0.591-0.496-1.198-0.711-1.797
			c-0.236-0.595-0.368-1.206-0.554-1.805c-0.314-1.207-0.571-2.412-0.759-3.622c-0.19-1.209-0.331-2.419-0.427-3.629
			c-0.089-1.214-0.163-2.411-0.141-3.646l0.026-1.423l1.05,0.836c2.134,1.698,4.285,3.371,6.398,5.098l-0.171,0.246
			c-2.355-1.379-4.674-2.811-7.009-4.219l1.076-0.587c0.266,2.311,0.668,4.651,1.253,6.897c0.293,1.125,0.635,2.229,1.042,3.295
			c0.23,0.517,0.412,1.063,0.677,1.551c0.252,0.497,0.5,0.996,0.806,1.437c0.15,0.223,0.28,0.464,0.434,0.674
			c0.159,0.205,0.324,0.404,0.471,0.614c0.148,0.233,0.304,0.381,0.446,0.522c0.148,0.157,0.246,0.314,0.422,0.489
			c0.239,0.178,0.463,0.375,0.695,0.563l0.173,0.142l0.043,0.036l0.022,0.018l0.011,0.009c-0.245-0.166-0.065-0.044-0.118-0.08
			l0.006,0.004l0.09,0.058l0.358,0.241c0.47,0.336,0.954,0.644,1.437,0.959c0.961,0.635,1.938,1.243,2.942,1.821
			c1.003,0.571,2.033,1.143,3.144,1.557L175.971,508.525z"/>
	</g>
	<line fill="none" stroke="#E8E8E8" stroke-miterlimit="10" x1="162.607" y1="497.875" x2="170.186" y2="500.042"/>
	<line fill="none" stroke="#E8E8E8" stroke-miterlimit="10" x1="158.687" y1="506.489" x2="161.738" y2="518.042"/>
</g>
<g id="blood_x5F_l">
	<path fill="none" stroke="#E8E8E8" stroke-width="10" stroke-miterlimit="10" d="M274.682,422.038c0,0,9.098,3.545,15.098,14.878
		c6,11.333,4.964,35.084,4.964,35.084"/>
	<g>
		<path fill="#E8E8E8" d="M268.525,419.019c0,0,0.846-0.46,2.327-1.266c0.725-0.41,1.606-0.876,2.572-1.46
			c0.979-0.549,2.039-1.225,3.139-1.97c1.103-0.739,2.223-1.595,3.254-2.556c1.053-0.945,1.949-2.027,2.693-3.164
			c0.694-1.156,1.258-2.432,1.343-3.937l0.033-0.565c-0.005-0.065,0.009,0.069,0.007,0.047l-0.001-0.022l-0.002-0.044l-0.004-0.088
			l-0.009-0.176l-0.017-0.353c-0.012-0.503-0.072-0.861-0.114-1.274c-0.103-0.834-0.279-1.725-0.479-2.593
			c-0.848-3.502-2.213-6.987-3.603-10.202c-1.423-3.207-2.878-6.174-4.204-8.678c-2.67-5.001-4.661-8.238-4.661-8.238l0.406-0.292
			c0,0,2.468,2.914,5.73,7.633c1.629,2.36,3.492,5.152,5.271,8.3c1.791,3.142,3.529,6.621,4.791,10.417
			c0.306,0.96,0.588,1.911,0.821,2.938c0.108,0.52,0.234,1.088,0.302,1.523l0.06,0.348l0.03,0.174l0.015,0.087l0.008,0.043
			l0.013,0.112l0.076,0.838c0.212,2.239-0.29,4.624-1.335,6.557c-1.048,1.943-2.551,3.407-4.05,4.484
			c-1.514,1.08-3.045,1.831-4.477,2.381c-1.436,0.549-2.789,0.876-3.978,1.13c-1.203,0.217-2.249,0.349-3.121,0.392
			c-1.737,0.103-2.742-0.033-2.742-0.033L268.525,419.019z"/>
	</g>
	<g>
		<path fill="#E8E8E8" d="M284.906,398.805c0,0-0.006-0.592,0.21-1.551c0.107-0.482,0.272-1.054,0.532-1.691
			c0.25-0.645,0.606-1.345,1.113-2.08c0.504-0.736,1.183-1.499,2.186-2.192c0.519-0.332,1.126-0.649,1.86-0.848
			c0.736-0.194,1.611-0.238,2.453-0.056c0.853,0.167,1.624,0.573,2.222,1.048c0.314,0.238,0.569,0.494,0.815,0.755l0.092,0.099
			l0.045,0.05c0.021,0.021-0.142-0.135-0.069-0.065l0.008,0.009l0.015,0.018l0.12,0.143c0.061,0.07,0.031,0.042,0.024,0.046
			c-0.007,0.001-0.03-0.001-0.027,0.011c0.073,0.219,0.461,0.497,1.192,0.444c0.702-0.03,1.551-0.282,2.373-0.612
			c0.824-0.339,1.655-0.744,2.451-1.176c1.586-0.879,3.046-1.844,4.272-2.708c2.458-1.735,4.031-3.033,4.031-3.033l0.37,0.336
			c0,0-0.3,0.418-0.826,1.15c-0.534,0.726-1.33,1.735-2.35,2.905c-1.029,1.162-2.273,2.493-3.795,3.788
			c-0.759,0.651-1.585,1.301-2.529,1.877c-0.945,0.577-1.98,1.125-3.272,1.459c-0.646,0.162-1.363,0.273-2.167,0.23
			c-0.795-0.038-1.678-0.28-2.442-0.726c-0.101-0.058-0.219-0.14-0.325-0.213l-0.264-0.189l-0.153-0.107l-0.019-0.013l-0.01-0.007
			c0.067,0.065-0.102-0.096-0.087-0.08l-0.023-0.012l-0.045-0.025c-0.116-0.075-0.225-0.148-0.321-0.177
			c-0.194-0.089-0.309-0.115-0.39-0.127c-0.084-0.012-0.16-0.049-0.317-0.052c-0.157,0.001-0.382,0.023-0.634,0.092
			c-0.517,0.154-1.117,0.447-1.687,0.779c-1.146,0.673-2.187,1.419-2.949,1.926c-0.759,0.518-1.243,0.819-1.243,0.819
			L284.906,398.805z"/>
	</g>
	<g>
		<path fill="#E8E8E8" d="M280.307,413.543c0.326-0.877,0.55-1.799,0.65-2.723c0.049-0.462,0.075-0.927,0.043-1.385
			c-0.009-0.23-0.027-0.458-0.072-0.681c-0.029-0.226-0.074-0.448-0.146-0.661c-0.052-0.22-0.128-0.43-0.229-0.628
			c-0.079-0.209-0.185-0.401-0.316-0.579c-0.111-0.19-0.242-0.364-0.403-0.514c-0.145-0.162-0.293-0.321-0.48-0.44l-1.136-0.823
			c-0.377-0.326-0.776-0.651-1.105-1c-1.388-1.373-2.517-2.938-3.597-4.522c-1.074-1.594-2.057-3.224-2.982-4.925l0.808,0.393
			c-0.646,0.131-1.234,0.2-1.859,0.235c-0.618,0.027-1.24,0.035-1.87-0.032c-0.628-0.06-1.263-0.171-1.889-0.377
			c-0.631-0.181-1.239-0.503-1.816-0.882c-0.271-0.215-0.553-0.43-0.792-0.687c-0.232-0.267-0.479-0.544-0.634-0.76
			c-0.357-0.481-0.677-0.886-1.044-1.332c-0.725-0.863-1.48-1.704-2.258-2.519l-0.591-0.6l-0.644-0.625
			c-0.486-0.54-0.806-1.027-1.148-1.559c-0.326-0.525-0.619-1.063-0.873-1.614c-0.26-0.549-0.503-1.102-0.707-1.667
			c-0.414-1.129-0.753-2.275-0.989-3.439c-0.135-0.578-0.207-1.169-0.302-1.751c-0.091-0.583-0.141-1.173-0.192-1.758l0.196-0.04
			c0.408,1.102,0.766,2.204,1.226,3.265c0.205,0.538,0.448,1.06,0.678,1.583c0.241,0.518,0.477,1.037,0.75,1.533
			c0.514,1.008,1.104,1.968,1.743,2.859c0.315,0.429,0.686,0.886,1.005,1.19l0.303,0.253l0.34,0.304l0.661,0.62
			c0.863,0.839,1.663,1.74,2.393,2.696c0.356,0.468,0.746,0.987,1.056,1.462c0.169,0.27,0.311,0.428,0.443,0.615
			c0.143,0.18,0.324,0.33,0.492,0.492c0.38,0.28,0.79,0.552,1.277,0.715c0.471,0.187,0.986,0.308,1.514,0.388
			c0.527,0.088,1.074,0.108,1.62,0.11c0.54-0.002,1.115-0.047,1.615-0.123l0.575-0.088l0.233,0.481
			c0.808,1.67,1.707,3.336,2.678,4.934c0.481,0.805,0.998,1.583,1.528,2.352c0.546,0.753,1.099,1.506,1.717,2.189
			c0.3,0.361,0.623,0.653,0.94,0.972l1.111,0.918c0.206,0.154,0.371,0.351,0.53,0.553c0.174,0.189,0.315,0.402,0.431,0.63
			c0.137,0.216,0.244,0.445,0.321,0.687c0.099,0.233,0.168,0.474,0.212,0.72c0.064,0.242,0.098,0.487,0.114,0.734
			c0.033,0.245,0.037,0.49,0.031,0.735c0.003,0.489-0.055,0.973-0.136,1.448c-0.165,0.952-0.451,1.871-0.842,2.748L280.307,413.543z
			"/>
	</g>
	<g>
		<path fill="#E8E8E8" d="M317.273,393.515c-0.273-0.133-0.538-0.275-0.797-0.423c-0.259-0.143-0.52-0.232-0.757-0.357
			c-0.242-0.113-0.515-0.189-0.755-0.295c-0.249-0.095-0.515-0.14-0.758-0.226c-0.508-0.119-1.014-0.203-1.528-0.249
			c-0.519-0.026-1.037-0.053-1.573-0.049c-1.067-0.005-2.2-0.01-3.347,0.091c-1.149,0.085-2.317,0.208-3.497,0.264l-0.836,0.04
			l0.133-0.759c0.47-2.679,0.994-5.352,1.543-8.022l0.198,0.025c-0.12,2.723-0.266,5.442-0.465,8.155l-0.703-0.719
			c1.126-0.182,2.25-0.41,3.398-0.643c1.148-0.213,2.323-0.505,3.576-0.515c0.624-0.002,1.263,0.064,1.891,0.207
			c0.313,0.082,0.624,0.18,0.931,0.275c0.3,0.131,0.599,0.258,0.883,0.409c0.568,0.317,1.08,0.699,1.525,1.154
			c0.217,0.236,0.437,0.474,0.609,0.718c0.162,0.25,0.318,0.507,0.466,0.773L317.273,393.515z"/>
	</g>
	<path fill="none" stroke="#E8E8E8" stroke-miterlimit="10" d="M275.276,401.115c-1.083-9.333-1.33-10.782-2.83-15.532"/>
	<path fill="none" stroke="#E8E8E8" stroke-miterlimit="10" d="M278.02,404.371c0,0-0.119,1.962-4.159-0.413
		c-4.04-2.375-8.165-3.792-8.165-3.792"/>
	<line fill="none" stroke="#E8E8E8" stroke-miterlimit="10" x1="271.858" y1="394.333" x2="271.858" y2="390.083"/>
	<line fill="none" stroke="#E8E8E8" stroke-miterlimit="10" x1="271.858" y1="392.208" x2="266.446" y2="388.708"/>
	<g>
		<path fill="#E8E8E8" d="M283.796,384.089c0.022,0.28,0.065,0.557,0.07,0.84c-0.007,0.285,0.008,0.583-0.023,0.868
			c-0.027,0.579-0.131,1.157-0.286,1.727c-0.159,0.57-0.383,1.128-0.673,1.659c-0.141,0.268-0.305,0.526-0.482,0.781
			c-0.091,0.126-0.186,0.249-0.29,0.371c-0.108,0.127-0.198,0.23-0.359,0.379l-0.287,0.265l-0.46-0.121
			c-0.765-0.2-1.457-0.428-2.16-0.702c-0.694-0.276-1.388-0.561-2.054-0.903c-0.673-0.329-1.321-0.709-1.959-1.103
			c-0.625-0.417-1.236-0.854-1.827-1.321c-0.579-0.482-1.157-0.965-1.682-1.509c-0.547-0.519-1.045-1.088-1.541-1.655
			c-0.458-0.602-0.95-1.175-1.34-1.826l-1.178-1.83c-0.413-0.579-0.805-1.104-1.272-1.639c-0.461-0.532-0.938-1.053-1.453-1.542
			c-0.49-0.512-1.045-0.962-1.57-1.443c-0.557-0.446-1.089-0.924-1.666-1.35c-2.265-1.754-4.722-3.295-7.287-4.61l0.08-0.183
			c2.681,1.123,5.267,2.476,7.713,4.084c0.618,0.392,1.209,0.826,1.804,1.256c0.57,0.463,1.168,0.895,1.71,1.397
			c0.564,0.477,1.096,0.993,1.615,1.527c0.517,0.523,1.03,1.135,1.487,1.707l1.276,1.751c0.385,0.574,0.875,1.074,1.328,1.593
			c0.494,0.488,0.976,0.984,1.52,1.419c0.517,0.461,1.095,0.856,1.653,1.266c1.125,0.816,2.333,1.514,3.54,2.216
			c0.611,0.337,1.224,0.678,1.852,0.988c0.625,0.299,1.277,0.611,1.888,0.86l-0.747,0.144c0.049-0.032,0.159-0.121,0.24-0.197
			c0.089-0.077,0.173-0.167,0.26-0.252c0.172-0.176,0.342-0.362,0.494-0.564c0.309-0.401,0.586-0.837,0.833-1.299
			c0.225-0.47,0.456-0.953,0.619-1.468c0.174-0.503,0.29-1.039,0.415-1.594L283.796,384.089z"/>
	</g>
	<path fill="none" stroke="#E8E8E8" stroke-miterlimit="10" d="M301.877,395.208c-1.375,8.125,0,15.75,0,15.75"/>
	<path fill="none" stroke="#E8E8E8" stroke-miterlimit="10" d="M291.571,393.349c0,0,1.571,0.526,1.598,6.817"/>
	<g>
		<path fill="#E8E8E8" d="M288.924,392.178c0,0-0.131-0.422-0.187-1.144c-0.056-0.721-0.062-1.754,0.186-2.955
			c0.248-1.192,0.693-2.606,1.71-3.869c0.508-0.627,1.111-1.231,1.794-1.786c0.342-0.277,0.709-0.54,1.109-0.766
			c0.199-0.115,0.403-0.221,0.619-0.312l0.159-0.071l0.02-0.009c-0.03,0.016,0.081-0.042-0.065,0.035l0.008-0.004l0.032-0.016
			l0.064-0.032l0.257-0.129c0.1-0.072,0.291-0.202,0.421-0.398c0.122-0.2,0.244-0.436,0.306-0.726
			c0.141-0.571,0.123-1.255,0.048-1.911c-0.157-1.329-0.536-2.603-0.906-3.667c-0.767-2.132-1.456-3.506-1.456-3.506l0.255-0.158
			c0,0,0.234,0.31,0.616,0.87c0.383,0.559,0.902,1.377,1.457,2.408c0.547,1.035,1.167,2.267,1.569,3.757
			c0.186,0.749,0.343,1.562,0.26,2.485c-0.082,0.923-0.459,1.973-1.503,2.703l-0.526,0.334c-0.127,0.078-0.249,0.17-0.368,0.267
			c-0.239,0.189-0.461,0.41-0.665,0.651c-0.408,0.485-0.726,1.055-1.009,1.623c-0.553,1.143-1.191,2.198-1.756,3.148
			c-0.56,0.948-1.094,1.757-1.487,2.331c-0.392,0.574-0.667,0.904-0.667,0.904L288.924,392.178z"/>
	</g>
	<g>
		<path fill="#E8E8E8" d="M292.986,396.793c0,0-0.193,0.488-0.487,1.134c-0.152,0.321-0.308,0.695-0.509,1.074
			c-0.195,0.38-0.449,0.773-0.605,1.211c-0.174,0.431-0.288,0.885-0.361,1.319c-0.053,0.216-0.049,0.429-0.078,0.632
			c-0.031,0.203-0.032,0.396-0.03,0.576c-0.015,0.361,0.02,0.661,0.044,0.872c0.022,0.212,0.034,0.334,0.034,0.334l-0.097,0.026
			c0,0-0.037-0.118-0.103-0.324c-0.068-0.207-0.167-0.503-0.228-0.875c-0.04-0.185-0.08-0.387-0.092-0.604
			c-0.018-0.217-0.045-0.448-0.029-0.686c0.007-0.477,0.055-0.992,0.171-1.494c0.043-0.256,0.119-0.502,0.186-0.75
			c0.058-0.252,0.17-0.477,0.257-0.706c0.23-0.429,0.503-0.796,0.785-1.066c0.546-0.558,1.07-0.744,1.07-0.744L292.986,396.793z"/>
	</g>
	<g>
		<path fill="#E8E8E8" d="M301.372,405.671c0,0,0.542,0.193,1.16,0.714c0.314,0.255,0.647,0.587,0.949,0.986
			c0.284,0.413,0.534,0.888,0.777,1.361c0.495,0.941,0.899,1.924,1.105,2.688c0.115,0.378,0.187,0.698,0.234,0.923
			c0.05,0.223,0.078,0.351,0.078,0.351l-0.096,0.028c0,0-0.052-0.119-0.143-0.327c-0.088-0.209-0.218-0.504-0.399-0.846
			c-0.359-0.684-0.856-1.577-1.46-2.396c-0.293-0.415-0.643-0.788-0.932-1.16c-0.282-0.378-0.517-0.754-0.716-1.083
			c-0.399-0.657-0.624-1.165-0.624-1.165L301.372,405.671z"/>
	</g>
	<g>
		<path fill="#E8E8E8" d="M283.02,431.606c0,0,0.88-0.866,2.731-1.899c0.929-0.504,2.096-1.073,3.541-1.52
			c0.719-0.241,1.512-0.424,2.373-0.566c0.861-0.149,1.797-0.241,2.804-0.212c1.004,0.033,2.09,0.154,3.2,0.502
			c1.142,0.379,1.746,0.604,2.855,1.058c2.097,0.873,4.15,2.493,5.641,4.321c1.531,1.834,2.777,3.834,3.927,5.878
			c1.109,2.062,2.109,4.187,2.992,6.342l0.319,0.763c0.116,0.26,0.237,0.536,0.339,0.723c0.197,0.413,0.48,0.867,0.75,1.277
			c0.564,0.829,1.247,1.575,2.006,2.239c1.532,1.323,3.397,2.258,5.313,2.92c1.921,0.662,3.9,1.037,5.797,1.261
			c1.901,0.221,3.728,0.282,5.416,0.265c3.38-0.046,6.204-0.383,8.169-0.659c1.966-0.286,3.072-0.537,3.072-0.537l0.131,0.482
			c0,0-1.098,0.356-3.055,0.823c-1.956,0.469-4.781,1.044-8.244,1.351c-1.73,0.152-3.62,0.235-5.633,0.158
			c-2.01-0.082-4.149-0.312-6.332-0.879c-2.178-0.558-4.409-1.495-6.399-2.983c-0.985-0.749-1.906-1.628-2.692-2.63
			c-0.391-0.514-0.748-1.005-1.088-1.599c-0.186-0.306-0.308-0.547-0.442-0.799l-0.42-0.781c-1.034-1.988-2.152-3.913-3.335-5.717
			c-1.198-1.784-2.517-3.417-3.938-4.686c-0.348-0.327-0.719-0.596-1.069-0.886c-0.374-0.242-0.716-0.526-1.083-0.732
			c-0.723-0.452-1.425-0.814-2.208-1.134c-0.389-0.172-0.79-0.332-1.273-0.522c-0.44-0.175-0.925-0.402-1.186-0.52
			c-0.635-0.257-1.313-0.472-2.011-0.615c-0.696-0.145-1.406-0.246-2.102-0.312c-0.697-0.059-1.376-0.066-2.03-0.087
			c-1.303-0.004-2.486,0.052-3.469,0.119c-1.971,0.138-3.163,0.25-3.163,0.25L283.02,431.606z"/>
	</g>
	<g>
		<path fill="#E8E8E8" d="M277.473,426.308c0,0,0.021,0.39,0.008,1.032c-0.007,0.645-0.071,1.537-0.177,2.579
			c-0.044,0.524-0.135,1.075-0.212,1.66c-0.085,0.583-0.2,1.187-0.33,1.809c-0.163,0.616-0.326,1.25-0.53,1.893
			c-0.198,0.644-0.338,1.309-0.487,1.977c-0.098,0.67-0.225,1.343-0.297,2.009c-0.043,0.664-0.165,1.325-0.174,1.961
			c-0.01,0.635-0.08,1.263-0.04,1.846c0.029,0.584,0.009,1.152,0.074,1.661c0.064,0.514,0.123,0.985,0.176,1.403
			c0.061,0.418,0.171,0.768,0.226,1.07c0.132,0.6,0.208,0.943,0.208,0.943l-0.277,0.116c0,0-0.157-0.321-0.432-0.883
			c-0.132-0.285-0.324-0.625-0.471-1.038c-0.142-0.418-0.303-0.889-0.478-1.404c-0.177-0.518-0.277-1.097-0.433-1.708
			c-0.173-0.611-0.201-1.268-0.314-1.947c-0.107-0.681-0.115-1.385-0.16-2.106c-0.025-0.719,0.004-1.447,0.007-2.181
			c0.092-1.451,0.063-2.942,0.351-4.283c0.282-1.342,0.795-2.527,1.292-3.507c0.526-0.973,1.038-1.745,1.473-2.25
			c0.418-0.512,0.721-0.768,0.721-0.768L277.473,426.308z"/>
	</g>
	<path fill="none" stroke="#E8E8E8" stroke-miterlimit="10" d="M282.103,409.981c0,0,2.996,3.49,7.092,2.615
		c4.097-0.875,6.681-2.615,6.681-2.615"/>
	<line fill="none" stroke="#E8E8E8" stroke-miterlimit="10" x1="261.826" y1="390.083" x2="261.826" y2="381.458"/>
	<line fill="none" stroke="#E8E8E8" stroke-miterlimit="10" x1="265.696" y1="394.333" x2="258.696" y2="395.583"/>
	<g>
		<path fill="#E8E8E8" d="M296.123,453.957c0,0,0.409,0.731,1.138,1.939c0.17,0.304,0.382,0.631,0.609,0.984
			c0.209,0.358,0.444,0.739,0.719,1.131c0.505,0.801,1.114,1.671,1.792,2.578c0.669,0.913,1.427,1.855,2.254,2.798
			c0.835,0.94,1.739,1.876,2.706,2.804c0.498,0.445,0.971,0.941,1.492,1.395c0.546,0.42,1.06,0.907,1.623,1.347
			c0.596,0.399,1.197,0.8,1.8,1.204c0.635,0.357,1.314,0.643,1.975,0.977c0.328,0.175,0.676,0.301,1.033,0.409l1.059,0.354
			l0.53,0.178l0.265,0.089l0.132,0.045l0.066,0.022l0.033,0.011l0.017,0.006c-0.116-0.022-0.022-0.004-0.043-0.008l1.163,0.27
			c1.584,0.398,2.979,0.631,4.391,0.849c0.717,0.066,1.422,0.131,2.111,0.195c0.69,0.008,1.365,0.017,2.022,0.025
			c0.648-0.053,1.289-0.082,1.903-0.148c0.598-0.115,1.202-0.174,1.751-0.324c1.101-0.283,2.108-0.621,2.921-1.069
			c0.837-0.414,1.492-0.903,2.022-1.321c0.505-0.442,0.882-0.827,1.098-1.114c0.23-0.283,0.317-0.436,0.317-0.436l0.455,0.207
			c0,0-0.079,0.216-0.27,0.558c-0.183,0.354-0.506,0.831-0.972,1.408c-0.483,0.554-1.119,1.206-1.97,1.794
			c-0.828,0.63-1.872,1.169-3.049,1.666c-0.588,0.257-1.228,0.422-1.883,0.649c-0.663,0.175-1.358,0.314-2.075,0.478
			c-0.723,0.091-1.465,0.185-2.224,0.28c-0.761,0.028-1.539,0.056-2.33,0.085c-1.593-0.034-3.304-0.104-4.826-0.339l-1.185-0.147
			l-1.314-0.284l-1.264-0.281c-0.425-0.085-0.846-0.19-1.253-0.349c-0.828-0.287-1.655-0.573-2.48-0.859
			c-0.802-0.368-1.6-0.734-2.392-1.098c-0.765-0.42-1.507-0.88-2.236-1.345c-0.726-0.47-1.341-1.065-1.992-1.595
			c-1.208-1.159-2.238-2.417-3.036-3.709c-0.809-1.283-1.435-2.568-1.889-3.79c-0.258-0.596-0.412-1.207-0.577-1.772
			c-0.168-0.564-0.305-1.104-0.392-1.623c-0.207-1.025-0.3-1.932-0.328-2.682c-0.042-0.747-0.011-1.336,0.019-1.742
			c0.031-0.409,0.071-0.615,0.071-0.615L296.123,453.957z"/>
	</g>
	<g>
		<path fill="#E8E8E8" d="M299.743,471.825c0,0-0.038,0.149-0.108,0.428c-0.064,0.336-0.17,0.879-0.219,1.61
			c-0.071,0.727-0.072,1.631-0.023,2.674c0.105,1.03,0.221,2.219,0.59,3.453c0.306,1.26,0.865,2.549,1.556,3.89
			c0.775,1.286,1.663,2.656,2.893,3.864c0.302,0.305,0.589,0.635,0.912,0.937c0.342,0.286,0.687,0.573,1.034,0.863l0.524,0.441
			l0.132,0.111l0.066,0.056l0.033,0.028l0.016,0.014c0.097,0.06-0.114-0.066-0.084-0.048l0.322,0.22
			c0.42,0.284,0.901,0.628,1.2,0.785l0.511,0.311l0.593,0.298c0.394,0.214,0.818,0.376,1.24,0.553
			c0.852,0.336,1.752,0.613,2.696,0.827c1.882,0.444,3.92,0.657,6.032,0.883c2.104,0.242,4.324,0.48,6.454,1.266
			c2.136,0.736,4.018,2.185,5.201,3.814c1.196,1.64,1.892,3.352,2.38,4.927c0.931,3.17,1.188,5.845,1.363,7.708
			c0.088,0.931,0.109,1.667,0.146,2.165c0.03,0.499,0.046,0.764,0.046,0.764s-0.055-0.261-0.157-0.75
			c-0.109-0.488-0.237-1.208-0.459-2.111c-0.437-1.797-1.094-4.398-2.396-7.212c-0.662-1.391-1.531-2.816-2.685-3.984
			c-1.166-1.16-2.622-1.96-4.334-2.287c-1.703-0.36-3.644-0.309-5.71-0.236c-2.069,0.081-4.292,0.189-6.619-0.002
			c-1.16-0.088-2.344-0.262-3.52-0.532c-0.587-0.144-1.178-0.281-1.753-0.483l-0.872-0.289l-0.905-0.372
			c-0.66-0.266-1.061-0.482-1.542-0.711l-0.35-0.17l-0.471-0.284l-0.737-0.448c-0.491-0.302-0.979-0.602-1.464-0.9
			c-0.471-0.323-0.916-0.687-1.37-1.029c-1.836-1.35-3.375-3.018-4.731-4.689c-1.28-1.73-2.365-3.504-3.104-5.262
			c-0.804-1.737-1.264-3.433-1.639-4.944c-0.319-1.522-0.514-2.872-0.584-4.006c-0.092-1.129-0.073-2.047-0.05-2.703
			c0.005-0.3,0.049-0.683,0.064-0.868c0.013-0.145,0.02-0.219,0.02-0.219L299.743,471.825z"/>
	</g>
	<path fill="none" stroke="#E8E8E8" stroke-miterlimit="10" d="M297.5,480c0,0,1.167-4.167,6.333-4
		c5.167,0.167,11.103,2.833,11.103,2.833"/>
	<g>
		<path fill="#E8E8E8" d="M293.618,480.016c0,0,0.151,0.73,0.295,1.988c0.073,0.629,0.16,1.391,0.218,2.261
			c0.074,0.87,0.118,1.848,0.165,2.913c0.028,1.064,0.073,2.216,0.041,3.429c-0.019,1.214-0.121,2.492-0.241,3.816
			c-0.063,0.662-0.106,1.335-0.148,2.018c-0.05,0.606-0.022,1.362-0.034,2.045c0.015,0.687,0.063,1.351,0.091,2.037
			c0.059,0.695,0.119,1.393,0.178,2.09c0.286,2.799,0.72,5.602,1.179,8.223c0.451,2.623,0.906,5.072,1.34,7.162
			c0.865,4.182,1.51,6.96,1.51,6.96l-0.288,0.083c0,0-0.944-2.698-2.144-6.814c-0.604-2.057-1.288-4.465-1.936-7.072
			c-0.636-2.61-1.263-5.411-1.745-8.261c-0.109-0.717-0.218-1.435-0.327-2.149c-0.081-0.73-0.179-1.473-0.241-2.186
			c-0.047-0.714-0.093-1.423-0.139-2.123c-0.038-0.693-0.076-1.378-0.114-2.051c-0.089-1.348-0.116-2.653-0.052-3.886
			c0.053-1.234,0.205-2.396,0.347-3.467c0.164-1.069,0.326-2.048,0.526-2.91c0.178-0.863,0.387-1.61,0.563-2.224
			c0.355-1.227,0.66-1.914,0.66-1.914L293.618,480.016z"/>
	</g>
	<g>
		<path fill="#E8E8E8" d="M290.617,459.928c0,0-0.069,0.361-0.244,0.936c-0.169,0.581-0.465,1.362-0.859,2.26
			c-0.399,0.895-0.908,1.895-1.559,2.891c-0.672,0.981-1.56,1.923-2.267,2.983c-0.729,1.047-1.387,2.132-2.016,3.151
			c-0.294,0.52-0.578,1.022-0.848,1.499c-0.248,0.489-0.482,0.951-0.699,1.377c-0.206,0.432-0.358,0.841-0.514,1.201
			c-0.162,0.359-0.254,0.683-0.347,0.949c-0.18,0.537-0.283,0.844-0.283,0.844l-0.297-0.042c0,0,0.022-0.33,0.059-0.908
			c0.018-0.291,0.035-0.65,0.119-1.044c0.075-0.396,0.138-0.856,0.249-1.343c0.123-0.486,0.257-1.012,0.398-1.568
			c0.17-0.545,0.356-1.123,0.564-1.713c0.227-0.579,0.437-1.197,0.707-1.792c0.27-0.595,0.526-1.214,0.824-1.806
			c0.582-1.194,1.069-2.455,1.738-3.505c0.681-1.041,1.481-1.898,2.218-2.585c0.753-0.676,1.43-1.193,1.961-1.507
			c0.519-0.324,0.861-0.465,0.861-0.465L290.617,459.928z"/>
	</g>
	<g>
		<path fill="#E8E8E8" d="M303.48,490.301c0,0,0.97,1.956,2.425,4.89c0.744,1.417,1.6,3.074,2.693,4.594
			c0.537,0.76,1.129,1.49,1.758,2.068c0.317,0.283,0.638,0.544,0.968,0.719c0.017,0.013,0.135,0.073,0.07,0.049l0.185,0.088
			l0.37,0.178c0.271,0.14,0.441,0.19,0.633,0.267c0.811,0.304,1.636,0.391,2.599,0.199c0.956-0.172,2.255-0.501,3.462-0.283
			c1.196,0.193,2.202,0.659,3.06,1.156c0.837,0.489,1.577,0.983,2.271,1.466c1.371,0.954,2.447,1.847,3.137,2.541
			c0.345,0.347,0.599,0.637,0.765,0.844c0.166,0.206,0.246,0.334,0.246,0.334l-0.243,0.176c0,0-0.083-0.092-0.271-0.256
			c-0.188-0.164-0.477-0.395-0.862-0.665c-0.769-0.541-1.918-1.25-3.374-1.957c-0.714-0.356-1.531-0.718-2.371-1.075
			c-0.816-0.343-1.694-0.593-2.539-0.612c-0.851-0.047-1.637,0.241-2.757,0.576c-0.547,0.169-1.202,0.289-1.858,0.346
			c-0.672,0.028-1.316-0.01-1.989-0.149c-0.335-0.067-0.698-0.144-0.929-0.22l-0.394-0.114l-0.197-0.058
			c-0.192-0.072-0.193-0.082-0.298-0.127c-0.662-0.278-1.226-0.665-1.721-1.084c-0.997-0.838-1.694-1.817-2.265-2.775
			c-0.563-0.967-0.985-1.932-1.339-2.851c-0.328-0.931-0.618-1.804-0.808-2.633c-0.818-3.292-0.72-5.568-0.72-5.568L303.48,490.301z
			"/>
	</g>
	<path fill="none" stroke="#E8E8E8" stroke-miterlimit="10" d="M306.218,491c0,0-0.932-2.167,2.925-4s9.523-1,9.523-1"/>
	<line fill="none" stroke="#E8E8E8" stroke-miterlimit="10" x1="311.043" y1="486.333" x2="314.936" y2="481.667"/>
	<line fill="none" stroke="#E8E8E8" stroke-miterlimit="10" x1="305.167" y1="475.995" x2="307.833" y2="480"/>
	<path fill="none" stroke="#E8E8E8" stroke-miterlimit="10" d="M314.106,495.731c0,0,2.894-5.587,7.727-7.326"/>
	<line fill="none" stroke="#E8E8E8" stroke-miterlimit="10" x1="317.77" y1="491" x2="325" y2="490.333"/>
	<g>
		<path fill="#E8E8E8" d="M306.116,468.733c0,0,1.315-0.479,3.199-1.036c0.924-0.285,2.001-0.618,3.156-0.974
			c0.57-0.165,1.16-0.331,1.741-0.534c0.59-0.19,1.15-0.459,1.688-0.756l0.907-0.494c0.328-0.151,0.687-0.303,1.022-0.432
			c0.668-0.225,1.33-0.398,1.976-0.506c1.29-0.23,2.498-0.241,3.518-0.197c2.045,0.09,3.36,0.431,3.36,0.431l-0.031,0.198
			c0,0-1.339-0.1-3.311,0.084c-0.983,0.099-2.119,0.285-3.276,0.615c-0.579,0.165-1.152,0.389-1.709,0.648
			c-0.265,0.141-0.506,0.274-0.77,0.428l-0.798,0.558c-0.581,0.435-1.198,0.813-1.819,1.139c-0.618,0.341-1.253,0.61-1.881,0.811
			c-0.63,0.198-1.25,0.337-1.844,0.412c-0.591,0.092-1.154,0.138-1.673,0.151c-2.08,0.079-3.448-0.343-3.448-0.343L306.116,468.733z
			"/>
	</g>
	<g>
		<path fill="#E8E8E8" d="M297.336,430.422c0,0,1.585-1.169,3.962-2.923c1.161-0.881,2.489-1.915,3.844-3.069
			c0.685-0.567,1.387-1.159,2.047-1.807c0.348-0.312,0.655-0.659,0.958-1.013c0.324-0.342,0.587-0.722,0.859-1.1
			c0.293-0.369,0.492-0.781,0.721-1.181c0.24-0.384,0.402-0.834,0.611-1.283c0.38-0.878,0.685-1.733,0.969-2.606
			c0.272-0.867,0.491-1.719,0.687-2.532c0.188-0.815,0.345-1.593,0.46-2.317c0.464-2.899,0.436-4.877,0.436-4.877l0.199-0.015
			c0,0,0.271,1.98,0.073,4.971c-0.046,0.747-0.128,1.555-0.239,2.409c-0.114,0.854-0.29,1.746-0.498,2.666
			c-0.219,0.907-0.487,1.878-0.81,2.811c-0.3,0.887-0.725,1.934-1.258,2.809c-0.265,0.45-0.529,0.905-0.848,1.31
			c-0.303,0.419-0.605,0.84-0.943,1.218c-0.642,0.793-1.35,1.5-2.077,2.126c-0.73,0.625-1.48,1.166-2.221,1.628
			c-0.734,0.473-1.454,0.87-2.129,1.213c-2.708,1.371-4.722,1.745-4.722,1.745L297.336,430.422z"/>
	</g>
	<g>
		<line fill="#E8E8E8" x1="305.2" y1="425.742" x2="304.196" y2="417.333"/>
		<path fill="#E8E8E8" d="M305.151,425.748c0,0-0.283-0.499-0.504-1.272c-0.114-0.386-0.22-0.84-0.281-1.332
			c-0.045-0.494-0.038-1.028-0.064-1.558c-0.122-2.117-0.155-4.246-0.155-4.246l0.099-0.012c0,0,0.47,2.076,0.85,4.163
			c0.099,0.521,0.231,1.038,0.304,1.529c0.057,0.493,0.061,0.959,0.041,1.361c-0.033,0.803-0.191,1.355-0.191,1.355L305.151,425.748
			z"/>
	</g>
	<g>
		<path fill="#E8E8E8" d="M312.296,413.562c0,0,0.021-0.183,0.031-0.494c-0.004-0.152-0.009-0.337-0.015-0.55
			c-0.014-0.208-0.045-0.437-0.089-0.679c-0.098-0.484-0.287-1.003-0.59-1.509c-0.135-0.263-0.321-0.513-0.519-0.767
			c-0.2-0.256-0.45-0.478-0.707-0.701c-1.117-0.888-2.307-1.684-3.221-2.254c-0.916-0.566-1.575-0.854-1.575-0.854l0.032-0.095
			c0,0,0.704,0.197,1.706,0.638c1.008,0.426,2.288,1.133,3.525,1.914c0.32,0.212,0.633,0.44,0.919,0.705
			c0.289,0.26,0.539,0.563,0.74,0.887c0.39,0.658,0.524,1.394,0.49,1.988c-0.031,0.599-0.195,1.067-0.354,1.364
			c-0.148,0.301-0.281,0.446-0.281,0.446L312.296,413.562z"/>
	</g>
	<g>
		<path fill="#E8E8E8" d="M279.739,387.048c0,0,0.007-1.323,0.22-3.176c0.036-0.468,0.108-0.965,0.171-1.49
			c0.05-0.529,0.15-1.074,0.231-1.642c0.112-0.563,0.229-1.145,0.347-1.736c0.142-0.591,0.192-1.199,0.287-1.808
			c0.071-0.609,0.095-1.219,0.144-1.823c-0.005-0.599,0.018-1.196-0.009-1.77c-0.052-0.568-0.071-1.129-0.144-1.65
			c-0.087-0.517-0.146-1.018-0.243-1.469c-0.122-0.447-0.233-0.856-0.332-1.219c-0.093-0.369-0.255-0.656-0.344-0.914
			c-0.204-0.509-0.321-0.8-0.321-0.8l0.171-0.103c0,0,0.169,0.27,0.465,0.743c0.138,0.242,0.355,0.518,0.505,0.879
			c0.16,0.36,0.34,0.765,0.536,1.208c0.172,0.452,0.313,0.958,0.487,1.49c0.165,0.534,0.239,1.116,0.37,1.713
			c0.1,0.6,0.152,1.224,0.232,1.861c0.026,0.635,0.076,1.285,0.078,1.933c-0.01,1.292,0.018,2.605-0.176,3.805
			c-0.192,1.2-0.55,2.282-0.906,3.184c-0.721,1.809-1.584,2.853-1.584,2.853L279.739,387.048z"/>
	</g>
	<path fill="none" stroke="#E8E8E8" stroke-miterlimit="10" d="M256.298,383.181c0,0,5.261-9.181,2.398-13.181
		c-2.863-4-0.773-10.833-0.773-10.833"/>
	<path fill="none" stroke="#E8E8E8" stroke-miterlimit="10" d="M257.281,365.963c0,0-5.781-2.296-6.448-3.963"/>
	<line fill="none" stroke="#E8E8E8" stroke-miterlimit="10" x1="258.696" y1="370" x2="260.333" y2="365"/>
	<line fill="none" stroke="#E8E8E8" stroke-miterlimit="10" x1="281.244" y1="378.167" x2="277.335" y2="373.833"/>
	<line fill="none" stroke="#E8E8E8" stroke-miterlimit="10" x1="282.103" y1="374.5" x2="285.125" y2="370"/>
	<line fill="none" stroke="#E8E8E8" stroke-miterlimit="10" x1="268.571" y1="380.667" x2="268.877" y2="373"/>
	<line fill="none" stroke="#E8E8E8" stroke-miterlimit="10" x1="264.108" y1="375.667" x2="264.108" y2="370"/>
	<line fill="none" stroke="#E8E8E8" stroke-miterlimit="10" x1="265.696" y1="377.291" x2="260.333" y2="378.167"/>
	<g>
		<path fill="#E8E8E8" d="M284.704,397.894c0,0-1.465-0.219-3.52-0.56c-1.033-0.157-2.218-0.315-3.468-0.451
			c-0.626-0.086-1.265-0.139-1.922-0.197c-0.651-0.015-1.32-0.01-1.969,0.097c-0.334,0.026-0.647,0.115-0.962,0.202
			c-0.318,0.079-0.637,0.159-0.924,0.305c-0.288,0.14-0.61,0.225-0.87,0.405c-0.269,0.171-0.534,0.339-0.796,0.505
			c-0.529,0.404-1.041,0.795-1.526,1.165c-0.483,0.374-0.94,0.728-1.362,1.054c-0.837,0.661-1.512,1.237-1.961,1.655
			c-0.216,0.208-0.392,0.392-0.45,0.504c-0.007,0.011-0.001,0.036-0.03-0.012c-0.026-0.019-0.034-0.008-0.017-0.009
			c0.023,0.001,0.038-0.002,0.038-0.002l0.068,0.188c0,0-0.027,0.014-0.09,0.024c-0.024,0.004-0.094,0.014-0.163-0.049
			c-0.075-0.104-0.038-0.153-0.031-0.224c0.07-0.201,0.218-0.395,0.411-0.655c0.388-0.508,1-1.168,1.746-1.947
			c0.751-0.778,1.63-1.666,2.624-2.582c0.282-0.224,0.569-0.452,0.859-0.683c0.287-0.241,0.639-0.384,0.964-0.582
			c0.326-0.205,0.682-0.34,1.043-0.472c0.359-0.141,0.721-0.282,1.097-0.355c0.743-0.219,1.501-0.305,2.252-0.404
			c0.747-0.056,1.489-0.079,2.193-0.002c0.703,0.078,1.376,0.202,1.989,0.393c0.621,0.166,1.186,0.381,1.701,0.592
			c2.055,0.867,3.161,1.916,3.161,1.916L284.704,397.894z"/>
	</g>
	<line fill="none" stroke="#E8E8E8" stroke-miterlimit="10" x1="290.702" y1="385.583" x2="288.167" y2="379.708"/>
	<line fill="none" stroke="#E8E8E8" stroke-miterlimit="10" x1="296.331" y1="376.833" x2="300.667" y2="367.5"/>
	<path fill="none" stroke="#E8E8E8" stroke-miterlimit="10" d="M298.499,370.833c0,0-0.832-4.704-4.332-6.852"/>
	<path fill="none" stroke="#E8E8E8" stroke-miterlimit="10" d="M294.811,382.249c0,0-1.957-3.249-5.822-7.749"/>
	<path fill="none" stroke="#E8E8E8" stroke-miterlimit="10" d="M292.701,385.583c0,0,3.299-4.375,7.966-4.062"/>
	<line fill="none" stroke="#E8E8E8" stroke-miterlimit="10" x1="297.377" y1="374.5" x2="305.2" y2="373"/>
	<line fill="none" stroke="#E8E8E8" stroke-miterlimit="10" x1="303.482" y1="393.442" x2="309.129" y2="397.5"/>
	<line fill="none" stroke="#E8E8E8" stroke-miterlimit="10" x1="295.876" y1="393.349" x2="300.667" y2="387.083"/>
	<line fill="none" stroke="#E8E8E8" stroke-miterlimit="10" x1="274.797" y1="435.316" x2="280.833" y2="442.333"/>
	<line fill="none" stroke="#E8E8E8" stroke-miterlimit="10" x1="275.779" y1="430.839" x2="267.539" y2="435.316"/>
	<g>
		<path fill="#E8E8E8" d="M326.627,497.051c0,0,0.134-0.092,0.417-0.223c0.278-0.137,0.707-0.279,1.269-0.407
			c0.282-0.078,0.597-0.105,0.945-0.162c0.347-0.031,0.723-0.037,1.129-0.052c0.804,0.028,1.718,0.114,2.683,0.349
			c0.967,0.225,1.984,0.573,3.015,1.035c0.506,0.242,1.04,0.48,1.55,0.773c0.509,0.295,1.014,0.621,1.534,0.942
			c0.97,0.734,1.988,1.473,2.897,2.357c0.96,0.83,1.824,1.775,2.731,2.675c0.868,0.873,1.738,1.826,2.618,2.655
			c0.867,0.858,1.755,1.672,2.629,2.447c0.881,0.764,1.746,1.489,2.592,2.142c0.416,0.337,0.831,0.649,1.242,0.938
			c0.405,0.299,0.802,0.58,1.195,0.829c0.775,0.518,1.511,0.956,2.184,1.302c0.667,0.36,1.275,0.617,1.781,0.813
			c0.508,0.189,0.918,0.307,1.2,0.364c0.284,0.065,0.428,0.07,0.428,0.07v0.2c0,0-0.662,0.004-1.734-0.314
			c-0.533-0.16-1.178-0.373-1.887-0.686c-0.716-0.299-1.502-0.686-2.333-1.15c-0.422-0.223-0.849-0.477-1.285-0.748
			c-0.443-0.262-0.892-0.546-1.341-0.855c-0.92-0.591-1.831-1.293-2.779-2.012c-0.935-0.734-1.89-1.509-2.833-2.338
			c-0.97-0.813-1.847-1.67-2.804-2.524c-0.939-0.804-1.824-1.671-2.808-2.375c-0.947-0.754-1.922-1.417-2.859-2.065
			c-0.477-0.305-0.952-0.595-1.404-0.903c-0.46-0.292-0.931-0.531-1.372-0.805c-0.906-0.493-1.786-0.909-2.621-1.238
			c-0.416-0.175-0.828-0.28-1.215-0.423c-0.39-0.125-0.77-0.189-1.125-0.293c-0.715-0.137-1.353-0.226-1.884-0.249
			c-1.068-0.036-1.674,0.112-1.674,0.112L326.627,497.051z"/>
	</g>
	<g>
		<path fill="#E8E8E8" d="M307.636,438.69c0,0,0.478,0.048,1.313,0.133c0.406,0.041,0.899,0.091,1.464,0.148
			c0.551,0.049,1.173,0.104,1.851,0.164c0.662,0.036,1.379,0.075,2.137,0.116c0.375-0.012,0.756-0.003,1.144,0.012
			c0.387-0.022,0.778-0.01,1.177-0.011c0.396-0.004,0.796-0.036,1.206-0.027c0.406-0.028,0.817-0.057,1.231-0.086
			c0.412-0.044,0.817-0.138,1.234-0.212c0.411-0.089,0.801-0.244,1.21-0.361c0.797-0.327,1.501-0.665,2.319-1.175
			c0.791-0.482,1.5-0.92,2.214-1.419c0.71-0.481,1.367-0.987,1.985-1.476c0.621-0.486,1.183-0.978,1.691-1.446
			c1.018-0.935,1.779-1.807,2.294-2.43c0.514-0.626,0.758-1.014,0.758-1.014l0.268,0.134c0,0-0.181,0.448-0.587,1.178
			c-0.399,0.734-1.057,1.731-1.947,2.857c-0.446,0.561-0.948,1.158-1.512,1.76c-0.557,0.609-1.183,1.215-1.853,1.818
			c-0.653,0.6-1.41,1.232-2.144,1.783c-0.691,0.547-1.612,1.151-2.504,1.622c-0.465,0.214-0.924,0.465-1.405,0.644
			c-0.485,0.159-0.967,0.352-1.456,0.493c-0.491,0.115-0.982,0.256-1.473,0.337c-0.49,0.067-0.98,0.115-1.46,0.147
			c-0.478-0.014-0.949-0.006-1.407-0.047c-0.454-0.056-0.896-0.117-1.322-0.196c-0.419-0.099-0.827-0.194-1.221-0.287
			c-0.382-0.128-0.752-0.251-1.106-0.37c-1.397-0.524-2.47-1.143-3.173-1.649c-0.707-0.498-1.057-0.866-1.057-0.866L307.636,438.69z
			"/>
	</g>
	<path fill="none" stroke="#E8E8E8" stroke-miterlimit="10" d="M303.482,433.907c0,0,3.585,3.798,1.718,13.112
		c-1.867,9.314,5.808,14.981,5.808,14.981"/>
	<path fill="none" stroke="#E8E8E8" stroke-miterlimit="10" d="M313.728,440.625c0,0,4.176,0.053,6.557-9.786
		c2.381-9.839,10.048-13.506,10.048-13.506"/>
	<path fill="none" stroke="#E8E8E8" stroke-miterlimit="10" d="M307.833,423.324c0,0,7.738-5.991,12.452-5.991"/>
	<line fill="none" stroke="#E8E8E8" stroke-miterlimit="10" x1="303.333" y1="427.12" x2="310.769" y2="427.12"/>
	<g>
		<path fill="#E8E8E8" d="M314.924,504.618c0,0,0.223-0.12,0.648-0.223c0.212-0.058,0.477-0.105,0.786-0.117
			c0.308-0.016,0.665-0.02,1.051,0.052c0.387,0.064,0.798,0.199,1.21,0.405c0.414,0.206,0.789,0.522,1.146,0.874
			c0.158,0.193,0.301,0.401,0.453,0.605c0.137,0.212,0.239,0.447,0.358,0.672c0.192,0.466,0.384,0.945,0.472,1.438
			c0.125,0.493,0.202,0.973,0.272,1.433c0.071,0.467,0.138,0.935,0.191,1.384c0.116,0.897,0.169,1.744,0.177,2.47
			c0.011,0.726-0.028,1.332-0.095,1.753c-0.061,0.422-0.162,0.657-0.162,0.657l-0.091-0.041c0,0,0.069-0.219,0.085-0.633
			c0.022-0.412-0.002-1.006-0.087-1.713c-0.083-0.707-0.226-1.527-0.4-2.401c-0.087-0.438-0.186-0.882-0.293-1.34
			c-0.107-0.465-0.22-0.923-0.366-1.35c-0.123-0.442-0.339-0.842-0.54-1.225c-0.12-0.18-0.228-0.366-0.348-0.536
			c-0.133-0.158-0.264-0.314-0.393-0.468c-0.143-0.136-0.274-0.281-0.416-0.408c-0.157-0.106-0.297-0.231-0.447-0.333
			c-0.308-0.194-0.62-0.354-0.929-0.469c-0.617-0.245-1.196-0.309-1.603-0.358c-0.411-0.035-0.653-0.03-0.653-0.03L314.924,504.618z
			"/>
	</g>
	<line fill="none" stroke="#E8E8E8" stroke-miterlimit="10" x1="315.563" y1="503.583" x2="321.06" y2="501.171"/>
	<line fill="none" stroke="#E8E8E8" stroke-miterlimit="10" x1="320.821" y1="504.349" x2="326.667" y2="504.667"/>
	<g>
		<path fill="#E8E8E8" d="M292.336,429.525c0,0,0.383-0.257,0.961-0.746c0.285-0.248,0.609-0.555,0.946-0.912
			c0.153-0.198,0.329-0.38,0.496-0.587c0.145-0.228,0.314-0.442,0.464-0.678c0.282-0.488,0.554-1.009,0.745-1.596
			c0.186-0.587,0.349-1.214,0.439-1.903c0.135-0.678,0.175-1.427,0.231-2.206c-0.012-0.79-0.045-1.604-0.206-2.427
			c-0.113-0.806-0.343-1.672-0.536-2.525c-0.205-0.836-0.407-1.659-0.603-2.455c-0.213-0.794-0.42-1.561-0.615-2.288
			c-0.208-0.723-0.411-1.405-0.618-2.028c-0.409-1.246-0.829-2.255-1.163-2.935c-0.331-0.685-0.611-1.012-0.597-0.99l0.185-0.236
			c0.024,0.008,0.387,0.306,0.863,0.946c0.49,0.631,1.066,1.603,1.695,2.796c0.628,1.195,1.296,2.62,1.923,4.178
			c0.324,0.773,0.639,1.593,0.942,2.418c0.287,0.82,0.611,1.636,0.859,2.563c0.127,0.454,0.304,0.891,0.389,1.362
			c0.095,0.472,0.191,0.941,0.285,1.407c0.125,0.957,0.207,1.929,0.056,2.89c-0.044,0.475-0.185,0.945-0.334,1.392
			c-0.118,0.455-0.351,0.872-0.567,1.27c-0.429,0.801-1.006,1.458-1.589,1.972c-0.588,0.514-1.208,0.858-1.759,1.111
			c-0.289,0.106-0.551,0.209-0.798,0.286c-0.255,0.062-0.484,0.118-0.694,0.156c-0.422,0.069-0.754,0.085-0.983,0.079
			c-0.236-0.007-0.348-0.022-0.348-0.022L292.336,429.525z"/>
	</g>
	<line fill="none" stroke="#E8E8E8" stroke-miterlimit="10" x1="297.377" y1="417.333" x2="300.667" y2="413.583"/>
	<line fill="none" stroke="#E8E8E8" stroke-miterlimit="10" x1="297.949" y1="423.324" x2="288.99" y2="418.11"/>
	<line fill="none" stroke="#E8E8E8" stroke-miterlimit="10" x1="285.125" y1="466.491" x2="277.815" y2="466.491"/>
	<line fill="none" stroke="#E8E8E8" stroke-miterlimit="10" x1="283.123" y1="471.247" x2="285.667" y2="481.667"/>
	<line fill="none" stroke="#E8E8E8" stroke-miterlimit="10" x1="271.659" y1="433.078" x2="268.571" y2="440.625"/>
	<line fill="none" stroke="#E8E8E8" stroke-miterlimit="10" x1="284.395" y1="476.457" x2="281.47" y2="484"/>
	<g>
		<path fill="#E8E8E8" d="M294.961,481.672c0,0,0.127,0.796,0.348,2.189c0.195,1.377,0.474,3.345,0.809,5.705
			c0.173,1.165,0.36,2.427,0.558,3.762c0.121,0.66,0.233,1.338,0.338,2.031c0.139,0.685,0.243,1.39,0.372,2.102
			c0.273,1.412,0.531,2.877,0.936,4.296l0.313,1.066c0.125,0.343,0.274,0.671,0.41,1.012c0.13,0.346,0.278,0.678,0.467,0.97
			c0.166,0.283,0.37,0.666,0.503,0.875c0.494,0.624,0.984,1.285,1.49,1.767c0.475,0.532,1.051,1.047,1.614,1.559
			c1.135,1.016,2.343,1.94,3.527,2.818c1.199,0.862,2.39,1.655,3.523,2.409c1.14,0.744,2.232,1.43,3.251,2.048
			c4.089,2.452,6.926,3.915,6.926,3.915l-0.123,0.274c0,0-2.992-1.139-7.314-3.25c-1.08-0.529-2.242-1.12-3.463-1.768
			c-1.22-0.651-2.476-1.395-3.77-2.184c-1.28-0.815-2.594-1.679-3.873-2.67c-1.249-0.939-2.64-2.215-3.626-3.373
			c-0.345-0.426-0.53-0.744-0.802-1.126c-0.27-0.363-0.477-0.742-0.663-1.126c-0.193-0.382-0.398-0.765-0.579-1.149l-0.473-1.162
			c-0.624-1.548-1.028-3.108-1.347-4.625c-0.27-1.521-0.45-2.996-0.523-4.396c-0.029-0.699-0.057-1.378-0.085-2.035
			c0.005-0.656,0.01-1.291,0.015-1.9c0.113-4.867,0.939-8.043,0.939-8.043L294.961,481.672z"/>
	</g>
	<line fill="none" stroke="#E8E8E8" stroke-miterlimit="10" x1="294.811" y1="509.5" x2="300.667" y2="516.89"/>
	<line fill="none" stroke="#E8E8E8" stroke-miterlimit="10" x1="297.377" y1="502.5" x2="304.698" y2="504.667"/>
	<path fill="none" stroke="#E8E8E8" stroke-miterlimit="10" d="M300.667,508.211c0,0,4.392,4.789,3.529,12.123
		c-0.863,7.333-2.319,11-2.319,11"/>
	<line fill="none" stroke="#E8E8E8" stroke-miterlimit="10" x1="304.308" y1="516.89" x2="310.769" y2="529.667"/>
	<line fill="none" stroke="#E8E8E8" stroke-miterlimit="10" x1="307.527" y1="513.433" x2="311.009" y2="520.333"/>
	<line fill="none" stroke="#E8E8E8" stroke-miterlimit="10" x1="304.308" y1="511.113" x2="314.936" y2="511.113"/>
	<line fill="none" stroke="#E8E8E8" stroke-miterlimit="10" x1="341.628" y1="502.5" x2="351.333" y2="502.5"/>
	<path fill="none" stroke="#E8E8E8" stroke-miterlimit="10" d="M314.936,451.022c0,0,5.397,0.218,10.064-3.069
		s5.333-3.62,5.333-3.62"/>
	<line fill="none" stroke="#E8E8E8" stroke-miterlimit="10" x1="320.821" y1="428.979" x2="330.333" y2="423.324"/>
	<line fill="none" stroke="#E8E8E8" stroke-miterlimit="10" x1="322.635" y1="449.314" x2="333" y2="449.314"/>
	<path fill="none" stroke="#E8E8E8" stroke-miterlimit="10" d="M326.667,455.748c0,0,10.333-2.786,12.333-6.434
		c2-3.648,5.333-12.086,5.333-12.086"/>
	<line fill="none" stroke="#E8E8E8" stroke-miterlimit="10" x1="339" y1="449.314" x2="349.333" y2="449.314"/>
	<line fill="none" stroke="#E8E8E8" stroke-miterlimit="10" x1="305.2" y1="452.747" x2="310.769" y2="455.748"/>
	<line fill="none" stroke="#E8E8E8" stroke-miterlimit="10" x1="306.608" y1="456.642" x2="304.698" y2="462"/>
	<path fill="none" stroke="#E8E8E8" stroke-miterlimit="10" d="M320.821,454.356c0,0,12.012,3.978,14.429,7.644s6.378,10,6.378,10"
		/>
	<line fill="none" stroke="#E8E8E8" stroke-miterlimit="10" x1="335.25" y1="462" x2="346.481" y2="464.433"/>
	<line fill="none" stroke="#E8E8E8" stroke-miterlimit="10" x1="312.989" y1="467.653" x2="316.393" y2="459.321"/>
	<line fill="none" stroke="#E8E8E8" stroke-miterlimit="10" x1="314.936" y1="462.887" x2="321.385" y2="459.833"/>
	<g>
		<path fill="#E8E8E8" d="M314.869,466.418c0,0,0.018-0.056,0.081-0.154c0.059-0.1,0.165-0.222,0.333-0.356
			c0.167-0.126,0.398-0.255,0.678-0.337c0.281-0.085,0.611-0.135,0.956-0.12c0.348,0.007,0.719,0.057,1.078,0.17
			c0.371,0.098,0.724,0.263,1.064,0.463c0.338,0.207,0.645,0.466,0.934,0.746c0.285,0.267,0.584,0.591,0.832,0.827
			c0.272,0.25,0.559,0.553,0.812,0.75c0.254,0.224,0.522,0.434,0.792,0.632c0.542,0.374,1.085,0.664,1.583,0.798
			c0.498,0.141,0.937,0.111,1.23,0.031c0.296-0.078,0.442-0.194,0.434-0.186l0.147,0.136c0,0-0.126,0.179-0.437,0.373
			c-0.305,0.202-0.829,0.362-1.46,0.353c-0.631-0.003-1.353-0.173-2.059-0.472c-0.347-0.154-0.709-0.319-1.057-0.536
			c-0.375-0.207-0.651-0.416-0.98-0.625c-0.348-0.229-0.621-0.404-0.944-0.568c-0.302-0.158-0.6-0.314-0.887-0.464
			c-0.262-0.162-0.516-0.318-0.757-0.466c-0.236-0.147-0.455-0.286-0.661-0.396c-0.412-0.228-0.778-0.365-1.078-0.425
			c-0.299-0.049-0.5-0.025-0.5-0.025L314.869,466.418z"/>
	</g>
	<line fill="none" stroke="#E8E8E8" stroke-miterlimit="10" x1="321.385" y1="468.833" x2="325" y2="467.125"/>
	<g>
		<path fill="#E8E8E8" d="M313.135,473.53c-0.014,0.027,0.059,0.018,0.093-0.05c0.031-0.056,0.18-0.12,0.377-0.248
			c0.194-0.122,0.453-0.298,0.74-0.493c0.294-0.197,0.626-0.42,0.987-0.663c0.734-0.477,1.602-1.013,2.602-1.461
			c0.269-0.145,1.102-0.445,1.398-0.62c0.201-0.111,0.416-0.182,0.629-0.329l0.636-0.459c0.388-0.355,0.789-0.714,1.121-1.136
			c0.182-0.198,0.342-0.411,0.496-0.63c0.155-0.217,0.326-0.423,0.455-0.652c0.291-0.44,0.525-0.898,0.76-1.334
			c0.214-0.444,0.418-0.871,0.572-1.281c0.325-0.814,0.525-1.527,0.662-2.027c0.134-0.502,0.187-0.793,0.187-0.793l0.3,0.01
			c0,0,0.152,1.229-0.114,3.078c-0.127,0.923-0.342,2.011-0.787,3.131c-0.223,0.557-0.458,1.147-0.806,1.693
			c-0.311,0.568-0.719,1.098-1.136,1.626l-0.685,0.753c-0.229,0.254-0.529,0.488-0.798,0.732l-0.416,0.352l-0.362,0.247
			c-0.121,0.08-0.24,0.162-0.364,0.232l-0.183,0.109l-0.091,0.054l-0.189,0.093c-1.049,0.47-2.115,0.741-3.069,0.878
			c-0.958,0.122-1.808,0.128-2.455-0.039c-0.318-0.085-0.606-0.178-0.799-0.418c-0.189-0.261-0.028-0.47-0.05-0.428L313.135,473.53z
			"/>
	</g>
	<g>
		<path fill="#E8E8E8" d="M320.212,471.932c0,0,0.084-0.267,0.306-0.673c0.217-0.412,0.585-0.956,1.098-1.54
			c0.512-0.584,1.174-1.206,1.975-1.738c0.815-0.513,1.776-0.897,2.703-1.313c0.933-0.402,1.898-0.755,2.767-1.057
			c0.874-0.316,1.701-0.584,2.409-0.816c1.413-0.473,2.366-0.762,2.366-0.762l0.081,0.183c0,0-0.857,0.508-2.159,1.231
			c-0.65,0.365-1.406,0.795-2.229,1.226c-0.831,0.439-1.669,0.9-2.49,1.412c-0.401,0.271-0.809,0.525-1.183,0.818
			c-0.38,0.283-0.745,0.569-1.116,0.817c-0.748,0.488-1.474,0.901-2.119,1.245c-1.274,0.697-2.259,1.102-2.259,1.102
			L320.212,471.932z"/>
	</g>
	<line fill="none" stroke="#E8E8E8" stroke-miterlimit="10" x1="327.817" y1="466.15" x2="329.25" y2="460.375"/>
	<line fill="none" stroke="#E8E8E8" stroke-miterlimit="10" x1="320.286" y1="471.247" x2="327.817" y2="471"/>
	<g>
		<path fill="#E8E8E8" d="M305.237,469.427c0,0,1.066,0.414,2.232,1.534c0.298,0.274,0.594,0.596,0.889,0.952
			c0.297,0.356,0.583,0.754,0.832,1.197c0.253,0.439,0.452,0.933,0.635,1.437c0.175,0.509,0.349,1.025,0.481,1.558
			c0.129,0.531,0.262,1.062,0.311,1.603c0.082,0.533,0.08,1.07,0.082,1.583c-0.032,0.971-0.104,1.865-0.156,2.637
			c-0.099,1.541-0.194,2.57-0.194,2.57l-0.2,0.005c0,0-0.144-1.023-0.319-2.557c-0.093-0.765-0.198-1.667-0.291-2.618
			c-0.07-0.447-0.132-0.903-0.274-1.357c-0.108-0.457-0.296-0.907-0.475-1.351c-0.196-0.441-0.413-0.873-0.663-1.28
			c-0.253-0.405-0.501-0.803-0.741-1.188c-0.448-0.788-0.847-1.551-1.191-2.223c-0.695-1.333-1.099-2.36-1.099-2.36L305.237,469.427
			z"/>
	</g>
	<g>
		<path fill="#E8E8E8" d="M315.686,473.631c0,0,0.392-0.131,1.078-0.205c0.344-0.04,0.762-0.063,1.238-0.05
			c0.477,0.012,1.015,0.055,1.595,0.153c1.156,0.197,2.502,0.6,3.79,1.378c0.636,0.401,1.239,0.905,1.805,1.461
			c0.271,0.291,0.543,0.584,0.817,0.878l0.758,0.937c0.469,0.644,0.925,1.348,1.253,1.955c0.359,0.626,0.706,1.301,1.003,1.927
			c0.615,1.262,1.09,2.484,1.447,3.543c0.735,2.117,0.9,3.61,0.9,3.61l-0.293,0.064c0,0-0.119-0.338-0.384-0.913
			c-0.268-0.574-0.654-1.39-1.198-2.324c-0.539-0.936-1.223-1.992-1.993-3.089c-0.39-0.556-0.795-1.079-1.226-1.651
			c-0.446-0.603-0.866-1.067-1.323-1.549c-0.251-0.218-0.487-0.446-0.74-0.652c-0.269-0.188-0.537-0.376-0.804-0.562
			c-0.56-0.335-1.108-0.651-1.642-0.961c-1.087-0.651-2.101-1.258-2.97-1.778c-0.932-0.547-1.71-1.003-2.254-1.322
			c-0.564-0.335-0.897-0.551-0.897-0.551L315.686,473.631z"/>
	</g>
	<g>
		<path fill="#E8E8E8" d="M323.25,475.913c0,0,0.41,0.17,1.129,0.468c0.713,0.302,1.709,0.758,2.899,1.292
			c1.176,0.534,2.547,1.158,4.017,1.826c1.46,0.642,2.979,1.422,4.575,1.889c0.794,0.234,1.601,0.394,2.373,0.418
			c0.715,0.019,1.636-0.116,2.411-0.202c1.606-0.203,3.107-0.475,4.391-0.717c2.566-0.507,4.254-0.981,4.254-0.981l0.068,0.188
			c0,0-1.607,0.726-4.127,1.541c-1.258,0.417-2.743,0.846-4.372,1.205c-0.843,0.169-1.593,0.39-2.602,0.451
			c-0.953,0.044-1.889-0.07-2.796-0.244c-1.81-0.364-3.546-0.927-5.058-1.672c-1.513-0.742-2.82-1.605-3.909-2.376
			c-2.167-1.568-3.368-2.922-3.368-2.922L323.25,475.913z"/>
	</g>
	<path fill="none" stroke="#E8E8E8" stroke-miterlimit="10" d="M321.833,476.457c0,0,0.071,3.793-1.548,6.668"/>
	<line fill="none" stroke="#E8E8E8" stroke-miterlimit="10" x1="325.75" y1="478.841" x2="325" y2="485.811"/>
	<path fill="none" stroke="#E8E8E8" stroke-miterlimit="10" d="M331.225,479.791c0,0,4.775,2.454,8.9-1.793"/>
	<path fill="none" stroke="#E8E8E8" stroke-miterlimit="10" d="M335.25,482.11c0,0,5.208,1.265,8.917,5.39
		c3.708,4.125,6.083,9.227,6.083,9.227"/>
	<path fill="none" stroke="#E8E8E8" stroke-miterlimit="10" d="M343.667,486.98c0,0,5.583,1.706,9.708,1.426s5.75-1.426,5.75-1.426"
		/>
	<line fill="none" stroke="#E8E8E8" stroke-miterlimit="10" x1="350.25" y1="488.406" x2="354.875" y2="484.5"/>
	<line fill="none" stroke="#E8E8E8" stroke-miterlimit="10" x1="341.628" y1="463.178" x2="350.25" y2="459.833"/>
	<line fill="none" stroke="#E8E8E8" stroke-miterlimit="10" x1="338.552" y1="467.125" x2="347.25" y2="471.123"/>
	<line fill="none" stroke="#E8E8E8" stroke-miterlimit="10" x1="338.552" y1="462" x2="342.125" y2="459.321"/>
	<line fill="none" stroke="#E8E8E8" stroke-miterlimit="10" x1="333.875" y1="497.667" x2="340.125" y2="496.25"/>
	<g>
		<path fill="#E8E8E8" d="M321.84,495.025c0,0,0.33-0.126,0.895-0.268c0.566-0.146,1.368-0.314,2.318-0.457
			c0.475-0.056,0.987-0.135,1.527-0.179c0.54-0.041,1.109-0.048,1.698-0.041c1.176,0.017,2.435-0.073,3.604-0.356
			c0.578-0.144,1.144-0.344,1.55-0.653c0.44-0.381,0.901-0.836,1.31-1.256c0.839-0.857,1.589-1.699,2.224-2.428
			c1.264-1.463,2.079-2.466,2.079-2.466l0.163,0.116c0,0-0.683,1.102-1.814,2.687c-0.566,0.792-1.236,1.71-2.005,2.664
			c-0.393,0.486-0.778,0.956-1.255,1.454c-0.544,0.548-1.195,0.866-1.835,1.133c-1.292,0.518-2.612,0.773-3.842,1.024
			c-1.233,0.262-2.4,0.209-3.386,0.094c-0.987-0.125-1.8-0.332-2.364-0.518c-0.564-0.183-0.879-0.35-0.879-0.35L321.84,495.025z"/>
	</g>
	<line fill="none" stroke="#E8E8E8" stroke-miterlimit="10" x1="336.263" y1="503.583" x2="330.921" y2="500.465"/>
	<g>
		<path fill="#E8E8E8" d="M343.702,504.313c0,0,0.248,0.161,0.574,0.551c0.332,0.385,0.707,1.021,1.001,1.85
			c0.14,0.416,0.25,0.88,0.319,1.378c0.073,0.497,0.083,1.026,0.071,1.569c-0.035,0.544-0.112,1.093-0.224,1.654
			c-0.111,0.532-0.239,1.081-0.379,1.632c-1.071,4.369-2.892,8.445-2.892,8.445l-0.093-0.036c0,0,1.406-4.237,2.203-8.575
			c0.088-0.537,0.168-1.079,0.234-1.627c0.05-0.521,0.105-1.042,0.112-1.539c0.037-0.498,0.016-0.977,0.007-1.431
			c-0.023-0.453-0.069-0.88-0.132-1.273c-0.075-0.388-0.135-0.753-0.238-1.062c-0.093-0.313-0.202-0.576-0.286-0.8
			c-0.193-0.435-0.346-0.666-0.346-0.666L343.702,504.313z"/>
	</g>
	<line fill="none" stroke="#E8E8E8" stroke-miterlimit="10" x1="348.695" y1="509.064" x2="354.875" y2="510.375"/>
	<line fill="none" stroke="#E8E8E8" stroke-miterlimit="10" x1="345" y1="511.113" x2="347.25" y2="516.5"/>
	<line fill="none" stroke="#E8E8E8" stroke-miterlimit="10" x1="342.75" y1="503.583" x2="341.628" y2="507.125"/>
	<path fill="none" stroke="#E8E8E8" stroke-miterlimit="10" d="M333.875,493.375c0,0,5.625-2.083,8.875-0.542"/>
	<g>
		<path fill="#E8E8E8" d="M307.756,501.157c0,0,0.127,0.225,0.295,0.637c0.18,0.41,0.376,1.014,0.566,1.757
			c0.181,0.744,0.315,1.636,0.319,2.608c-0.013,0.475-0.06,1.012-0.144,1.484c-0.081,0.496-0.182,1-0.285,1.489
			c-0.409,1.969-0.885,3.909-1.287,5.355c-0.403,1.444-0.672,2.407-0.672,2.407l-0.097-0.023c0,0,0.171-0.984,0.428-2.459
			c0.233-1.478,0.59-3.443,0.84-5.41c0.056-0.496,0.105-0.978,0.138-1.458c0.031-0.503,0.049-0.931,0.039-1.392
			c0.018-0.899-0.038-1.749-0.069-2.485c-0.022-0.37-0.041-0.709-0.059-1.009c-0.027-0.3-0.047-0.564-0.058-0.784
			c-0.031-0.439-0.049-0.691-0.049-0.691L307.756,501.157z"/>
	</g>
	<line fill="none" stroke="#E8E8E8" stroke-miterlimit="10" x1="307.833" y1="500.465" x2="312.989" y2="500.465"/>
	<g>
		<path fill="#E8E8E8" d="M277.333,512.85c1.111-0.414,2.141-0.985,3.144-1.557c1.003-0.578,1.981-1.187,2.942-1.821
			c0.483-0.315,0.967-0.623,1.437-0.959l0.358-0.241l0.09-0.058l0.006-0.004c-0.053,0.036,0.127-0.086-0.118,0.08l0.011-0.009
			l0.022-0.018l0.043-0.036l0.173-0.142c0.232-0.187,0.456-0.385,0.695-0.563c0.175-0.175,0.274-0.332,0.422-0.489
			c0.142-0.141,0.298-0.289,0.446-0.522c0.147-0.21,0.312-0.409,0.471-0.614c0.154-0.21,0.285-0.451,0.434-0.674
			c0.306-0.441,0.555-0.94,0.806-1.437c0.265-0.488,0.446-1.034,0.677-1.551c0.407-1.065,0.749-2.169,1.042-3.295
			c0.585-2.246,0.987-4.586,1.253-6.897l1.076,0.587c-2.335,1.408-4.653,2.84-7.009,4.219l-0.171-0.246
			c2.113-1.727,4.264-3.4,6.398-5.098l1.05-0.836l0.026,1.423c0.023,1.235-0.052,2.432-0.141,3.646
			c-0.096,1.21-0.237,2.42-0.427,3.629c-0.188,1.21-0.445,2.416-0.759,3.622c-0.186,0.599-0.319,1.209-0.554,1.805
			c-0.215,0.6-0.415,1.206-0.711,1.797c-0.245,0.603-0.595,1.18-0.976,1.747c-0.324,0.555-0.982,1.183-1.485,1.671
			c-0.236,0.182-0.487,0.344-0.73,0.516l-0.184,0.128l-0.217,0.146l-0.102,0.055l-0.413,0.212c-0.55,0.281-1.118,0.535-1.68,0.792
			c-1.15,0.473-2.337,0.873-3.564,1.137c-1.233,0.231-2.5,0.408-3.775,0.154L277.333,512.85z"/>
	</g>
	<line fill="none" stroke="#E8E8E8" stroke-miterlimit="10" x1="290.702" y1="502.5" x2="283.123" y2="504.667"/>
	<line fill="none" stroke="#E8E8E8" stroke-miterlimit="10" x1="294.623" y1="511.113" x2="291.571" y2="522.667"/>
</g>
<g id="body_outline">
	<path id="body_x5F_outline_1_" fill="none" stroke="#E8E8E8" stroke-width="2" stroke-miterlimit="10" d="M417,568.15
		c0,0,4.667-103.817,3.333-117.817c-1.333-14,8-90.517-51.333-111.258s-92-29.408-99.333-59.408c-7.333-30,18-50.667,18-50.667
		S335,203,335,151s-5.422-78.323-48-103.333C237.455,18.564,206.909,39.644,176.333,51C143.335,63.256,135,110,135,110
		s-7,17-3.5,29.5s-1,24-4.5,27s-16,16.5-6,20.5s14.5,9,11.5,15s-4,6.5-0.5,7s7,1.167,7,1.167s5,3.333,0.5,5.333
		s-4.903,0.853-6.703,1.752c-1.012,0.505-2.653,3.12-1.464,4.081C135.316,224.552,135.5,227.5,135,233s-2,18.5,6.5,20.5s37,0,37,0
		s4.75,0,5,5.5s-1.5,23-6.5,28.5s-15.333,24.833-49.333,33.5S33,334.333,24.333,407.667c0,0-4,110.3,5.333,160.483"/>
	<path id="sinus" fill="#E8E8E8" stroke="#E8E8E8" stroke-miterlimit="10" d="M121.667,178l22.667-23.333c0,0,4-4.667,7.333-4.667
		c3.333,0,40.667,4.333,40.667,4.333s2,3.333-1.667,9.667c-3.667,6.333,2.211,12,2.211,12l29.149,8c0,0,9.306,2,6.973,15.333
		c-2.333,13.333-4.333,33.667-5,44c-0.667,10.333-1.333,36.667,3.333,52.333c4.667,15.667,9.333,32-1,66.333l-6,13.667
		c0,0-6.459,10.111,1.694,14.416c12.64,6.675,36.669,19.369,36.669,19.369s9.417,5.465,17.083,7.465l-2,9.333
		c0,0-17.667-2.333-25.333-6s-36.25-20.083-36.25-20.083s-8.196-5.833-12.205,0.591c-3.094,4.959-10.657,13.701-10.657,13.701
		l-10.868,7.807L177,411.333c0,0,16.667-15.667,24.333-32c7.667-16.333,24.333-49,17.333-71S198,266.667,198,266.667
		s-4.667-9,4-17.667c8.667-8.667-11.5-37.333-11.5-37.333S185,204,170.667,205c-14.333,1-20.333,2.333-20.333,2.333l-6-3
		c0,0,8.667-7,20-6c11.333,1,23,0.667,28.667,6.667s13,22,13,22s1.667,4.333,3-0.333C210.333,222,208,207,208,207
		s-2-14.333-14.667-14.667c-12.667-0.333-43,5-46.667,3.333C143,194,139.667,190,137,188.333
		c-2.667-1.667-11.667-3.667-11.667-3.667S120.445,185.249,121.667,178z"/>
	<path id="lung_x5F_l" fill="none" stroke="#E8E8E8" stroke-width="2" stroke-miterlimit="10" d="M247.857,418.321
		c0,0-13.337-56.854-10.457-68.854c2.88-12,21.6-14.88,21.6-14.88s24.48-0.96,60,36.48s50.4,99.36,55.68,137.76
		c5.28,38.4-7.534,34.923-7.534,34.923s-60.1-14.096-93.72-17.532c-11.926-1.219-8.186-15.471-8.186-15.471s-1.74-17.705-4.32-30.72
		C256.412,457.286,247.857,418.321,247.857,418.321z"/>
	<path id="lung_x5F_r_1_" fill="none" stroke="#E8E8E8" stroke-width="2" stroke-miterlimit="10" d="M199.124,411.106
		c0,0,12.381-34.56,12.381-39.84s4.32-45.6-22.56-33.12c-26.88,12.48-74.4,44.16-85.44,83.52s-19.68,52.32-19.68,83.52
		s0.139,33.308,8.299,52.028c0,0,53.055-25.788,80.895-23.868c27.84,1.92,23.139-13.44,23.139-13.44s-5.773-23.359-3.373-38.24
		C195.185,466.786,199.124,411.106,199.124,411.106z"/>
	<path id="heart_1_" display="none" fill="none" stroke="#E8E8E8" stroke-width="1.44" stroke-miterlimit="10" d="M192.976,505.095
		c0,0,30.24,29.384,71.132,10.052"/>
</g>

</svg>
