<?xml version="1.0" encoding="utf-8"?>
<!-- Generator: Adobe Illustrator 18.1.1, SVG Export Plug-In . SVG Version: 6.00 Build 0)  -->
<!DOCTYPE svg PUBLIC "-//W3C//DTD SVG 1.1//EN" "http://www.w3.org/Graphics/SVG/1.1/DTD/svg11.dtd">
<svg version="1.1" xmlns="http://www.w3.org/2000/svg" xmlns:xlink="http://www.w3.org/1999/xlink" x="0px" y="0px"
	 viewBox="0 0 446 612" enable-background="new 0 0 446 612" xml:space="preserve">
<g id="powerplant">
	<polygon fill="none" stroke="#E8E8E8" stroke-width="1.6" stroke-miterlimit="10" points="152.447,195.164 239.132,195.164 
		239.132,156.13 211.301,171.738 211.301,158.558 180.837,174.554 180.837,160.474 152.447,175.647 	"/>
	<polyline fill="none" stroke="#E8E8E8" stroke-width="1.6" stroke-miterlimit="10" points="183.421,173.198 180.432,93.14 
		177.632,93.14 174.832,93.14 172.145,165.12 	"/>
	<polyline fill="none" stroke="#E8E8E8" stroke-width="1.6" stroke-miterlimit="10" points="215.078,169.62 212.222,93.14 
		209.422,93.14 206.622,93.14 204.037,162.372 	"/>
	<g>
		<g>
			<path fill="none" stroke="#E8E8E8" stroke-width="1.6" stroke-miterlimit="10" d="M252.367,37.328
				c-0.32-0.279-0.63-0.532-0.93-0.759"/>
			<path fill="none" stroke="#E8E8E8" stroke-width="1.6" stroke-miterlimit="10" stroke-dasharray="2.2461,2.2461" d="
				M249.534,35.382c-3.599-1.703-5.28,0.896-6.026,3.009"/>
			<path fill="none" stroke="#E8E8E8" stroke-width="1.6" stroke-miterlimit="10" d="M243.187,39.467
				c-0.17,0.691-0.227,1.176-0.227,1.176c-0.329-0.252-0.652-0.488-0.97-0.709"/>
			<path fill="none" stroke="#E8E8E8" stroke-width="1.6" stroke-miterlimit="10" stroke-dasharray="2.3446,2.3446" d="
				M239.988,38.713c-8.18-4.297-12.282,2.444-13.848,6.187"/>
			<path fill="none" stroke="#E8E8E8" stroke-width="1.6" stroke-miterlimit="10" d="M225.72,45.986
				c-0.247,0.698-0.36,1.141-0.36,1.141c-0.264-0.316-0.525-0.619-0.785-0.909"/>
			<path fill="none" stroke="#E8E8E8" stroke-width="1.6" stroke-miterlimit="10" stroke-dasharray="2.3389,2.3389" d="
				M222.943,44.542c-9.212-8.628-15.824-0.82-18.368,3.207"/>
			<path fill="none" stroke="#E8E8E8" stroke-width="1.6" stroke-miterlimit="10" d="M203.977,48.747
				c-0.366,0.648-0.555,1.059-0.555,1.059c-0.365-0.192-0.722-0.372-1.072-0.542"/>
			<path fill="none" stroke="#E8E8E8" stroke-width="1.6" stroke-miterlimit="10" stroke-dasharray="2.3327,2.3327" d="
				M200.212,48.329c-12.302-4.778-13.804,5.894-13.867,10.853"/>
			<path fill="none" stroke="#E8E8E8" stroke-width="1.6" stroke-miterlimit="10" d="M186.357,60.345
				c0.023,0.743,0.07,1.195,0.07,1.195c-0.408-0.082-0.802-0.15-1.184-0.205"/>
			<path fill="none" stroke="#E8E8E8" stroke-width="1.6" stroke-miterlimit="10" stroke-dasharray="2.3418,2.3418" d="
				M182.907,61.151c-8.837-0.044-8.964,8.285-8.473,12.461"/>
			<path fill="none" stroke="#E8E8E8" stroke-width="1.6" stroke-miterlimit="10" d="M174.599,74.766
				c0.123,0.732,0.233,1.174,0.233,1.174c-0.312,0.273-0.607,0.543-0.886,0.811"/>
			<path fill="none" stroke="#E8E8E8" stroke-width="1.6" stroke-miterlimit="10" stroke-dasharray="2.6215,2.6215" d="
				M172.172,78.683c-4.762,5.983-1.656,10.611,0.707,12.892"/>
			<path fill="none" stroke="#E8E8E8" stroke-width="1.6" stroke-miterlimit="10" d="M173.863,92.44
				c0.573,0.458,0.969,0.699,0.969,0.699"/>
		</g>
	</g>
	<g>
		<g>
			<path fill="none" stroke="#E8E8E8" stroke-width="1.6" stroke-miterlimit="10" d="M234.827,54.072
				c-0.33-0.288-0.644-0.535-0.942-0.745"/>
			<path fill="none" stroke="#E8E8E8" stroke-width="1.6" stroke-miterlimit="10" stroke-dasharray="2.3799,2.3799" d="
				M231.729,52.354c-1.441-0.212-2.305,0.733-2.812,1.763"/>
			<path fill="none" stroke="#E8E8E8" stroke-width="1.6" stroke-miterlimit="10" d="M228.493,55.224
				c-0.193,0.659-0.252,1.169-0.252,1.169c-0.335-0.257-0.661-0.489-0.979-0.699"/>
			<path fill="none" stroke="#E8E8E8" stroke-width="1.6" stroke-miterlimit="10" stroke-dasharray="2.8089,2.8089" d="
				M224.754,54.432c-4.263-1.429-6.701,1.689-7.895,4.083"/>
			<path fill="none" stroke="#E8E8E8" stroke-width="1.6" stroke-miterlimit="10" d="M216.298,59.793
				c-0.26,0.679-0.377,1.137-0.377,1.137c-0.267-0.321-0.531-0.622-0.793-0.904"/>
			<path fill="none" stroke="#E8E8E8" stroke-width="1.6" stroke-miterlimit="10" stroke-dasharray="2.4694,2.4694" d="
				M213.325,58.338c-5.527-4.388-9.604-0.366-11.528,2.388"/>
			<path fill="none" stroke="#E8E8E8" stroke-width="1.6" stroke-miterlimit="10" d="M201.133,61.755
				c-0.374,0.629-0.568,1.052-0.568,1.052c-0.37-0.195-0.729-0.373-1.077-0.534"/>
			<path fill="none" stroke="#E8E8E8" stroke-width="1.6" stroke-miterlimit="10" stroke-dasharray="2.4625,2.4625" d="
				M197.189,61.381c-7.032-2.119-8.364,3.724-8.552,7.223"/>
			<path fill="none" stroke="#E8E8E8" stroke-width="1.6" stroke-miterlimit="10" d="M188.611,69.824
				c0.008,0.73,0.057,1.196,0.057,1.196c-0.415-0.083-0.811-0.146-1.188-0.191"/>
			<path fill="none" stroke="#E8E8E8" stroke-width="1.6" stroke-miterlimit="10" stroke-dasharray="2.8059,2.8059" d="
				M184.678,70.875c-4.17,0.774-4.654,4.894-4.488,7.661"/>
			<path fill="none" stroke="#E8E8E8" stroke-width="1.6" stroke-miterlimit="10" d="M180.333,79.923
				c0.105,0.72,0.219,1.176,0.219,1.176c-0.317,0.277-0.61,0.551-0.879,0.822"/>
			<path fill="none" stroke="#E8E8E8" stroke-width="1.6" stroke-miterlimit="10" stroke-dasharray="2.4251,2.4251" d="
				M178.13,83.791c-2.266,3.45-0.838,6.186,0.603,7.785"/>
			<path fill="none" stroke="#E8E8E8" stroke-width="1.6" stroke-miterlimit="10" d="M179.596,92.42
				c0.545,0.469,0.956,0.72,0.956,0.72"/>
		</g>
	</g>
	<g>
		<g>
			<path fill="none" stroke="#E8E8E8" stroke-width="1.6" stroke-miterlimit="10" d="M206.622,93.14c0,0-0.111-0.442-0.233-1.174"/>
			<path fill="none" stroke="#E8E8E8" stroke-width="1.6" stroke-miterlimit="10" stroke-dasharray="2.3418,2.3418" d="
				M206.116,89.644c-0.31-4.588,0.584-11.981,9.747-11.241"/>
			<path fill="none" stroke="#E8E8E8" stroke-width="1.6" stroke-miterlimit="10" d="M217.033,78.535
				c0.382,0.055,0.776,0.123,1.184,0.205c0,0-0.047-0.452-0.07-1.195"/>
			<path fill="none" stroke="#E8E8E8" stroke-width="1.6" stroke-miterlimit="10" stroke-dasharray="2.3327,2.3327" d="
				M218.176,75.215c0.308-5.427,2.553-14.664,14.906-9.239"/>
			<path fill="none" stroke="#E8E8E8" stroke-width="1.6" stroke-miterlimit="10" d="M234.14,66.464
				c0.35,0.169,0.707,0.35,1.072,0.542c0,0,0.189-0.411,0.555-1.059"/>
			<path fill="none" stroke="#E8E8E8" stroke-width="1.6" stroke-miterlimit="10" stroke-dasharray="2.3389,2.3389" d="
				M237.014,63.974c3.009-4.278,9.617-10.598,18.551-1.414"/>
			<path fill="none" stroke="#E8E8E8" stroke-width="1.6" stroke-miterlimit="10" d="M256.365,63.417
				c0.26,0.29,0.521,0.593,0.785,0.909c0,0,0.113-0.443,0.36-1.141"/>
			<path fill="none" stroke="#E8E8E8" stroke-width="1.6" stroke-miterlimit="10" stroke-dasharray="2.3446,2.3446" d="
				M258.416,61.025c1.935-3.963,6.286-9.492,14.378-4.534"/>
			<path fill="none" stroke="#E8E8E8" stroke-width="1.6" stroke-miterlimit="10" d="M273.78,57.135
				c0.318,0.22,0.641,0.456,0.97,0.709c0,0,0.056-0.486,0.227-1.176"/>
			<path fill="none" stroke="#E8E8E8" stroke-width="1.6" stroke-miterlimit="10" stroke-dasharray="2.2461,2.2461" d="
				M275.732,54.557c0.991-1.986,2.918-3.731,6.56-1.439"/>
			<path fill="none" stroke="#E8E8E8" stroke-width="1.6" stroke-miterlimit="10" d="M283.228,53.769
				c0.299,0.227,0.609,0.48,0.93,0.759"/>
		</g>
	</g>
	<g>
		<g>
			<path fill="none" stroke="#E8E8E8" stroke-width="1.6" stroke-miterlimit="10" d="M212.222,93.14c0,0-0.114-0.456-0.219-1.176"/>
			<path fill="none" stroke="#E8E8E8" stroke-width="1.6" stroke-miterlimit="10" stroke-dasharray="2.8059,2.8059" d="
				M211.843,89.17c0.111-2.902,1.23-6.339,5.894-6.382"/>
			<path fill="none" stroke="#E8E8E8" stroke-width="1.6" stroke-miterlimit="10" d="M219.15,82.869
				c0.377,0.044,0.773,0.107,1.188,0.191c0,0-0.048-0.465-0.057-1.196"/>
			<path fill="none" stroke="#E8E8E8" stroke-width="1.6" stroke-miterlimit="10" stroke-dasharray="2.4625,2.4625" d="
				M220.418,79.408c0.469-3.666,2.4-8.397,9.601-5.584"/>
			<path fill="none" stroke="#E8E8E8" stroke-width="1.6" stroke-miterlimit="10" d="M231.158,74.312
				c0.348,0.162,0.707,0.34,1.077,0.534c0,0,0.195-0.423,0.568-1.052"/>
			<path fill="none" stroke="#E8E8E8" stroke-width="1.6" stroke-miterlimit="10" stroke-dasharray="2.4694,2.4694" d="
				M234.217,71.778c2.266-2.742,6.361-5.618,11.704-0.596"/>
			<path fill="none" stroke="#E8E8E8" stroke-width="1.6" stroke-miterlimit="10" d="M246.799,72.067
				c0.262,0.282,0.526,0.583,0.793,0.904c0,0,0.117-0.458,0.377-1.137"/>
			<path fill="none" stroke="#E8E8E8" stroke-width="1.6" stroke-miterlimit="10" stroke-dasharray="2.8089,2.8089" d="
				M249.228,69.329c1.51-2.317,4.182-4.504,8.483-2.311"/>
			<path fill="none" stroke="#E8E8E8" stroke-width="1.6" stroke-miterlimit="10" d="M258.932,67.733
				c0.318,0.21,0.645,0.442,0.979,0.699c0,0,0.059-0.51,0.252-1.169"/>
			<path fill="none" stroke="#E8E8E8" stroke-width="1.6" stroke-miterlimit="10" stroke-dasharray="2.3799,2.3799" d="
				M261.246,65.168c0.695-0.754,1.736-1.147,3.278-0.413"/>
			<path fill="none" stroke="#E8E8E8" stroke-width="1.6" stroke-miterlimit="10" d="M265.555,65.367
				c0.298,0.21,0.612,0.457,0.942,0.745"/>
		</g>
	</g>
	<polygon fill="#E8E8E8" points="174.832,93.14 180.552,93.14 180.865,101.535 174.399,101.535 	"/>
	<polygon fill="#E8E8E8" points="174.227,109.34 181.037,109.34 181.35,117.735 173.914,117.735 	"/>
	<polygon fill="#E8E8E8" points="206.622,93.14 212.342,93.14 212.655,101.535 206.189,101.535 	"/>
	<polygon fill="#E8E8E8" points="206.017,109.34 212.827,109.34 213.14,117.735 205.704,117.735 	"/>
</g>
<!-- <g id="refinery">
	<path fill="none" stroke="#E8E8E8" stroke-width="2" stroke-miterlimit="10" stroke-dasharray="1.44,1.44" d="M331.507,19.211
		c-3.933-3.429-4.516,1.591-4.516,1.591c-6.4-4.91-8.448,3.112-8.448,3.112c-6.4-7.686-10.53,1.286-10.53,1.286
		c-9.25-4.864-8.158,5.632-8.158,5.632c-7.68-1.536-5.565,6.912-5.565,6.912c-5.565,4.864,0,8.256,0,8.256"/>
	<path fill="none" stroke="#E8E8E8" stroke-width="2" stroke-miterlimit="10" d="M318.482,78.549
		c-4.416-9.368-4.224-18.736-4.224-18.736V46.001c-5.454-2.589-9.208-2.329-9.984-2.238c-0.776-0.091-4.53-0.352-9.984,2.238v13.812
		c0,0,0,8.192-4.224,18.736c-2.278,5.685-5.376,11.267-5.376,11.267h19.584h19.584C323.858,89.816,321.728,85.436,318.482,78.549z"
		/>
	<rect x="284.69" y="89.816" fill="none" stroke="#E8E8E8" stroke-width="2" stroke-miterlimit="10" width="1.536" height="2.929"/>
	
		<rect x="322.322" y="89.816" fill="none" stroke="#E8E8E8" stroke-width="2" stroke-miterlimit="10" width="1.536" height="2.929"/>
	
		<rect x="303.506" y="89.816" fill="none" stroke="#E8E8E8" stroke-width="2" stroke-miterlimit="10" width="1.536" height="2.929"/>
	
		<rect x="312.978" y="89.816" fill="none" stroke="#E8E8E8" stroke-width="2" stroke-miterlimit="10" width="1.536" height="2.929"/>
	
		<rect x="294.161" y="89.816" fill="none" stroke="#E8E8E8" stroke-width="2" stroke-miterlimit="10" width="1.536" height="2.929"/>
</g>
<g id="mini-refinery">
	<path fill="none" stroke="#E8E8E8" stroke-width="2" stroke-miterlimit="10" stroke-dasharray="1.44,1.44" d="M302.397,27.518
		c-3.146-2.744-3.612,1.273-3.612,1.273c-5.12-3.928-6.758,2.489-6.758,2.489c-5.12-6.149-8.424,1.029-8.424,1.029
		c-7.4-3.891-6.526,4.506-6.526,4.506c-6.144-1.229-4.452,5.53-4.452,5.53c-4.452,3.891,0,6.605,0,6.605"/>
	
		<rect x="264.943" y="84.002" fill="none" stroke="#E8E8E8" stroke-width="2" stroke-miterlimit="10" width="1.229" height="2.344"/>
	
		<rect x="279.996" y="84.002" fill="none" stroke="#E8E8E8" stroke-width="2" stroke-miterlimit="10" width="1.229" height="2.344"/>
	
		<rect x="272.521" y="84.002" fill="none" stroke="#E8E8E8" stroke-width="2" stroke-miterlimit="10" width="1.229" height="2.344"/>
	<path fill="none" stroke="#E8E8E8" stroke-width="2" stroke-miterlimit="10" d="M293.585,78.387"/>
	<path fill="none" stroke="#E8E8E8" stroke-width="2" stroke-miterlimit="10" d="M291.548,74.039
		c-3.092-7.165-2.951-14.04-2.951-14.04V48.95c-4.363-2.071-7.367-1.863-7.987-1.79c-0.62-0.073-3.624-0.281-7.987,1.79v11.05
		c0,0,0,6.554-3.379,14.989c-1.822,4.548-4.301,9.014-4.301,9.014h15.667h6.963"/>
</g>
<g id="mini-refinery2" display="none">
	<path display="inline" fill="none" stroke="#E8E8E8" stroke-width="1.2" stroke-miterlimit="10" stroke-dasharray="1.8,1.8" d="
		M172.012,119.788c-3.933-3.429-4.515,1.591-4.515,1.591c-6.4-4.91-8.448,3.112-8.448,3.112c-6.4-7.686-10.53,1.286-10.53,1.286
		c-9.25-4.864-8.158,5.632-8.158,5.632c-7.68-1.536-5.565,6.912-5.565,6.912c-5.565,4.864,0,8.256,0,8.256"/>
	
		<rect x="162.828" y="190.393" display="inline" fill="none" stroke="#E8E8E8" stroke-width="1.2" stroke-miterlimit="10" width="1.536" height="2.929"/>
	
		<rect x="144.012" y="190.393" display="inline" fill="none" stroke="#E8E8E8" stroke-width="1.2" stroke-miterlimit="10" width="1.536" height="2.929"/>
	
		<rect x="153.484" y="190.393" display="inline" fill="none" stroke="#E8E8E8" stroke-width="1.2" stroke-miterlimit="10" width="1.536" height="2.929"/>
	<path display="inline" fill="none" stroke="#E8E8E8" stroke-width="1.2" stroke-miterlimit="10" d="M135.553,190.393h9.226h19.584
		c0,0-2.13-4.38-5.376-11.267c-4.416-9.368-4.224-18.736-4.224-18.736v-13.812c-5.454-2.589-9.208-2.329-9.984-2.238
		c-0.776-0.091-4.53-0.352-9.984,2.238v13.812c0,0,0,8.192-4.224,18.736"/>
</g> -->
<g id="building">
	
		<rect x="223.32" y="243.232" fill="none" stroke="#E8E8E8" stroke-width="1.6" stroke-miterlimit="10" width="69.266" height="92.8"/>
	
		<rect x="250.856" y="250.432" fill="none" stroke="#E8E8E8" stroke-width="1.6" stroke-miterlimit="10" width="14.455" height="18.88"/>
	
		<rect x="271.574" y="250.432" fill="none" stroke="#E8E8E8" stroke-width="1.6" stroke-miterlimit="10" width="14.455" height="18.88"/>
	
		<rect x="229.876" y="250.432" fill="none" stroke="#E8E8E8" stroke-width="1.6" stroke-miterlimit="10" width="14.455" height="18.88"/>
	
		<rect x="250.856" y="275.712" fill="none" stroke="#E8E8E8" stroke-width="1.6" stroke-miterlimit="10" width="14.455" height="18.88"/>
	
		<rect x="271.574" y="275.712" fill="none" stroke="#E8E8E8" stroke-width="1.6" stroke-miterlimit="10" width="14.455" height="18.88"/>
	
		<rect x="229.876" y="275.712" fill="none" stroke="#E8E8E8" stroke-width="1.6" stroke-miterlimit="10" width="14.455" height="18.88"/>
	
		<rect x="271.574" y="300.564" fill="none" stroke="#E8E8E8" stroke-width="1.6" stroke-miterlimit="10" width="14.455" height="18.88"/>
	
		<rect x="229.876" y="300.564" fill="none" stroke="#E8E8E8" stroke-width="1.6" stroke-miterlimit="10" width="14.455" height="18.88"/>
	
		<rect x="250.935" y="300.564" fill="none" stroke="#E8E8E8" stroke-width="1.6" stroke-miterlimit="10" width="14.455" height="18.88"/>
	<polygon fill="none" stroke="#E8E8E8" stroke-width="1.6" stroke-miterlimit="10" points="265.814,319.444 250.51,319.444 
		245.39,336.032 270.934,336.032 	"/>
	
		<line fill="none" stroke="#E8E8E8" stroke-width="1.6" stroke-miterlimit="10" x1="247.95" y1="327.738" x2="268.374" y2="327.738"/>
	
		<line fill="none" stroke="#E8E8E8" stroke-width="1.6" stroke-miterlimit="10" x1="249.292" y1="323.392" x2="267.032" y2="323.392"/>
	
		<line fill="none" stroke="#E8E8E8" stroke-width="1.6" stroke-miterlimit="10" x1="246.724" y1="331.712" x2="269.6" y2="331.712"/>
	
		<rect x="270.934" y="234.058" fill="none" stroke="#E8E8E8" stroke-width="1.6" stroke-miterlimit="10" width="13.596" height="9.173"/>
	<g>
		<g>
			<path fill="none" stroke="#E8E8E8" stroke-width="1.6" stroke-miterlimit="10" d="M349.721,178.247
				c-0.32-0.279-0.63-0.532-0.93-0.759"/>
			<path fill="none" stroke="#E8E8E8" stroke-width="1.6" stroke-miterlimit="10" stroke-dasharray="2.2461,2.2461" d="
				M346.887,176.301c-3.599-1.703-5.28,0.896-6.026,3.009"/>
			<path fill="none" stroke="#E8E8E8" stroke-width="1.6" stroke-miterlimit="10" d="M340.541,180.386
				c-0.17,0.691-0.227,1.176-0.227,1.176c-0.329-0.252-0.652-0.488-0.97-0.709"/>
			<path fill="none" stroke="#E8E8E8" stroke-width="1.6" stroke-miterlimit="10" stroke-dasharray="2.3446,2.3446" d="
				M337.342,179.631c-8.18-4.297-12.282,2.444-13.848,6.187"/>
			<path fill="none" stroke="#E8E8E8" stroke-width="1.6" stroke-miterlimit="10" d="M323.074,186.904
				c-0.247,0.698-0.36,1.141-0.36,1.141c-0.263-0.316-0.525-0.619-0.785-0.909"/>
			<path fill="none" stroke="#E8E8E8" stroke-width="1.6" stroke-miterlimit="10" stroke-dasharray="2.3389,2.3389" d="
				M320.296,185.46c-9.212-8.628-15.824-0.82-18.368,3.207"/>
			<path fill="none" stroke="#E8E8E8" stroke-width="1.6" stroke-miterlimit="10" d="M301.331,189.666
				c-0.366,0.648-0.555,1.059-0.555,1.059c-0.365-0.192-0.722-0.372-1.072-0.542"/>
			<path fill="none" stroke="#E8E8E8" stroke-width="1.6" stroke-miterlimit="10" stroke-dasharray="2.3327,2.3327" d="
				M297.566,189.247c-12.302-4.778-13.804,5.894-13.867,10.853"/>
			<path fill="none" stroke="#E8E8E8" stroke-width="1.6" stroke-miterlimit="10" d="M283.71,201.263
				c0.023,0.743,0.07,1.195,0.07,1.195c-0.408-0.082-0.802-0.15-1.184-0.205"/>
			<path fill="none" stroke="#E8E8E8" stroke-width="1.6" stroke-miterlimit="10" stroke-dasharray="2.3418,2.3418" d="
				M280.261,202.07c-8.837-0.044-8.964,8.285-8.473,12.461"/>
			<path fill="none" stroke="#E8E8E8" stroke-width="1.6" stroke-miterlimit="10" d="M271.952,215.684
				c0.123,0.732,0.233,1.174,0.233,1.174c-0.312,0.273-0.607,0.543-0.886,0.811"/>
			<path fill="none" stroke="#E8E8E8" stroke-width="1.6" stroke-miterlimit="10" stroke-dasharray="2.6215,2.6215" d="
				M269.525,219.602c-4.762,5.983-1.656,10.611,0.707,12.892"/>
			<path fill="none" stroke="#E8E8E8" stroke-width="1.6" stroke-miterlimit="10" d="M271.217,233.359
				c0.573,0.458,0.969,0.699,0.969,0.699"/>
		</g>
	</g>
	<g>
		<g>
			<path fill="none" stroke="#E8E8E8" stroke-width="1.6" stroke-miterlimit="10" d="M338.325,194.99
				c-0.33-0.288-0.644-0.535-0.942-0.745"/>
			<path fill="none" stroke="#E8E8E8" stroke-width="1.6" stroke-miterlimit="10" stroke-dasharray="2.3799,2.3799" d="
				M335.227,193.273c-1.441-0.212-2.305,0.733-2.812,1.763"/>
			<path fill="none" stroke="#E8E8E8" stroke-width="1.6" stroke-miterlimit="10" d="M331.991,196.142
				c-0.193,0.659-0.252,1.169-0.252,1.169c-0.335-0.257-0.661-0.489-0.979-0.699"/>
			<path fill="none" stroke="#E8E8E8" stroke-width="1.6" stroke-miterlimit="10" stroke-dasharray="2.8089,2.8089" d="
				M328.252,195.351c-4.263-1.429-6.701,1.689-7.895,4.083"/>
			<path fill="none" stroke="#E8E8E8" stroke-width="1.6" stroke-miterlimit="10" d="M319.796,200.712
				c-0.26,0.679-0.377,1.137-0.377,1.137c-0.267-0.321-0.531-0.622-0.793-0.904"/>
			<path fill="none" stroke="#E8E8E8" stroke-width="1.6" stroke-miterlimit="10" stroke-dasharray="2.4694,2.4694" d="
				M316.823,199.257c-5.527-4.388-9.604-0.366-11.528,2.388"/>
			<path fill="none" stroke="#E8E8E8" stroke-width="1.6" stroke-miterlimit="10" d="M304.631,202.673
				c-0.374,0.629-0.568,1.052-0.568,1.052c-0.37-0.195-0.729-0.373-1.077-0.534"/>
			<path fill="none" stroke="#E8E8E8" stroke-width="1.6" stroke-miterlimit="10" stroke-dasharray="2.4625,2.4625" d="
				M300.687,202.3c-7.032-2.119-8.364,3.724-8.552,7.223"/>
			<path fill="none" stroke="#E8E8E8" stroke-width="1.6" stroke-miterlimit="10" d="M292.109,210.743
				c0.009,0.73,0.057,1.196,0.057,1.196c-0.415-0.083-0.811-0.146-1.188-0.191"/>
			<path fill="none" stroke="#E8E8E8" stroke-width="1.6" stroke-miterlimit="10" stroke-dasharray="2.8059,2.8059" d="
				M288.176,211.794c-4.17,0.774-4.654,4.894-4.488,7.661"/>
			<path fill="none" stroke="#E8E8E8" stroke-width="1.6" stroke-miterlimit="10" d="M283.831,220.842
				c0.105,0.72,0.219,1.176,0.219,1.176c-0.317,0.277-0.61,0.551-0.879,0.822"/>
			<path fill="none" stroke="#E8E8E8" stroke-width="1.6" stroke-miterlimit="10" stroke-dasharray="2.4251,2.4251" d="
				M281.628,224.71c-2.266,3.45-0.838,6.186,0.603,7.785"/>
			<path fill="none" stroke="#E8E8E8" stroke-width="1.6" stroke-miterlimit="10" d="M283.094,233.338
				c0.545,0.469,0.956,0.72,0.956,0.72"/>
		</g>
	</g>
</g>
<g id="grill">
	<g>
		<g>
			<path fill="none" stroke="#E8E8E8" stroke-width="1.6" stroke-miterlimit="10" d="M252.568,354.935
				c-0.32-0.279-0.63-0.532-0.93-0.759"/>
			<path fill="none" stroke="#E8E8E8" stroke-width="1.6" stroke-miterlimit="10" stroke-dasharray="2.2461,2.2461" d="
				M249.734,352.989c-3.599-1.703-5.28,0.896-6.026,3.009"/>
			<path fill="none" stroke="#E8E8E8" stroke-width="1.6" stroke-miterlimit="10" d="M243.387,357.073
				c-0.17,0.691-0.227,1.176-0.227,1.176c-0.329-0.252-0.652-0.488-0.97-0.709"/>
			<path fill="none" stroke="#E8E8E8" stroke-width="1.6" stroke-miterlimit="10" stroke-dasharray="2.3446,2.3446" d="
				M240.188,356.319c-8.18-4.297-12.282,2.444-13.848,6.187"/>
			<path fill="none" stroke="#E8E8E8" stroke-width="1.6" stroke-miterlimit="10" d="M225.92,363.592
				c-0.247,0.698-0.36,1.141-0.36,1.141c-0.263-0.316-0.525-0.619-0.785-0.909"/>
			<path fill="none" stroke="#E8E8E8" stroke-width="1.6" stroke-miterlimit="10" stroke-dasharray="2.3389,2.3389" d="
				M223.143,362.148c-9.212-8.628-15.824-0.82-18.368,3.207"/>
			<path fill="none" stroke="#E8E8E8" stroke-width="1.6" stroke-miterlimit="10" d="M204.177,366.353
				c-0.366,0.648-0.555,1.059-0.555,1.059c-0.365-0.192-0.722-0.372-1.072-0.542"/>
			<path fill="none" stroke="#E8E8E8" stroke-width="1.6" stroke-miterlimit="10" stroke-dasharray="2.3327,2.3327" d="
				M200.413,365.935c-12.302-4.778-13.804,5.894-13.867,10.853"/>
			<path fill="none" stroke="#E8E8E8" stroke-width="1.6" stroke-miterlimit="10" d="M186.557,377.951
				c0.023,0.743,0.07,1.195,0.07,1.195c-0.408-0.082-0.802-0.15-1.184-0.205"/>
			<path fill="none" stroke="#E8E8E8" stroke-width="1.6" stroke-miterlimit="10" stroke-dasharray="2.3418,2.3418" d="
				M183.108,378.757c-8.837-0.044-8.964,8.285-8.473,12.461"/>
			<path fill="none" stroke="#E8E8E8" stroke-width="1.6" stroke-miterlimit="10" d="M174.799,392.372
				c0.123,0.732,0.233,1.174,0.233,1.174c-0.312,0.273-0.607,0.543-0.886,0.811"/>
			<path fill="none" stroke="#E8E8E8" stroke-width="1.6" stroke-miterlimit="10" stroke-dasharray="2.6215,2.6215" d="
				M172.372,396.289c-4.762,5.983-1.656,10.611,0.707,12.892"/>
			<path fill="none" stroke="#E8E8E8" stroke-width="1.6" stroke-miterlimit="10" d="M174.063,410.047
				c0.573,0.458,0.969,0.699,0.969,0.699"/>
		</g>
	</g>
	<g>
		<g>
			<path fill="none" stroke="#E8E8E8" stroke-width="1.6" stroke-miterlimit="10" d="M240.164,369.471
				c-0.33-0.288-0.644-0.535-0.942-0.745"/>
			<path fill="none" stroke="#E8E8E8" stroke-width="1.6" stroke-miterlimit="10" stroke-dasharray="2.3799,2.3799" d="
				M237.067,367.753c-1.441-0.212-2.305,0.733-2.812,1.763"/>
			<path fill="none" stroke="#E8E8E8" stroke-width="1.6" stroke-miterlimit="10" d="M233.831,370.622
				c-0.193,0.659-0.252,1.169-0.252,1.169c-0.335-0.257-0.661-0.489-0.979-0.699"/>
			<path fill="none" stroke="#E8E8E8" stroke-width="1.6" stroke-miterlimit="10" stroke-dasharray="2.8089,2.8089" d="
				M230.092,369.831c-4.263-1.429-6.701,1.689-7.895,4.083"/>
			<path fill="none" stroke="#E8E8E8" stroke-width="1.6" stroke-miterlimit="10" d="M221.636,375.192
				c-0.26,0.679-0.377,1.137-0.377,1.137c-0.267-0.321-0.531-0.622-0.793-0.904"/>
			<path fill="none" stroke="#E8E8E8" stroke-width="1.6" stroke-miterlimit="10" stroke-dasharray="2.4694,2.4694" d="
				M218.662,373.737c-5.527-4.388-9.604-0.366-11.528,2.388"/>
			<path fill="none" stroke="#E8E8E8" stroke-width="1.6" stroke-miterlimit="10" d="M206.471,377.154
				c-0.374,0.629-0.568,1.052-0.568,1.052c-0.37-0.195-0.729-0.373-1.077-0.534"/>
			<path fill="none" stroke="#E8E8E8" stroke-width="1.6" stroke-miterlimit="10" stroke-dasharray="2.4625,2.4625" d="
				M202.527,376.78c-7.032-2.119-8.364,3.724-8.552,7.223"/>
			<path fill="none" stroke="#E8E8E8" stroke-width="1.6" stroke-miterlimit="10" d="M193.949,385.223
				c0.008,0.73,0.057,1.196,0.057,1.196c-0.415-0.083-0.811-0.146-1.188-0.191"/>
			<path fill="none" stroke="#E8E8E8" stroke-width="1.6" stroke-miterlimit="10" stroke-dasharray="2.8059,2.8059" d="
				M190.016,386.274c-4.17,0.774-4.654,4.894-4.488,7.661"/>
			<path fill="none" stroke="#E8E8E8" stroke-width="1.6" stroke-miterlimit="10" d="M185.671,395.322
				c0.105,0.72,0.219,1.176,0.219,1.176c-0.317,0.277-0.61,0.551-0.879,0.822"/>
			<path fill="none" stroke="#E8E8E8" stroke-width="1.6" stroke-miterlimit="10" stroke-dasharray="2.4251,2.4251" d="
				M183.467,399.19c-2.266,3.45-0.838,6.186,0.603,7.785"/>
			<path fill="none" stroke="#E8E8E8" stroke-width="1.6" stroke-miterlimit="10" d="M184.934,407.818
				c0.545,0.469,0.956,0.72,0.956,0.72"/>
		</g>
	</g>
	<g>
		<g>
			<path fill="none" stroke="#E8E8E8" stroke-width="1.6" stroke-miterlimit="10" d="M247.053,378.403
				c-0.264-0.23-0.515-0.428-0.754-0.596"/>
			<path fill="none" stroke="#E8E8E8" stroke-width="1.6" stroke-miterlimit="10" stroke-dasharray="1.9034,1.9034" d="
				M244.575,377.029c-1.153-0.17-1.844,0.587-2.25,1.411"/>
			<path fill="none" stroke="#E8E8E8" stroke-width="1.6" stroke-miterlimit="10" d="M241.986,379.325
				c-0.154,0.527-0.201,0.935-0.201,0.935c-0.268-0.205-0.529-0.391-0.783-0.559"/>
			<path fill="none" stroke="#E8E8E8" stroke-width="1.6" stroke-miterlimit="10" stroke-dasharray="2.2467,2.2467" d="
				M238.995,378.692c-3.409-1.143-5.36,1.35-6.316,3.264"/>
			<path fill="none" stroke="#E8E8E8" stroke-width="1.6" stroke-miterlimit="10" d="M232.229,382.983
				c-0.207,0.542-0.301,0.907-0.301,0.907c-0.214-0.257-0.425-0.497-0.634-0.723"/>
			<path fill="none" stroke="#E8E8E8" stroke-width="1.6" stroke-miterlimit="10" stroke-dasharray="1.9745,1.9745" d="
				M229.851,381.817c-4.42-3.509-7.68-0.297-9.22,1.906"/>
			<path fill="none" stroke="#E8E8E8" stroke-width="1.6" stroke-miterlimit="10" d="M220.098,384.55
				c-0.299,0.503-0.455,0.841-0.455,0.841c-0.296-0.156-0.584-0.298-0.862-0.428"/>
			<path fill="none" stroke="#E8E8E8" stroke-width="1.6" stroke-miterlimit="10" stroke-dasharray="1.9697,1.9697" d="
				M216.943,384.251c-5.628-1.696-6.692,2.983-6.842,5.782"/>
			<path fill="none" stroke="#E8E8E8" stroke-width="1.6" stroke-miterlimit="10" d="M210.08,391.005
				c0.007,0.584,0.046,0.956,0.046,0.956c-0.332-0.066-0.649-0.117-0.951-0.152"/>
			<path fill="none" stroke="#E8E8E8" stroke-width="1.6" stroke-miterlimit="10" stroke-dasharray="2.2437,2.2437" d="
				M206.935,391.846c-3.335,0.619-3.724,3.912-3.591,6.127"/>
			<path fill="none" stroke="#E8E8E8" stroke-width="1.6" stroke-miterlimit="10" d="M203.458,399.085
				c0.084,0.576,0.175,0.941,0.175,0.941c-0.254,0.222-0.488,0.441-0.703,0.657"/>
			<path fill="none" stroke="#E8E8E8" stroke-width="1.6" stroke-miterlimit="10" stroke-dasharray="1.9399,1.9399" d="
				M201.695,402.179c-1.813,2.761-0.67,4.951,0.484,6.23"/>
			<path fill="none" stroke="#E8E8E8" stroke-width="1.6" stroke-miterlimit="10" d="M202.868,409.082
				c0.436,0.376,0.765,0.576,0.765,0.576"/>
		</g>
	</g>
	<path fill="none" stroke="#E8E8E8" stroke-width="1.6" stroke-miterlimit="10" d="M152.877,412.433c0,0,30.08-23.253,71.04,0"/>
	<path fill="none" stroke="#E8E8E8" stroke-width="1.6" stroke-miterlimit="10" d="M152.877,412.433c0,0-1.805,32.554,35.848,32.554
		s35.192-32.554,35.192-32.554C182.957,435.687,152.877,412.433,152.877,412.433"/>
	
		<line fill="none" stroke="#E8E8E8" stroke-width="1.6" stroke-miterlimit="10" x1="178.017" y1="443.961" x2="169.304" y2="460.86"/>
	
		<line fill="none" stroke="#E8E8E8" stroke-width="1.6" stroke-miterlimit="10" x1="198.957" y1="443.961" x2="207.67" y2="460.86"/>
	
		<line fill="none" stroke="#E8E8E8" stroke-width="1.6" stroke-miterlimit="10" x1="188.397" y1="402.098" x2="180.194" y2="422.369"/>
	
		<line fill="none" stroke="#E8E8E8" stroke-width="1.6" stroke-miterlimit="10" x1="196.349" y1="402.732" x2="188.397" y2="422.758"/>
	<line fill="none" stroke="#E8E8E8" stroke-width="1.6" stroke-miterlimit="10" x1="203.94" y1="404.232" x2="196.6" y2="422.369"/>
	
		<line fill="none" stroke="#E8E8E8" stroke-width="1.6" stroke-miterlimit="10" x1="211.223" y1="406.503" x2="205.696" y2="420.162"/>
	
		<line fill="none" stroke="#E8E8E8" stroke-width="1.6" stroke-miterlimit="10" x1="161.754" y1="407.458" x2="158.382" y2="415.789"/>
	
		<line fill="none" stroke="#E8E8E8" stroke-width="1.6" stroke-miterlimit="10" x1="171.299" y1="404.14" x2="165.342" y2="418.861"/>
	
		<line fill="none" stroke="#E8E8E8" stroke-width="1.6" stroke-miterlimit="10" x1="180.167" y1="402.498" x2="172.654" y2="421.063"/>
	
		<line fill="none" stroke="#E8E8E8" stroke-width="1.6" stroke-miterlimit="10" x1="218.345" y1="409.518" x2="215.452" y2="416.666"/>
</g>
<g id="vehicle">
	<g>
		<g>
			<path fill="none" stroke="#E8E8E8" stroke-width="1.6" stroke-miterlimit="10" d="M364.867,545.276
				c-0.166-0.392-0.333-0.754-0.503-1.09"/>
			<path fill="none" stroke="#E8E8E8" stroke-width="1.6" stroke-miterlimit="10" stroke-dasharray="2.2461,2.2461" d="
				M363.173,542.284c-2.488-3.108-5.138-1.509-6.735,0.063"/>
			<path fill="none" stroke="#E8E8E8" stroke-width="1.6" stroke-miterlimit="10" d="M355.678,543.173
				c-0.456,0.546-0.72,0.958-0.72,0.958c-0.185-0.371-0.372-0.725-0.562-1.062"/>
			<path fill="none" stroke="#E8E8E8" stroke-width="1.6" stroke-miterlimit="10" stroke-dasharray="2.3446,2.3446" d="
				M353.134,541.093c-5.469-7.448-12.11-3.187-15.159-0.51"/>
			<path fill="none" stroke="#E8E8E8" stroke-width="1.6" stroke-miterlimit="10" d="M337.121,541.375
				c-0.528,0.519-0.824,0.867-0.824,0.867c-0.098-0.4-0.201-0.787-0.307-1.161"/>
			<path fill="none" stroke="#E8E8E8" stroke-width="1.6" stroke-miterlimit="10" stroke-dasharray="2.3389,2.3389" d="
				M335.258,538.86c-4.497-11.793-13.863-7.673-17.915-5.17"/>
			<path fill="none" stroke="#E8E8E8" stroke-width="1.6" stroke-miterlimit="10" d="M316.368,534.326
				c-0.613,0.422-0.963,0.709-0.963,0.709c-0.244-0.333-0.486-0.651-0.726-0.957"/>
			<path fill="none" stroke="#E8E8E8" stroke-width="1.6" stroke-miterlimit="10" stroke-dasharray="2.3327,2.3327" d="
				M313.168,532.299c-8.962-9.687-14.991-0.754-17.221,3.676"/>
			<path fill="none" stroke="#E8E8E8" stroke-width="1.6" stroke-miterlimit="10" d="M295.447,537.025
				c-0.305,0.678-0.461,1.105-0.461,1.105c-0.331-0.252-0.656-0.486-0.974-0.703"/>
			<path fill="none" stroke="#E8E8E8" stroke-width="1.6" stroke-miterlimit="10" stroke-dasharray="2.3418,2.3418" d="
				M291.993,536.238c-7.924-3.914-11.689,3.517-13.078,7.486"/>
			<path fill="none" stroke="#E8E8E8" stroke-width="1.6" stroke-miterlimit="10" d="M278.558,544.832
				c-0.211,0.711-0.305,1.158-0.305,1.158c-0.4,0.108-0.784,0.222-1.152,0.341"/>
			<path fill="none" stroke="#E8E8E8" stroke-width="1.6" stroke-miterlimit="10" stroke-dasharray="2.6215,2.6215" d="
				M274.659,547.289c-6.903,3.29-6.14,8.811-5.016,11.897"/>
			<path fill="none" stroke="#E8E8E8" stroke-width="1.6" stroke-miterlimit="10" d="M270.148,560.396
				c0.314,0.663,0.564,1.053,0.564,1.053"/>
		</g>
	</g>
	<g>
		<g>
			<path fill="none" stroke="#E8E8E8" stroke-width="1.6" stroke-miterlimit="10" d="M336.621,554.813
				c-0.17-0.403-0.344-0.763-0.52-1.082"/>
			<path fill="none" stroke="#E8E8E8" stroke-width="1.6" stroke-miterlimit="10" stroke-dasharray="2.3799,2.3799" d="
				M334.589,551.912c-1.202-0.823-2.393-0.351-3.3,0.352"/>
			<path fill="none" stroke="#E8E8E8" stroke-width="1.6" stroke-miterlimit="10" d="M330.423,553.072
				c-0.462,0.508-0.739,0.94-0.739,0.94c-0.188-0.377-0.38-0.729-0.574-1.057"/>
			<path fill="none" stroke="#E8E8E8" stroke-width="1.6" stroke-miterlimit="10" stroke-dasharray="2.8089,2.8089" d="
				M327.41,550.722c-3.205-3.153-6.764-1.419-8.886,0.209"/>
			<path fill="none" stroke="#E8E8E8" stroke-width="1.6" stroke-miterlimit="10" d="M317.459,551.833
				c-0.531,0.497-0.837,0.857-0.837,0.857c-0.099-0.405-0.205-0.792-0.317-1.16"/>
			<path fill="none" stroke="#E8E8E8" stroke-width="1.6" stroke-miterlimit="10" stroke-dasharray="2.4694,2.4694" d="
				M315.424,549.222c-3.044-6.367-8.472-4.539-11.408-2.907"/>
			<path fill="none" stroke="#E8E8E8" stroke-width="1.6" stroke-miterlimit="10" d="M302.969,546.948
				c-0.611,0.401-0.972,0.696-0.972,0.696c-0.248-0.337-0.492-0.655-0.734-0.953"/>
			<path fill="none" stroke="#E8E8E8" stroke-width="1.6" stroke-miterlimit="10" stroke-dasharray="2.4625,2.4625" d="
				M299.588,544.884c-5.392-4.987-9.15-0.32-10.853,2.743"/>
			<path fill="none" stroke="#E8E8E8" stroke-width="1.6" stroke-miterlimit="10" d="M288.177,548.712
				c-0.313,0.66-0.473,1.099-0.473,1.099c-0.337-0.257-0.665-0.487-0.984-0.692"/>
			<path fill="none" stroke="#E8E8E8" stroke-width="1.6" stroke-miterlimit="10" stroke-dasharray="2.8059,2.8059" d="
				M284.181,547.933c-4.087-1.132-6.328,2.358-7.392,4.919"/>
			<path fill="none" stroke="#E8E8E8" stroke-width="1.6" stroke-miterlimit="10" d="M276.31,554.16
				c-0.222,0.693-0.319,1.153-0.319,1.153c-0.407,0.11-0.79,0.228-1.15,0.353"/>
			<path fill="none" stroke="#E8E8E8" stroke-width="1.6" stroke-miterlimit="10" stroke-dasharray="2.4251,2.4251" d="
				M272.634,556.671c-3.549,2.108-3.465,5.193-2.871,7.262"/>
			<path fill="none" stroke="#E8E8E8" stroke-width="1.6" stroke-miterlimit="10" d="M270.169,565.068
				c0.284,0.661,0.544,1.066,0.544,1.066"/>
		</g>
	</g>
	<path fill="none" stroke="#E8E8E8" stroke-width="1.6" stroke-miterlimit="10" d="M137.11,576.236h18.482V529.1l-24.617,2.23
		c0,0-0.58,7.437-8.125,18.483l-11.931,12.838v13.585h7.787"/>
	<polygon fill="none" stroke="#E8E8E8" stroke-width="1.6" stroke-miterlimit="10" points="261.375,566.135 157.37,566.135 
		156.96,512.783 260.965,512.783 	"/>
	<circle fill="none" stroke="#E8E8E8" stroke-width="1.6" stroke-miterlimit="10" cx="127.908" cy="576.72" r="9.202"/>
	<circle fill="none" stroke="#E8E8E8" stroke-width="1.6" stroke-miterlimit="10" cx="175.533" cy="577.641" r="9.202"/>
	<circle fill="none" stroke="#E8E8E8" stroke-width="1.6" stroke-miterlimit="10" cx="237.445" cy="577.641" r="9.202"/>
	<polygon fill="none" stroke="#E8E8E8" stroke-width="1.6" stroke-miterlimit="10" points="129.336,551.457 135.48,535.073 
		143.33,535.073 143.33,551.457 	"/>
	
		<rect x="261.375" y="561.449" fill="none" stroke="#E8E8E8" stroke-width="1.6" stroke-miterlimit="10" width="9.338" height="4.686"/>
</g>
</svg>
