<?xml version="1.0" encoding="utf-8"?>
<!-- Generator: Adobe Illustrator 18.1.1, SVG Export Plug-In . SVG Version: 6.00 Build 0)  -->
<!DOCTYPE svg PUBLIC "-//W3C//DTD SVG 1.1//EN" "http://www.w3.org/Graphics/SVG/1.1/DTD/svg11.dtd">
<svg version="1.1" xmlns="http://www.w3.org/2000/svg" xmlns:xlink="http://www.w3.org/1999/xlink" x="0px" y="0px"
	 viewBox="0 0 50.4 50.4" enable-background="new 0 0 50.4 50.4" xml:space="preserve">
<g id="crack" display="none">
	<g display="inline">
		<g>
			<path fill="#492018" d="M34,31.4c-0.2,0-0.4,0-0.6-0.1l-1.6-1.3l-2.1,3.7c-0.2,0.3-0.6,0.4-0.9,0.3l-2.4-1.2l-1.6,3.9
				c-0.1,0.3-0.5,0.5-0.9,0.4l-3.5-1.2l-1.8,4.3h17.3V27.9L34.5,31C34.4,31.2,34.2,31.3,34,31.4z"/>
			<path fill="#492018" d="M17.2,38.5l2.2-5.2c0.1-0.3,0.5-0.5,0.9-0.4l3.5,1.2l1.6-4c0.1-0.2,0.2-0.3,0.4-0.4
				c0.2-0.1,0.4-0.1,0.5,0l2.5,1.2l2.2-3.9c0.1-0.2,0.3-0.3,0.5-0.3c0.2,0,0.4,0,0.6,0.2l1.5,1.3l2.3-4.9v-3.6l-10.7-9.5l-10.7,9.5
				v20.3h2.2C16.7,40,17.2,38.6,17.2,38.5z"/>
		</g>
	</g>
</g>
<g id="leak">
	<g>
		<g>
			<path fill="#6E2C26" d="M25.4,10.9l-10.7,9.5v19.1h21.4V20.4L25.4,10.9z M27.3,34.3C27,34.7,26.5,35,26,35h0l0,0
				c-0.1,0-0.1,0-0.2,0c-0.1,0-0.1,0-0.2,0c0,0,0,0,0,0c-0.6,0-1.1-0.2-1.4-0.7c-1.4-1.8,0-7.5,0.6-9.9l0.9-3.5l0.9,3.5
				C27.3,26.8,28.7,32.5,27.3,34.3z"/>
		</g>
	</g>
</g>
<g id="roaches" display="none">
	<g display="inline">
		<g>
			<path fill="#9A4534" d="M26,10.2l-10.7,9.5v19.1h21.4V19.7L26,10.2z M29.2,28.3l0.3-0.1l2.7,1.6l-1,1.7l-1.7-1l-0.4,0.2
				c-0.4,2.3-1.6,3.8-3.1,3.8c-1.5,0-2.6-1.5-3.1-3.7l-0.5-0.3l-1.8,1l-1-1.7l2.8-1.6l0.3,0.2c0-0.7,0.1-1.3,0.2-1.9l-0.5-0.3
				l-1.8,1l-1-1.7l2.8-1.6l1.1,0.7c0.2-0.4,0.5-0.8,0.8-1.1c-0.2-1.6-0.7-3.2-1.5-3.6c-0.1,0-0.6,0.1-0.9,0.2l-0.6-1.8
				c0.4-0.2,1.5-0.5,2.3-0.2c1.4,0.6,2.1,2.2,2.5,3.8c0.4-1.6,1.1-3.2,2.5-3.8c0.8-0.3,1.9,0,2.3,0.2l-0.6,1.8
				c-0.3-0.1-0.8-0.2-0.9-0.2c-0.8,0.3-1.3,2-1.5,3.7c0.2,0.3,0.5,0.6,0.7,0.9l1.1-0.6l2.7,1.6l-1,1.7l-1.7-1L29,26.4
				C29.1,27,29.2,27.6,29.2,28.3z"/>
		</g>
	</g>
</g>
<g id="asthma" display="none">
	<g id="asthma_5_" display="inline">
		<g display="none">
			<polygon display="inline" fill="#FFFFFF" stroke="#FFFFFF" stroke-width="1.2" stroke-miterlimit="10" points="99.5,-29.4 
				99.4,-33.3 94.4,-33.3 94.5,-29.4 90.1,-29.4 90.1,-14.7 103.3,-14.7 103.3,-29.4 			"/>
			
				<text transform="matrix(1 0 0 1 95.4346 -29.9493)" display="inline" fill="#E8535E" font-family="'HelveticaNeue-CondensedBold'" font-size="5.04">+</text>
			<circle display="inline" fill="#E8535E" cx="96.7" cy="-22.1" r="5.7"/>
			<circle display="inline" fill="#FFFFFF" cx="94.5" cy="-23.9" r="0.6"/>
			<circle display="inline" fill="#FFFFFF" cx="98.4" cy="-23.9" r="0.6"/>
			<path display="inline" fill="none" stroke="#FFFFFF" stroke-width="0.84" stroke-miterlimit="10" d="M94.5-19.2c0,0,1.5-1,3.9,0"
				/>
		</g>
		<g>
			<circle fill="#C65338" cx="14.9" cy="24.7" r="4"/>
			<path fill="#C65338" d="M20.6,28.7v-5.8c0,0,0.1-2.1,2.8-2.1s14.7,0,14.7,0s2.3,0,2.1,2.1c-0.2,3.2,0,5.8,0,5.8H20.6z"/>
			<path fill="#C65338" d="M43.1,19.3c-0.7,0-1.2,0.5-1.2,1.2v9.3h-32c-0.1,0-0.1,0.1-0.2,0.1v-9.4c0-0.7-0.5-1.2-1.2-1.2
				s-1.2,0.5-1.2,1.2v12.1c0,0.7,0.5,1.2,1.2,1.2s1.2-0.5,1.2-1.2v-0.4c0.1,0,0.1,0,0.2,0h32v0.3c0,0.7,0.5,1.2,1.2,1.2
				s1.2-0.5,1.2-1.2V20.5C44.3,19.8,43.8,19.3,43.1,19.3z"/>
		</g>
	</g>
</g>
</svg>
